<?xml version="1.0" encoding="utf-8"?>
<!-- Generator: Adobe Illustrator 19.2.1, SVG Export Plug-In . SVG Version: 6.00 Build 0)  -->
<svg version="1.1" id="Capa_1" xmlns="http://www.w3.org/2000/svg" xmlns:xlink="http://www.w3.org/1999/xlink" x="0px" y="0px"
	 viewBox="0 0 24 24" style="enable-background:new 0 0 24 24;" xml:space="preserve">
<style type="text/css">
	.st0{fill:none;}
</style>
<path d="M7.6,18.6c-1.2,0-2.2,1-2.2,2.2s1,2.2,2.2,2.2s2.2-1,2.2-2.2S8.8,18.6,7.6,18.6z M1,1v2.2h2.2l4,8.3l-1.5,2.7
	c-0.2,0.3-0.3,0.7-0.3,1.1c0,1.2,1,2.2,2.2,2.2h13.2v-2.2H8.1c-0.2,0-0.3-0.1-0.3-0.3l0-0.1l1-1.8H17c0.8,0,1.6-0.5,1.9-1.1l3.9-7.1
	C23,4.7,23,4.5,23,4.3c0-0.6-0.5-1.1-1.1-1.1H5.6L4.6,1C4.6,1,1,1,1,1z M18.6,18.6c-1.2,0-2.2,1-2.2,2.2s1,2.2,2.2,2.2
	c1.2,0,2.2-1,2.2-2.2S19.8,18.6,18.6,18.6z"/>
<path class="st0" d="M0,0h24v24H0V0z"/>
</svg>
