<svg xmlns="http://www.w3.org/2000/svg" viewBox="0 0 709 167">
  <g fill="none" fill-rule="evenodd">
    <path fill="#FFF" d="M55.6387 158.7661C47.1717 158.7661 42.7777 152.9361 42.7777 144.2251 42.7777 135.5121 47.1717 129.7521 55.6387 129.7521 64.0367 129.7521 68.4977 135.5121 68.4977 144.2251 68.4977 152.9361 64.0367 158.7661 55.6387 158.7661M55.6387 120.9731C41.5977 120.9731 32.0797 129.6841 32.0797 144.2251 32.0797 158.7661 41.5977 167.4751 55.6387 167.4751 69.6117 167.4751 79.1917 158.7661 79.1917 144.2251 79.1917 129.6841 69.6117 120.9731 55.6387 120.9731M102.1465 142.981L96.1095 142.981 96.1095 139.745 96.1095 133.501 96.1095 130.704 96.1095 130.667 102.1465 130.667C106.4105 130.667 110.2835 131.782 110.2835 136.823 110.2835 141.868 106.4105 142.981 102.1465 142.981zM111.2635 149.399C117.3675 147.627 120.9745 143.374 120.9745 136.758 120.9745 127.262 113.6285 122.086 102.8045 122.086L85.8735 122.086 85.8735 122.126 85.8735 149.237 85.8735 154.415C85.8735 161.874 88.9555 165.963 96.1095 166.362L96.1095 157.801 96.1095 154.415 96.1095 151.94 96.1095 151.559 101.4885 151.559 110.1485 166.362 121.6975 166.362 111.2635 149.399zM140.0664 154.3774L140.0664 148.2854 157.4534 148.2854 157.4534 139.7054 140.0664 139.7054 140.0664 130.6664 159.6854 130.6664 159.6854 122.0864 129.8324 122.0864 129.8324 154.3774C129.8324 162.2384 133.2444 166.3614 141.2464 166.3614L160.4064 166.3614 160.4064 157.7814 143.0824 157.7814C140.7244 157.7814 140.0664 156.6684 140.0664 154.3774M202.9219 130.6665L202.9219 122.0865 165.1949 122.0865 165.1949 130.6665 178.9079 130.6665 178.9419 130.6665 178.9419 154.4145C178.9419 161.8735 182.0219 165.9635 189.1759 166.3615L189.1759 154.4145 189.1759 151.9395 189.1759 148.3225 189.1759 139.7445 189.1759 133.5005 189.1759 130.7035 189.1759 130.6665 189.2089 130.6665 202.9219 130.6665zM226.4746 158.7661C218.0136 158.7661 213.6136 152.9361 213.6136 144.2251 213.6136 135.5121 218.0136 129.7521 226.4746 129.7521 234.8726 129.7521 239.3356 135.5121 239.3356 144.2251 239.3356 152.9361 234.8726 158.7661 226.4746 158.7661M226.4746 120.9731C212.4356 120.9731 202.9216 129.6841 202.9216 144.2251 202.9216 158.7661 212.4356 167.4751 226.4746 167.4751 240.4516 167.4751 250.0316 158.7661 250.0316 144.2251 250.0316 129.6841 240.4516 120.9731 226.4746 120.9731M13.2578 157.7798C10.8968 157.7798 10.2398 156.6648 10.2398 154.3718L10.2398 150.6978 10.2398 122.0868C3.0838 122.4868-.0002 126.5788-.0002 134.0398L-.0002 138.3408-.0002 150.6978-.0002 154.3718C-.0002 162.2368 3.4138 166.3618 11.4218 166.3618L29.4728 166.3618 29.4728 157.7798 13.2578 157.7798z"/>
    <polygon fill="#D49000" points="258.264 166.506 267.506 166.506 267.506 122.08 258.264 122.08"/>
    <path fill="#D49000" d="M310.9414,142.813 C310.9414,135.186 306.6344,129.889 299.0054,129.889 C291.5564,129.889 286.6194,136.083 286.6194,143.352 L286.6194,166.506 L277.3774,166.506 L277.3774,122.172 L285.8144,122.172 L286.3514,128.633 C290.5704,123.788 295.5054,121.364 301.2504,121.364 C311.9294,121.364 320.2754,128.903 320.2754,142.723 L320.2754,166.506 L310.9414,166.506 L310.9414,142.813 Z"/>
    <polygon fill="#D49000" points="351.772 166.686 341.63 166.686 322.784 122.172 333.015 122.172 338.938 136.442 346.747 156.995 353.747 138.237 360.389 122.172 370.529 122.172"/>
    <path fill="#D49000" d="M394.7568 129.5317C387.9378 129.5317 382.4618 133.1217 381.0278 140.2117L407.8608 140.2117C407.2328 133.1217 402.2958 129.5317 394.7568 129.5317M395.2938 159.1467C399.8718 159.1467 405.3478 157.5317 408.1278 154.3907L414.1428 160.2247C409.5668 165.3387 401.9378 167.7617 395.1138 167.7617 380.5768 167.7617 371.2428 158.5197 371.2428 144.3387 371.2428 130.8777 380.6668 121.2737 394.4868 121.2737 407.6818 121.2737 416.9228 128.8127 416.9228 144.0707 416.9228 145.3267 416.8348 146.6727 416.7428 148.0177L380.8478 148.0177C381.6528 154.8407 387.1278 159.1467 395.2938 159.1467M432.7139 128.0942C435.9439 122.4402 440.9709 121.2742 445.7289 121.2742 450.0359 121.2742 454.1629 122.7992 456.6779 125.0432L452.4579 133.1212C450.2159 131.3262 448.1519 130.4282 444.6489 130.4282 438.2779 130.4282 432.7139 134.3752 432.7139 142.5452L432.7139 166.5062 423.4709 166.5062 423.4709 122.2622 432.0869 122.2622 432.7139 128.0942zM476.5068 128.9927C470.9448 128.9927 467.4438 130.8777 467.4438 134.2877 467.5318 137.9677 471.3028 139.3127 477.0458 139.9417 485.2118 140.6607 495.8028 142.3637 495.8028 153.8517 495.8028 162.1097 488.3558 167.8537 476.9558 167.8537 469.7778 167.8537 462.5978 166.2367 456.7658 159.6857L461.6108 153.1337C465.8268 157.7117 471.8388 159.5967 477.1368 159.6857 481.4438 159.6857 486.5588 158.0707 486.5588 153.7627 486.5588 149.9927 482.7878 148.4677 476.3268 147.8407 468.0708 147.1217 458.2898 144.2487 458.2898 134.5567 458.2898 124.7737 468.4298 121.1837 476.6878 121.1837 483.5068 121.1837 488.7118 122.7117 493.7388 127.0177L488.5318 133.1217C484.9448 129.8017 481.0848 128.9927 476.5068 128.9927"/>
    <polygon fill="#D49000" points="502.352 166.506 511.595 166.506 511.595 122.08 502.352 122.08"/>
    <path fill="#D49000" d="M527.9258 144.4282C527.9258 152.3262 533.1298 158.8772 541.4768 158.8772 550.0028 158.8772 555.1178 152.3262 555.1178 144.4282 555.1178 136.6192 549.6448 129.8892 541.4768 129.8892 533.1298 129.8892 527.9258 136.6192 527.9258 144.4282M564.4518 144.4282C564.4518 157.6212 555.4768 167.4942 541.4768 167.4942 527.5688 167.4942 518.6818 157.6212 518.6818 144.4282 518.6818 131.5062 527.7468 121.3642 541.4768 121.3642 555.1178 121.3642 564.4518 131.5062 564.4518 144.4282M605.1025 142.813C605.1025 135.186 600.7955 129.889 593.1665 129.889 585.7175 129.889 580.7835 136.083 580.7835 143.352L580.7835 166.506 571.5395 166.506 571.5395 122.172 579.9735 122.172 580.5125 128.633C584.7325 123.788 589.6665 121.364 595.4105 121.364 606.0905 121.364 614.4365 128.903 614.4365 142.723L614.4365 166.506 605.1025 166.506 605.1025 142.813zM644.4072 129.5317C637.5862 129.5317 632.1102 133.1217 630.6762 140.2117L657.5102 140.2117C656.8832 133.1217 651.9442 129.5317 644.4072 129.5317M644.9442 159.1467C649.5222 159.1467 654.9962 157.5317 657.7782 154.3907L663.7932 160.2247C659.2152 165.3387 651.5862 167.7617 644.7642 167.7617 630.2252 167.7617 620.8912 158.5197 620.8912 144.3387 620.8912 130.8777 630.3152 121.2737 644.1372 121.2737 657.3302 121.2737 666.5732 128.8127 666.5732 144.0707 666.5732 145.3267 666.4832 146.6727 666.3932 148.0177L630.4962 148.0177C631.3032 154.8407 636.7782 159.1467 644.9442 159.1467M689.3672 128.9927C683.8032 128.9927 680.3012 130.8777 680.3012 134.2877 680.3912 137.9677 684.1602 139.3127 689.9032 139.9417 698.0712 140.6607 708.6622 142.3637 708.6622 153.8517 708.6622 162.1097 701.2132 167.8537 689.8132 167.8537 682.6372 167.8537 675.4552 166.2367 669.6232 159.6857L674.4692 153.1337C678.6862 157.7117 684.6982 159.5967 689.9942 159.6857 694.3032 159.6857 699.4182 158.0707 699.4182 153.7627 699.4182 149.9927 695.6472 148.4677 689.1862 147.8407 680.9302 147.1217 671.1472 144.2487 671.1472 134.5567 671.1472 124.7737 681.2892 121.1837 689.5472 121.1837 696.3672 121.1837 701.5712 122.7117 706.5962 127.0177L701.3912 133.1217C697.8032 129.8017 693.9422 128.9927 689.3672 128.9927"/>
    <path fill="#FFF" fill-rule="nonzero" d="M233.4844,70.1685 C233.4844,69.3400729 234.155973,68.6685 234.9844,68.6685 C235.812827,68.6685 236.4844,69.3400729 236.4844,70.1685 L236.4844,89.5068747 C236.4844,90.3353018 235.812827,91.0068747 234.9844,91.0068747 C234.155973,91.0068747 233.4844,90.3353018 233.4844,89.5068747 L233.4844,70.1685 Z"/>
    <path fill="#FFF" d="M224.695,101.304 L245.105,101.304 L245.105,88.104 L224.695,88.104 L224.695,101.304 Z M227.695,98.306 L242.105,98.306 L242.105,91.106 L227.695,91.106 L227.695,98.306 Z"/>
    <path fill="#FFF" fill-rule="nonzero" d="M260.0332,49.686 C260.0332,48.8575729 260.704773,48.186 261.5332,48.186 C262.361627,48.186 263.0332,48.8575729 263.0332,49.686 L263.0332,84.5000158 C263.0332,85.328443 262.361627,86.0000158 261.5332,86.0000158 C260.704773,86.0000158 260.0332,85.328443 260.0332,84.5000158 L260.0332,49.686 Z"/>
    <path fill="#FFF" d="M251.234,105.15 L271.644,105.15 L271.644,83.521 L251.234,83.521 L251.234,105.15 Z M254.234,102.151 L268.644,102.151 L268.644,86.522 L254.234,86.522 L254.234,102.151 Z"/>
    <path fill="#FFF" fill-rule="nonzero" d="M286.5762,60.1841 C286.5762,59.3556729 287.247773,58.6841 288.0762,58.6841 C288.904627,58.6841 289.5762,59.3556729 289.5762,60.1841 L289.5762,74.5062716 C289.5762,75.3346987 288.904627,76.0062716 288.0762,76.0062716 C287.247773,76.0062716 286.5762,75.3346987 286.5762,74.5062716 L286.5762,60.1841 Z"/>
    <path fill="#FFF" d="M277.775,104.434 L298.185,104.434 L298.185,73.834 L277.775,73.834 L277.775,104.434 Z M280.775,101.434 L295.185,101.434 L295.185,76.834 L280.775,76.834 L280.775,101.434 Z"/>
    <path fill="#FFF" fill-rule="nonzero" d="M313.1152 97.4994258C313.1152 96.6709987 313.786773 95.9994258 314.6152 95.9994258 315.443627 95.9994258 316.1152 96.6709987 316.1152 97.4994258L316.1152 109.056C316.1152 109.884427 315.443627 110.556 314.6152 110.556 313.786773 110.556 313.1152 109.884427 313.1152 109.056L313.1152 97.4994258zM313.1152 40.356C313.1152 39.5275729 313.786773 38.856 314.6152 38.856 315.443627 38.856 316.1152 39.5275729 316.1152 40.356L316.1152 64.5002748C316.1152 65.328702 315.443627 66.0002748 314.6152 66.0002748 313.786773 66.0002748 313.1152 65.328702 313.1152 64.5002748L313.1152 40.356z"/>
    <path fill="#FFF" d="M304.316,98.256 L324.726,98.256 L324.726,63.831 L304.316,63.831 L304.316,98.256 Z M307.316,95.256 L321.726,95.256 L321.726,66.831 L307.316,66.831 L307.316,95.256 Z"/>
    <path fill="#FFF" fill-rule="nonzero" d="M339.6563 90.4904535C339.6563 89.6620263 340.327873 88.9904535 341.1563 88.9904535 341.984727 88.9904535 342.6563 89.6620263 342.6563 90.4904535L342.6563 113.0547C342.6563 113.883127 341.984727 114.5547 341.1563 114.5547 340.327873 114.5547 339.6563 113.883127 339.6563 113.0547L339.6563 90.4904535zM339.6563 47.6567C339.6563 46.8282729 340.327873 46.1567 341.1563 46.1567 341.984727 46.1567 342.6563 46.8282729 342.6563 47.6567L342.6563 54.5313989C342.6563 55.359826 341.984727 56.0313989 341.1563 56.0313989 340.327873 56.0313989 339.6563 55.359826 339.6563 54.5313989L339.6563 47.6567z"/>
    <path fill="#FFF" d="M330.857,91.18 L351.267,91.18 L351.267,53.156 L330.857,53.156 L330.857,91.18 Z M333.857,88.181 L348.267,88.181 L348.267,56.157 L333.857,56.157 L333.857,88.181 Z"/>
    <path fill="#FFF" fill-rule="nonzero" d="M366.1006 80.4992837C366.1006 79.6708566 366.772173 78.9992837 367.6006 78.9992837 368.429027 78.9992837 369.1006 79.6708566 369.1006 80.4992837L369.1006 87.5642C369.1006 88.3926271 368.429027 89.0642 367.6006 89.0642 366.772173 89.0642 366.1006 88.3926271 366.1006 87.5642L366.1006 80.4992837zM366.1006 33.8892C366.1006 33.0607729 366.772173 32.3892 367.6006 32.3892 368.429027 32.3892 369.1006 33.0607729 369.1006 33.8892L369.1006 40.5007654C369.1006 41.3291925 368.429027 42.0007654 367.6006 42.0007654 366.772173 42.0007654 366.1006 41.3291925 366.1006 40.5007654L366.1006 33.8892z"/>
    <path fill="#FFF" d="M357.397,81.179 L377.807,81.179 L377.807,39.104 L357.397,39.104 L357.397,81.179 Z M360.397,78.181 L374.807,78.181 L374.807,42.106 L360.397,42.106 L360.397,78.181 Z"/>
    <path fill="#FFF" fill-rule="nonzero" d="M392.6396 74.4888723C392.6396 73.6604452 393.311173 72.9888723 394.1396 72.9888723 394.968027 72.9888723 395.6396 73.6604452 395.6396 74.4888723L395.6396 80.3307C395.6396 81.1591271 394.968027 81.8307 394.1396 81.8307 393.311173 81.8307 392.6396 81.1591271 392.6396 80.3307L392.6396 74.4888723zM392.6396 22.6997C392.6396 21.8712729 393.311173 21.1997 394.1396 21.1997 394.968027 21.1997 395.6396 21.8712729 395.6396 22.6997L395.6396 33.5060115C395.6396 34.3344386 394.968027 35.0060115 394.1396 35.0060115 393.311173 35.0060115 392.6396 34.3344386 392.6396 33.5060115L392.6396 22.6997z"/>
    <path fill="#FFF" d="M383.936,75.632 L404.346,75.632 L404.346,32.656 L383.936,32.656 L383.936,75.632 Z M386.936,72.632 L401.346,72.632 L401.346,35.656 L386.936,35.656 L386.936,72.632 Z"/>
    <path fill="#FFF" fill-rule="nonzero" d="M419.1807,11.4673 C419.1807,10.6388729 419.852273,9.9673 420.6807,9.9673 C421.509127,9.9673 422.1807,10.6388729 422.1807,11.4673 L422.1807,27.5010183 C422.1807,28.3294454 421.509127,29.0010183 420.6807,29.0010183 C419.852273,29.0010183 419.1807,28.3294454 419.1807,27.5010183 L419.1807,11.4673 Z"/>
    <path fill="#FFF" d="M410.477,67.931 L430.886,67.931 L430.886,26.306 L410.477,26.306 L410.477,67.931 Z M413.477,64.931 L427.886,64.931 L427.886,29.306 L413.477,29.306 L413.477,64.931 Z"/>
    <path fill="#FFF" fill-rule="nonzero" d="M445.7197 60.4978651C445.7197 59.6694379 446.391273 58.9978651 447.2197 58.9978651 448.048127 58.9978651 448.7197 59.6694379 448.7197 60.4978651L448.7197 78.8995C448.7197 79.7279271 448.048127 80.3995 447.2197 80.3995 446.391273 80.3995 445.7197 79.7279271 445.7197 78.8995L445.7197 60.4978651zM445.7197 2.4995C445.7197 1.67107288 446.391273.9995 447.2197.9995 448.048127.9995 448.7197 1.67107288 448.7197 2.4995L448.7197 30.5014029C448.7197 31.3298301 448.048127 32.0014029 447.2197 32.0014029 446.391273 32.0014029 445.7197 31.3298301 445.7197 30.5014029L445.7197 2.4995z"/>
    <path fill="#FFF" d="M437.016,61.856 L457.425,61.856 L457.425,29.681 L437.016,29.681 L437.016,61.856 Z M440.016,58.854 L454.425,58.854 L454.425,32.679 L440.016,32.679 L440.016,58.854 Z"/>
    <path fill="#FFF" fill-rule="nonzero" d="M472.3564 57.496419C472.3564 56.6679918 473.027973 55.996419 473.8564 55.996419 474.684827 55.996419 475.3564 56.6679918 475.3564 57.496419L475.3564 75.2334C475.3564 76.0618271 474.684827 76.7334 473.8564 76.7334 473.027973 76.7334 472.3564 76.0618271 472.3564 75.2334L472.3564 57.496419zM472.3564 20.9214C472.3564 20.0929729 473.027973 19.4214 473.8564 19.4214 474.684827 19.4214 475.3564 20.0929729 475.3564 20.9214L475.3564 38.5036126C475.3564 39.3320397 474.684827 40.0036126 473.8564 40.0036126 473.027973 40.0036126 472.3564 39.3320397 472.3564 38.5036126L472.3564 20.9214z"/>
    <path fill="#FFF" d="M463.559,58.99 L463.559,37.165 L483.966,37.165 L483.966,58.99 L463.559,58.99 Z M466.559,55.99 L480.966,55.99 L480.966,40.165 L466.559,40.165 L466.559,55.99 Z"/>
  </g>
</svg>
