<svg version="1" xmlns="http://www.w3.org/2000/svg" width="3781.333" height="3781.333" viewBox="0 0 2836.000000 2836.000000"><path d="M1785.1 1085.7l-2.2 1.8-.2 55.5-.2 55.5h-17.2c-16.6 0-17.2.1-17.2 2v7.5c-.1 3 .1 6.4.3 7.5.2 1.1 0 2.9-.4 3.9-.4 1.1-.4 3.6 0 5.7.4 2 .3 4.4-.2 5.2-.5.9-.4 1.8.1 2.2.7.3.7 1.5.1 2.9-.5 1.3-.7 2.6-.5 2.8.4.4.5 3.3.5 11.8 0 2.5.1 8.7.2 13.8.2 5-.1 9.2-.5 9.2-.5 0-.5.4-.2 1 .5.8.6 6.2.4 13-.1.8 0 3.5 0 6s.1 5.2.1 6c-.1.8 0 4.4 0 8v12.8c-.1 3.4.1 6.6.4 7 .2.4 8.1.7 17.5.7l17-.1v34.8c0 21.1.4 35.6 1 36.7 1.5 2.7 5.7 3.2 8.4 1.1 2.2-1.8 2.2-2.2 2.7-37.2l.5-35.3h34.2V1199l-6.6-.1c-3.6 0-11.4-.1-17.3-.1l-10.8.1-.2-56c-.3-54.2-.4-56.1-2.2-57.5-2.6-1.9-4.9-1.8-7.5.3zm30.4 125.2c2 .1 2.1.5 2.1 52 0 46.1-.2 52-1.6 52.3-.8.2-13.6.3-28.5.3l-27-.2-.2-15.9c-.1-8.7-.2-16.8-.3-17.9 0-1.1 0-6.7.1-12.5 0-5.8 0-11-.1-11.5-.1-.6-.2-1.2-.1-1.5.1-.3.2-10.4.3-22.5 0-12.1.2-22.2.3-22.5.3-.4 46.1-.5 55-.1zm-137-88.9c-1.7 1.8-1.8 4.5-1.8 32.5v30.5H1642l-.1 8.7c-.2 48.5.1 156.5.5 157.2.5.7 3 1.2 6.9 1.1h31.7c.8 0 10.7-.1 22-.2l20.5-.3v-166l-16.9-.2c-9.2-.1-17.1-.5-17.4-.8-.3-.3-.5-13.7-.5-29.8.1-28.3-.3-32-3.1-33.9-2-1.4-5.3-.8-7.1 1.2zm33 146.5v71h-57l-.3-71.2-.2-71.1 28.7.1 28.8.2v71zm181.8-110c-1.6.7-3.2 2.1-3.5 3.1-.2 1.1-.4 16.4-.4 34.2.1 27.9-.1 32.2-1.4 32.3-.8.1-8.7.3-17.5.3l-16 .2-.1 43.7c-.1 24 .2 43.5.6 43.2.5-.3 1.1-.1 1.4.4.3.5 2 .6 3.8.2 1.8-.4 5.3-.4 7.8 0s4.6.4 4.8 0c.1-.4 2.2-.5 4.5-.2 2.3.4 5.6.4 7.2.1 1.7-.4 3.5-.5 4-.3.6.2 1 12.3.9 33.7 0 22.4.3 33.8 1 34.8 2.6 3.5 9 3.2 10.3-.5.3-1.2.7-16.7.7-34.4.1-17.7.4-32.4.8-32.8.7-.7 1.1-.7 17.1-.3 5.3.2 9.7.1 9.7-.2 0-.4 1.5-.4 3.3-.2 2.3.3 3.4 0 3.5-1 .2-3.8.2-8.7 0-12.1-.2-2.1 0-4.1.4-4.3.3-.2.3-1.7-.2-3.3-.4-1.6-.6-3.2-.3-3.5.3-.3.5-2.7.4-5.3-.1-2.6-.2-5.4-.2-6.1.1-3.6.1-6.1-.2-9.5-.1-2.1.1-4.1.5-4.3.3-.2.3-1.7-.2-3.3-.4-1.6-.6-3.2-.3-3.5.3-.3.5-2.7.4-5.3-.6-12.6-.5-15.3.2-15.3.5 0 .5-.5.1-1.2s-.7-2.9-.5-5c.1-3-.2-3.8-1.6-3.9-1-.1-8.8-.2-17.3-.3l-15.5-.1-.1-32.5c0-17.9-.3-33.4-.7-34.5-1.1-3.4-3.9-4.5-7.4-3zm28.8 82.4c1.5.1 1.7 3 1.5 31.3l-.1 31.3h-57l-.1-31c0-17.1.3-31.2.7-31.5.6-.4 48.9-.5 55-.1zm-350.1-73.7c-1.1 1.8-1.4 6.7-1.5 22.8v20.5h-16.7c-9.2 0-17 .4-17.4.8-1.2 1.2-1.1 169.8.1 170.5.6.4 8.4.7 17.5.7h16.5v10.7c.1 9.5.3 11 2 12.3 2.7 1.9 6.3 1.9 8.3-.2 1.3-1.2 1.7-3.8 1.8-11.2.1-5.3.2-10.1.3-10.6.1-.6 6.2-1 16.4-.9 8.9 0 16.7-.3 17.2-.7.7-.5 1-29.8.9-85.1-.1-46.3-.2-84.8-.3-85.3-.1-.7-6.2-1-17.1-1-11.1.1-17.1-.3-17.3-.9-.2-.6-.3-10-.2-20.9 0-17.8-.1-20-1.8-21.7-2.5-2.7-6.8-2.6-8.7.2zm33.1 56.3c0 .5.2 33.7.2 73.8.1 47.8-.1 72.7-.8 72.8-.5.1-13.5.2-28.7.3l-27.8.1-.1-2.5c-.5-14-.2-38.7.3-38.3.5.2.5-.6 0-1.9-.5-1.7-.8-91.5-.3-103.3.1-2 .8-2 28.6-2 18.3 0 28.5.4 28.6 1zm-138.2-12.4c-2.3 1.7-2.4 2.4-2.5 13.1-.1 6.2-.2 11.5-.3 11.8-.1.3-7.9.5-17.4.5l-17.2-.1.1 83.6c.1 45.9.2 83.8.3 84.1 0 .4 7.1.6 15.6.5 8.6 0 16.3.2 17.2.5 1.4.5 1.7 2.5 1.7 14.3.1 12.4.3 13.9 2.1 15.2 2.1 1.5 5.3 1.8 7.2.6 2.3-1.4 2.9-5.8 2.8-18-.1-10.3.2-12.2 1.5-12.3.8-.1 8.6-.1 17.3-.1 13.8 0 15.7-.2 15.8-1.7.1-2 .1-157 0-162.6l-.1-4.1-16.6.1c-10 0-16.8-.4-17.2-1-.4-.6-.7-5.3-.7-10.5-.1-11.4-.7-13.5-4.4-14.8-2.2-.8-3.3-.6-5.2.9zm32.1 38.4c.1 1.3.1 139.5 0 141.6 0 1.4-3.3 1.5-28.5 1.5-15.7 0-28.6-.2-28.6-.5-.6-2.7-.3-142.7.2-143.1 1.4-1 56.9-.5 56.9.5zm-244.2-12.5l-2.3 1.8-.1 47.9c-.1 26.3-.2 48-.3 48.3 0 .3-7.9.5-17.5.4h-17.3V1473l17.6.2 17.6.3.1 22c.1 12.1.2 22.3.3 22.7 0 .4 1 1.6 2.2 2.7 1.7 1.6 2.6 1.7 5 .9 1.5-.5 3.2-1.9 3.6-3.1.4-1.2.7-11.9.8-23.7v-21.5l17.3-.3 17.2-.2v-137.8l-16.6.1c-9.1.1-16.9 0-17.3-.3-.4-.3-.7-22-.6-48.4v-47.9l-2.4-1.5c-3.3-2.3-4.8-2.3-7.3-.2zm31.9 167.2l.3 56.8h-57.7v-113.6l28.6.1h28.6l.2 56.7zm74.2-137.6c-2 2.2-2.2 3.5-2.3 14.1l-.1 11.8-16.5.1c-9.1.1-17 .2-17.6.3-.7.1-1 22.9-1 75.8l.1 75.8 16.5.2c9.1.1 17 .2 17.6.2.7.1 1 14 1 44.3-.1 41.3 0 44.3 1.7 46.5 2.3 2.8 6 3 8.5.3 1.7-1.9 1.8-4.5 1.8-46.5-.1-24.5.1-44.5.4-44.6.3 0 8-.1 17.2-.1l16.8-.1.2-75.5c.3-66.3.1-75.5-1.2-76-.8-.4-8.6-.6-17.2-.6-13.6 0-15.8-.2-15.9-1.5 0-.9-.2-6.1-.2-11.6-.1-5.8-.7-10.9-1.4-12.1-1.9-3.2-5.8-3.6-8.4-.8zm31.9 102l.2 64.1-28.7-.1-28.8-.1-.1-63.5c0-34.9.3-63.7.7-64 .4-.3 13.2-.5 28.6-.5l27.8.1.3 64zm-350.9-94c-.8 1-1.4 3.9-1.4 6.5 0 2.7-.4 4.9-.8 4.9-.5 0-.5.4-.2 1 .9 1.4 1 10.8.2 11.6-.3.4-.4 1.1 0 1.7.9 1.5.9 20.7 0 20.7-.5 0-.5.5-.2 1.1.6.9.9 11.8.4 14.4-.1.5 0 1.4.1 2 .1.5.2 3.2.2 6 0 2.7-.1 5.4-.2 6-.1.5-.2 1.2 0 1.5.6 1.6.4 13-.3 13-.4 0-.4.8 0 1.7.8 1.7.9 3.5.3 9.3-.1 1.4-.1 2.8 0 3.2.4 1.9.2 8.9-.3 9.4-.3.3-.2 1.7.3 3 .6 1.4.6 2.6-.1 2.9-.5.4-.6 1.1-.3 1.7.6.9.8 7.6.5 15.8-.1 1.9-.8 2-17.6 2H1005v86.6h40.5c22.3 0 40.6-.2 40.6-.5.1-.3.3-19.9.4-43.4l.2-42.8-2.1.2c-1.1 0-8.9.1-17.2 0l-15.2-.1-.1-66.3c0-36.4-.2-67.7-.4-69.5-.2-1.9-1-3.8-1.8-4.3-2.3-1.4-6.5-1-8 .7zm32.6 182.7v31.2H1017v-62.4h28.8l28.8.1-.1 31.1zm73.8-140.6c-1.9 1.7-2 3.1-1.9 28.8.1 14.8-.2 27.7-.5 28.5-.6 1.3-3.5 1.5-17.8 1.4l-17.1-.1v122.4l40.8-.1 40.7-.1v-122l-15.5-.1c-8.5-.1-16.2-.2-17-.3-1.3-.1-1.5-3.9-1.6-28.7 0-26.9-.1-28.7-1.9-30-2.6-1.9-5.8-1.8-8.2.3zm32.3 119.9l.1 49.1h-57.6v-48.5c0-26.7.2-48.8.4-49.2.2-.3 13.1-.6 28.7-.6l28.3.1.1 49.1zm-245.2-79.2c-1.3 2.2-1.6 7.4-1.7 38.8l-.2 36.3h-17.2l-17.3-.1-.1 4.6c-.4 34.2-.3 48 .6 48.1 5.7.3 80.5.3 80.6-.1.1-.3.2-12.1.3-26.3.1-16.8-.2-25.7-.9-25.8-.5-.1-8.2-.2-17-.3l-16-.1-.5-37.8c-.5-41.1-.3-39.7-6.2-39.7-1.8 0-3.3.8-4.4 2.4zm32.1 87.8c.8.5 1.2 19.1.6 26.8-.1 1.3-3.8 1.5-28.2 1.3-15.5-.1-28.3-.4-28.5-.6-.3-.3-.7-18.6-.5-25.7l.1-2.5h27.8c15.2 0 28.2.3 28.7.7zm-746.6 118.2c-.2.2-3.8.7-7.9 1-11.2.9-18.1 2.3-27.5 5.6-3.3 1.2-6.9 2.4-8 2.7-1.1.4-2.4 1-3 1.5-.5.5-3.5 2.3-6.5 4.1-12.4 7.3-24.6 20.9-30 33.5-1.2 2.6-2.5 5.5-3 6.4-.6 1-1 2.2-1 2.7s-.5 2.2-1.1 3.8c-.7 1.5-1.4 3.9-1.6 5.3-.2 1.4-.6 3.4-.8 4.5-.2 1.1-.4 2-.5 2-.5 0-1.3 12.4-1.3 20.5 0 14.3 1.5 24.8 4.8 34 .9 2.5 1.8 4.9 1.9 5.5.5 2 4.1 9 4.9 9.3.4.2.7.8.7 1.3 0 1.8 6.8 11.1 12.1 16.6 9.8 10.1 24.1 18.2 39.4 22.3 10.6 2.8 15.8 3.4 29.5 3.4 13.1.1 21.1-.8 29-3 3-.8 6.2-1.7 7.1-1.9 3.4-.7 16.9-7.4 21.6-10.6 11.9-8.1 20.6-18.2 27.1-31.4 2.1-4.4 4.3-9.4 4.7-11 1.2-4.4 1.2-4.5 1.5-5 .3-.6.4-.9 1.3-5.8 1.7-8.1 2-11.6 2-23.2.1-16.1-1-23.3-5.4-36.7-4.6-14-15.2-29-26.6-37.4-2.1-1.6-4-3.1-4.3-3.4-2.6-2.7-20.6-10.8-27.5-12.4-1.1-.3-8-1.7-11-2.2-1.1-.2-5.8-.7-10.5-1-4.6-.3-8.7-.7-9.1-1-.3-.2-.8-.2-1 0zm14.9 37.2c3.1.8 6.4 1.6 7.2 1.8 2.8.8 10.5 5.6 14 8.8 11.7 10.7 16.8 25.5 16.4 46.8-.2 13-.5 15.3-3.1 23.5-1.7 5.2-6.1 13.8-7.5 14.3-.4.2-.8.8-.8 1.4 0 .9-1.8 2.7-8.5 8.6-1.8 1.6-8.5 5.2-11 5.9-14.2 3.9-24.7 4.2-35.8 1.1-7.5-2-9.3-2.9-15.2-7.3-9.9-7.3-16.4-18.6-19.1-33-.9-4.9-1-22.3-.2-29 2-16.3 12.2-32.3 24.6-38.5 11-5.6 27.1-7.3 39-4.4zm668.1-37.2c-.2.2-3.5.7-7.4 1-11.7 1.1-12.8 1.3-20 3.1-9.8 2.4-24.2 9.4-32.3 15.7-7.5 5.8-15.8 15.5-20.4 23.7-2.7 4.8-7.6 16.6-8.3 20.1-.2.8-.8 3.5-1.4 6-2.8 12.5-3 33.7-.4 45.5.2 1.1.7 3.3 1 5 .9 5.1 6.4 19.4 8.9 23 1.3 2 2.4 3.8 2.4 4.2 0 1.1 6.6 9 12.1 14.5 8 7.8 15.9 12.8 29.4 18.3 9.5 3.9 23 6 38.5 5.9 14.6 0 20.3-.7 31.5-3.9 26.4-7.6 46.9-25.9 55.7-49.5 1.7-4.6 4.1-12.7 4.3-14.5.1-.6.4-2.4.8-4 1-4.3 1.9-14.3 1.9-19.5 0-5.8-1.2-19.1-1.8-21-.3-.8-.8-3.2-1.1-5.4-.3-2.1-1.1-5.4-1.9-7.2-.8-1.9-1.2-3.4-1-3.4.2 0-.9-2.7-2.5-6s-2.9-6.3-2.9-6.6c0-.3-1.9-3.4-4.2-6.7-4.7-6.8-12.3-14.8-18-19.1-4.6-3.4-14.8-9.6-15.8-9.6-.4 0-2.8-.9-5.2-2-3.8-1.6-11-3.7-20.3-5.6-1.1-.2-6-.7-11-1-4.9-.3-9.3-.7-9.6-1-.3-.2-.8-.2-1 0zm17.2 37.4c2 .5 5.1 1.7 6.9 2.6 1.8.9 3.9 1.6 4.6 1.6.7 0 1.4.3 1.6.7.2.5 2.4 2.5 4.9 4.5 7.4 5.9 14.4 18.2 16.2 28.3.3 1.7.8 4.1 1.2 5.5.6 3 .6 21 0 26-.8 5.8-3.5 14.1-6.6 20.2-3.1 6.2-12.1 16.1-15.7 17.2-1.2.4-2.2 1.2-2.2 1.7s-.7.9-1.5.9-2.3.5-3.3 1c-7 4.1-28.8 4.9-39.2 1.4-3-1-5.7-2.1-6-2.4-.3-.3-2-1.3-3.7-2.1-4.5-2.1-13.3-10.6-13.3-12.9 0-.5-.4-1-.8-1-1.3 0-6.6-12.4-7.7-17.8-1.9-9.8-2.4-23.7-1.2-32 2.8-18.4 12-32.6 25.7-39.6 3.9-1.9 7-3.4 7-3.2 0 .2 2.1-.3 4.8-.9 5.2-1.4 22.6-1.2 28.3.3zm983.7-36.3c-.2.1-3.9.5-8.3.9-8.5.6-23.3 4-27.7 6.2-1.5.8-3 1.4-3.3 1.3-1.7-.3-14.5 8.3-19.1 12.8-5.2 5.2-10.6 14.6-11.9 20.8-1.1 5.1-1.3 17.4-.4 21.8 3.5 16.1 16.4 28.9 36 35.9 7.8 2.7 9.6 3.2 16.9 4.4 1.9.3 3.8.8 4.1.9.3.2 3.9.7 8 1.1 4.1.3 8.3.8 9.4 1.1 1.1.2 3.1.6 4.5.8 16.2 2.1 27.4 7.3 31.2 14.5 3.5 6.7 1.8 16.4-3.9 21.6-3.5 3.2-10.3 6.7-16.5 8.4-7.4 2-23.4 1.7-33.5-.5-1.3-.3-3.3-.7-4.5-1-11.5-2.5-26.3-10.7-36.7-20.3-1.3-1.2-2.7-2.2-3-2.2-.3 0-2.6 3-5.1 6.5-2.5 3.6-5.6 8-7 9.9-1.4 1.8-3.5 4.7-4.7 6.4l-2.3 3 3.8 3.8c21.6 22.1 53.1 31.7 91 28 12.1-1.2 32.8-8 37-12.3.7-.7 1.7-1.3 2.2-1.3.5 0 3.7-2.9 7.2-6.4 8-8 12.3-16.4 14.4-27.6 1.3-6.6.2-18.4-2.2-25.7-3.2-9.8-9.3-17.3-18.9-23.6-7-4.6-21.9-9.8-31.6-11.2-2.4-.3-5.5-.8-6.9-1-1.4-.3-4.5-.7-7-1-30.2-2.8-43.1-8.3-45.5-19.3-2.1-10 3.3-18 15.3-22.3 6-2.1 8.3-2.4 21.7-2.3 19.8 0 27.4 2.1 40.3 11.2l6.3 4.4 2.2-2.4c5.5-5.6 17.7-20.6 17.7-21.6 0-1.3-10.2-8.7-17.4-12.6-9.6-5.3-23.6-9.2-37.1-10.2-3.8-.3-8.7-.7-10.7-.8-2.1-.2-3.9-.2-4-.1zm850 0c-.2.1-3.3.5-6.9.9-33.2 3.1-56.7 18.7-61.8 41.1-4 17.4.9 34.2 13.2 45 4.3 3.9 15.4 10.6 17.2 10.5.3 0 1.8.6 3.3 1.4 2.7 1.4 13.1 4.4 18.2 5.2 1.4.2 3.5.7 4.8.9 1.2.3 4.4.8 7 1.1 2.6.2 6.1.6 7.7.9 1.7.2 5 .7 7.5 1 6.5.9 6.9 1 13.5 2.9 12.9 3.8 18.8 10 18.8 19.7 0 8.8-4.6 14.9-14.8 19.3-11.8 5-26 5.4-45 1.2-9.9-2.1-24.1-9.6-33.4-17.5-5.7-4.8-6.5-5.2-7.6-3.7-.7.9-2.1 2.8-3.1 4.2-1.1 1.4-3.6 4.9-5.7 7.7-2.1 2.9-4.9 6.5-6.2 8.2-1.4 1.6-2.5 3.5-2.5 4.1 0 2.3 19.1 18.4 21.8 18.4.6 0 1.2.4 1.4.8.9 2.2 19.5 9.2 30.3 11.3 5.9 1.2 19.5 2.3 28 2.3 31.5-.1 58.4-13.1 68.5-33 1.3-2.7 2.5-5.1 2.6-5.4 0-.3.3-1.2.6-2 3.1-8.1 2.9-27.2-.4-33.3-.6-1.2-1.1-2.3-1-2.5.6-.8-4.4-9.4-7.5-12.8-9.2-10.1-23.5-16.8-42.3-19.9-2.5-.4-5.4-.9-6.5-1.1-1.1-.2-4.5-.6-7.5-.9-26.5-2.4-39.8-7.4-44.2-16.5-2.4-5.1-1.7-12.1 1.5-16.4 3.9-5 8.2-7.5 18.2-10.3 5.1-1.4 27.9-.9 35.2.7 9 2.1 19.2 7 24.4 11.8 2.2 1.9 3.9 3 3.9 2.6 0-.5 1.9-3 4.3-5.5 2.3-2.6 5.8-6.6 7.7-8.9 1.9-2.3 4.5-5.4 5.7-6.9 1.3-1.4 2.3-2.8 2.3-3.1-.1-1.3-19.4-14.1-22-14.6-.3 0-1.8-.6-3.5-1.3-5.9-2.3-12.7-4.4-14.2-4.2-.2 0-1.7-.4-3.5-1-1.8-.5-7.3-1.2-12.3-1.5-4.9-.3-10.5-.7-12.2-.8-1.8-.2-3.4-.2-3.5-.1zm-1559.3 1.6c-2.2.4-5.6 1-7.5 1.3-9.9 1.5-24.9 10-36.2 20.5l-6.8 6.3-.1-3.9c-.1-2.1-.2-5.4-.4-7.3-.2-1.9-.5-5.9-.6-8.8-.3-3.8-.8-5.2-1.9-5.3-9.7-.6-32-.2-32.3.6-.2.5-.3 40.4-.3 88.5l.1 87.5 16.2.5c8.9.3 17.3.3 18.5 0l2.3-.6.1-49.4c0-35.5.4-51.2 1.3-55.5 3.1-14.9 13.6-29.2 25.8-35.4 9.9-4.9 18.9-6.3 31.2-4.7 18.1 2.3 32 15.4 37.1 35.1 1 3.8 1.4 17.9 1.5 57.3.1 28.7.5 52.5.8 52.8.7.7 35.7.7 36.4 0 .5-.5.4-98.2-.1-105.1-1.2-15-4.6-26.5-11.6-39.5-3.9-7.2-17.4-21.5-23-24.4-8.7-4.6-10.9-5.5-16.9-7.5-9.6-3.1-24.8-4.5-33.6-3zm365 .5c-3.8.7-7.9 1.5-9 1.7-4.9 1.1-15.2 5.1-19.8 7.5-2.7 1.5-5.8 3.1-6.8 3.7-1.1.5-1.9 1.3-1.9 1.7 0 .5-.4.8-1 .8-2.6 0-16.4 13.8-21.5 21.5-5.6 8.5-11.5 22.4-13.1 30.7-1.5 7.9-1.7 11-1.8 22.8-.1 17.4 1.3 26.2 6.7 40 2.7 7.1 9.1 17.8 13.4 22.7 1.9 2.1 4 4.5 4.6 5.4.7.8 3.9 3.5 7.2 6 3.3 2.4 6.2 4.6 6.5 4.9 2.4 2.7 25.1 11.7 31 12.3 1.4.2 3 .6 3.5.9 2.7 1.4 31.7 1.8 40.5.4 5.2-.7 18.7-4.4 24-6.4 1.4-.5 2.8-1 3.2-1.1.4-.1 4.6-2.3 9.2-4.9 8-4.4 20.6-14.3 20.6-16.1 0-.5-3-3.7-6.6-7.2-3.6-3.5-8.8-8.5-11.4-11.2-2.7-2.6-5.1-4.7-5.4-4.7-.2 0-1.9 1.3-3.7 3-6.8 6.1-22.9 12.8-35.4 14.6-14.3 2.1-31.6-.1-42.9-5.5-12.5-6-22.4-17.8-25.6-30.6-.6-2.8-1.4-5.6-1.6-6.4-.3-1 .3-1.2 2.1-.9 1.4.3 2.8.1 3.1-.4.3-.4 1-.5 1.7-.1.9.6 42.5.8 45.2.3.6-.1 1.5-.1 2 0 1.3.2 44.7.2 46 0 .6-.1 1.5-.1 2 0 2.5.5 40.7.1 41.3-.4 1.1-1.2.4-37.1-.8-37.1-.1 0-.3-.9-.5-2-.6-3.8-1.5-7.5-2.4-9.7-.5-1.3-.9-2.5-.9-2.8-.2-2.1-7-17-8.2-18-.3-.3-1.5-2-2.6-3.8-3.1-5-11.9-13.7-17.8-17.6-11.4-7.6-23.7-12.1-38.6-14.3-7.5-1.1-27.8-.9-34.5.3zm33.4 32.8c14.8 3.3 26.7 11.5 31.9 22 2.8 5.6 6.1 17.1 5.3 18.4-.4.6-20.7 1-53.8 1-53.1 0-53.1 0-52.8-2.1.8-3.7 5.8-15.7 6.7-15.7.4 0 .8-.7.8-1.5s2.6-4.1 5.8-7.3c5.7-5.7 17.2-12.5 23.2-13.7 1.4-.3 4.1-.9 6-1.4 3.6-.8 22.7-.6 26.9.3zm171.2-32.4c-10.3 2.5-17.7 6.5-24.5 13.4-3.4 3.4-7 7.4-8.1 8.9-1.6 2.2-2.1 2.4-2.1 1 0-1-.4-5.2-.8-9.3-.4-4.1-.8-8.4-.9-9.5-.2-1.9-1-2-17.7-2.3l-17.5-.2.2 88.1c.1 48.4.4 88.3.6 88.5.5.5 35.8.6 36.3.1.2-.2.4-23.6.4-51.9.1-55.7.2-57.7 5.5-68.4 2.4-4.7 7.5-10.8 12.2-14.5 2.2-1.8 12.3-7.1 12.3-6.5 0 .2 2.1-.2 4.8-1 4.3-1.4 16-1.9 22.4-1 5.5.8 12 3.5 17.7 7.3 4 2.7 4.7 2.4 6.8-2.8.8-2.1 1.9-3.9 2.4-3.9s.9-.9.9-2 .5-2 1.2-2c.6 0 .8-.3.5-.7-.4-.3-.3-1.1.2-1.7.6-.6 2.7-4.6 4.9-8.9l3.9-7.7-3.1-2.3c-4.7-3.6-16.5-9.2-21.6-10.2-13.8-2.8-26.3-2.9-36.9-.5zm394.6-1.4c-.1.1-2.8.4-6 .8-7.3.7-17 3-22.2 5.1-4.9 2-14.8 6.8-15.5 7.5-.3.3-2.4 1.8-4.8 3.4-8.7 5.9-17.3 15.6-23.8 26.6-2.1 3.6-3.9 6.7-3.9 7 0 .3-.3.9-.6 1.5-.8 1.3-4.8 13.6-5.4 16.6-.3 1.3-.8 3.9-1.1 5.8-.3 1.8-.8 4.3-1 5.5-1.2 6.1 0 30.5 1.7 33.7.4.9.6 1.8.4 2.1-.6.6 3 11.9 5.6 17.5 1 2.4 1.9 4.5 1.9 4.8 0 .3.8 1.8 1.8 3.3 1.1 1.5 3.1 4.6 4.6 6.9 3.7 5.6 13 15 19.1 19.4 10.3 7.4 26.2 13.8 39.4 15.7 5.5.8 27 .8 32.6-.1 17.2-2.6 34.2-10.4 46-21.1 2.2-2 4.3-3.6 4.8-3.6.4 0 .7-.7.7-1.5s.4-1.5.8-1.5c.5 0 2.4-2.1 4.2-4.8 1.9-2.6 3.7-4.9 4-5.2 1.4-1.1 9-17.9 10.5-23.1 2.9-10.4 4.2-20.5 3.9-32.5-.2-6.5-.5-12.9-.8-14.2-.3-1.2-.8-3.2-1.1-4.5-.2-1.2-.8-3.6-1.1-5.2-.4-1.7-1.1-4.1-1.7-5.5-.6-1.4-1.1-2.7-1.2-3-9.9-29-37.1-51.1-69.1-56-6.6-1.1-22-2-22.7-1.4zm15.3 34.8c1.4.3 3.9.9 5.5 1.2 7 1.5 15.9 6.8 22.4 13.3 6.6 6.5 13.4 17.6 14.5 23.4.2 1.5.7 3 .9 3.4.9 1.4 2 11.7 2 17.3-.1 12.5-3.3 22.9-10.1 33.3-9.8 15-25.3 23.1-44.4 23-7.4-.1-17.2-1.7-19.3-3.3-.5-.4-2.7-1.3-4.7-1.9-2.1-.7-3.8-1.7-3.8-2.2 0-.5-.6-.9-1.4-.9-.8 0-4.3-2.8-7.8-6.3-7.4-7.4-13.5-18.5-15.3-27.8-1.4-7.2-2.2-19.6-1.5-22.2.2-.4.3-1.5.4-2.5.1-.9.6-3.3 1.1-5.2.5-1.9.9-3.7 1-4 3.9-18.7 24.6-37.1 43.3-38.5 1.8-.2 3.5-.5 3.7-.7.6-.5 10.2-.1 13.5.6zm201.8-34.9c-.2.2-2.8.6-5.8.9-9.5 1.1-20.7 5.2-28.7 10.6-2.4 1.7-4.6 3-4.9 3-.3 0-3.7 3.1-7.7 6.9-3.9 3.8-7.3 6.8-7.5 6.6-.3-.3-.6-3.8-1.6-17.7-.3-3.2-.7-6.1-.9-6.5-.4-.6-21.7-.9-31.9-.4-1.5.1-1.6 6.7-1.7 88.6v88.5h36.9v-11.3c.1-39.7.8-92.4 1.2-93.7.3-.8.9-3 1.3-4.8.4-1.8 1.2-3.5 1.6-3.8.5-.3.9-1.3.9-2.2 0-2.8 8.9-15.4 13.1-18.7 2.1-1.7 4.8-3.8 6-4.7 6.7-5.4 22.8-8.3 34.9-6.3 6.5 1 8.1 1.6 15.7 5.2 9.1 4.3 19.3 19.6 21.5 32.3.7 4.1 1.1 24.8 1.2 57l.1 50.5 16.7.5c9.2.3 17.6.3 18.7 0 1.8-.5 1.9-1.9 1.6-55-.1-30-.5-55.6-.8-57-.4-1.3-.9-4.2-1.2-6.5-1.9-13-10.5-30.1-20.4-40.4-10.6-11-25.2-18.4-40.6-20.6-5-.8-17.3-1.4-17.7-1zm181.7 1.1c-8.9 1.6-16 3.7-22.1 6.5-2.2 1-4.4 1.9-4.8 1.9-1.7 0-15.3 9.6-20.5 14.5-6.8 6.4-12 13.3-16.9 22.7-3.4 6.5-4.5 9.1-5.7 13.3-2.9 10.2-3.3 12.1-4.1 19.5-.9 6.8-1.1 24.1-.4 24.5.3.2.7 1.8.8 3.7.3 4.4 2 12 4.3 19 2.2 6.7 9.9 21.8 11.1 21.8.4 0 .8.5.8 1 0 1.2 5.4 7.3 11 12.6 12 11.2 29.1 19 48.5 22.1 9.9 1.5 40.6.6 43.8-1.4.4-.3 2.2-.7 3.8-1 2.7-.4 8.6-2.3 17.4-5.7 4-1.5 14.9-7.8 15.3-8.8.2-.4.8-.8 1.3-.8 1.1 0 1.9-.7 8.6-6.8l4.7-4.2-9.1-8.8c-5-4.8-10.4-10-12.1-11.6l-3.1-2.9-4.3 3.7c-7.7 6.7-22.3 12.5-35.5 14.3-14.1 1.8-32.7-.3-39-4.4-1.2-.8-2.3-1.3-2.3-.9 0 1.3-10.5-6-14.9-10.4-5.9-5.9-11.6-16.9-12.4-24.1l-.4-3.7h22.1c12.1 0 22.6-.1 23.1-.2.6-.1 1.5-.1 2 0 1.3.2 44.7.2 46 0 .6-.1 1.5-.1 2 0 .9.1 42.1.2 46.6.1 1.7-.1 2.1-3.5 2.1-16.6-.2-28.4-8.3-50.8-24.1-66.5-5.7-5.6-8.6-7.9-13.1-10.5-3.5-2-15.3-7.7-16.5-8-.5-.1-2.8-.7-5.1-1.3-13.3-3.8-35.3-5-48.9-2.6zm38 33.9c11.1 3.3 14.1 5.1 22.2 13.3 6.1 6.2 10.2 15.7 10.7 24.7.1 2-.6 2-53.2 2.2l-53.3.1.6-3.1c1.5-7.4 7.5-17.8 13.7-24 7.5-7.4 14.3-11.1 24.6-13.6 9.7-2.3 26-2.1 34.7.4zm-2010.8-32.9c-.3.5-15.3.9-33.4.9l-32.9-.1.1 70.1c.1 38.5.4 71.1.8 72.5.4 1.4.9 3.7 1.1 5.3.8 4.5 5.1 12.9 8.7 16.8 1.9 2 5.4 4.7 7.9 6.2 3.9 2.2 6.5 3.1 15 5.4.8.3 21 .5 44.8.7 38.1.1 43.2 0 43.6-1.4.3-1.3.1-28.6-.3-31.8-.1-.9-8-1.2-36-1.2-38.5 0-41.5-.3-43.3-4.9-.6-1.4-1.2-9.4-1.3-17.8l-.2-15.1h34.6l34.6-.1.2-17 .2-17.1-2.7-.1c-1.5 0-17.1-.1-34.7-.2l-32-.2-.1-17.8-.1-17.7 2.6-.1c1.4 0 18.8-.2 38.6-.3 19.8-.2 36.3-.4 36.7-.4.4-.1.6-7.7.5-17l-.2-16.7H613c-14 0-25.8-.4-26.1-.9-.4-.4-.9-.4-1.2 0zm118.6.2c-.6.4-10.6.7-22.2.7l-21.1-.1-.1 4.1c-.1 5.7-.1 25.6 0 28.1.1 2.1.3 2.2 26.4 2.2 14.4 0 26.7 0 27.3.1.8.1 1.1 14.6 1.2 49.3.1 27.1.4 52 .7 55.3.3 3.3.6 6.7.6 7.5.1.8.5 1.9.9 2.5.3.5 1.2 2.9 2 5.2.7 2.4 1.7 4.3 2.1 4.3.4 0 1 .8 1.4 1.9 1.5 4.7 13.3 13.1 20.9 14.7 5.5 1.3 9.1 1.7 11.2 1.5.8-.1 1.1-19.6 1.1-70.6 0-38.8.3-70.9.7-71.2.3-.4 12.7-.7 27.4-.7l26.7-.1v-34h-52c-28.6 0-52.5-.4-53-.7-.6-.4-1.6-.4-2.2 0zm-671.2 1.3c-4.4.8-12.7 3.7-14.6 5.1-8.1 5.8-14.1 14.1-16.1 22.3-.4 1.6-1 3.9-1.3 5-.8 2.9-.7 108.5.2 111.5.4 1.4.9 3.5 1.1 4.7 1.7 8.4 10.5 19.2 18.7 23 9.3 4.3 13.4 4.7 55.9 4.7l40.5.1.3-17.3.2-17.2H84.2c-35.5 0-39.2-.4-41.5-4.4-.9-1.6-1.3-18.9-1.7-70-.4-59.4-.7-67.9-2-68.1-.8-.1-3.5.2-5.9.6zm310.5-.1c-.6 1.3.1 137.9.7 141 2.6 12.4 6.1 19.8 11.9 25.2 5 4.7 13.7 8.5 21.3 9.4 2.2.3 4.5.6 5.2.9.6.2 1.3-.2 1.5-.8.2-.7.4-14.1.4-29.8l-.1-28.5 10.5-.1c11.9 0 10.8-.6 16.6 9.7 2 3.6 4.4 7.3 5.2 8.2.8 1 1.2 1.8.8 1.8-.4 0 .2 1.2 1.3 2.6 1.2 1.5 2.1 3.2 2.1 4 0 .7.4 1.4.8 1.6.7.3 14.1 22.8 15.1 25.3.2.5 1.3 2.1 2.3 3.5l2 2.5h22.4c12.3 0 22.4-.3 22.4-.7 0-.7-12.8-22-18.5-30.8-4.5-7-10.5-17.2-10.5-18 0-.5-.3-1-.7-1.2-.5-.2-3.2-4-6-8.6l-5.3-8.3 2.8-1.1c9.4-3.7 16.3-7.9 21.3-12.8 10.2-10 14.2-19.9 14.3-35.5.1-14.1-1-19.3-6.3-29.2-8.5-15.9-24.8-25.9-49.1-30-4.4-.7-84.1-1-84.4-.3zm76.2 34.5c1 .4 3 .9 4.6 1.2 3.3.5 9.2 4.1 11.8 6.9 3.2 3.7 4.6 9 4.4 16.1-.4 9.7-2.2 14.2-7.4 18-6.3 4.6-12.4 5.8-31.2 5.8h-17.5l-.1-24c0-13.2.1-24.2.2-24.5.3-.8 33.3-.3 35.2.5zm613.7-34.7c-.3.3-.5 40.3-.5 88.9v88.3l10 .1h23l4-.1-.2-88.8-.3-88.7-17.8-.1c-9.7 0-17.9.2-18.2.4zm260.3 0c-2.9.3-3.4 1.1-1.9 2.7.5.6 2.1 3.9 3.6 7.5s3.6 8.4 4.6 10.7c1 2.3 1.9 4.4 1.9 4.7 0 .3 1.2 3.1 2.6 6.3 1.4 3.2 2.9 6.7 3.4 7.8.4 1.1 1.6 3.8 2.5 6 1 2.2 2.4 5.5 3.1 7.2.8 1.8 2 4.8 2.8 6.5.8 1.8 4.4 10.5 8.1 19.3 3.6 8.8 7.2 17.3 8 19 1.4 3.1 8.8 20.7 13.2 31 1.3 3.3 3.1 7.3 3.8 9 .7 1.6 2.5 5.9 4 9.5 1.5 3.6 3.5 8.3 4.4 10.5 1 2.2 3.1 7.1 4.6 11 1.6 3.8 3.2 7.5 3.7 8.1.5.7 7.4 1.1 20.7 1.2h19.9l1.5-3.1c.8-1.8 3.4-7.7 5.6-13.2 2.3-5.5 4.6-10.9 5.1-12 3.7-8.1 14-33.2 14-34.3 0-.6.5-1.2 1-1.2.6 0 1-.5 1-1.2 0-1 11.1-27.9 24.2-58.8 22.5-52.8 22.8-53.5 21.3-54-1.1-.4-33.8-.5-38.1-.1-.6.1-1.7 1.6-2.4 3.3-.7 1.8-1.9 4.6-2.5 6.3-.7 1.6-3.2 7.7-5.6 13.5-2.3 5.8-4.6 10.9-5.1 11.4-.4.6-.8 1.5-.8 2.2 0 .6-1 3.3-2.2 6-1.2 2.7-2.3 5.1-2.3 5.4-.1.3-.6 1.6-1.2 3s-1.9 4.5-2.8 7c-.9 2.5-2.3 5.8-3 7.5-.7 1.6-2.5 6.4-4 10.5s-3.1 8.4-3.6 9.5c-1.2 2.6-7.9 20.7-8.3 22-.5 2.3-1.9 6.2-3.1 9-.7 1.6-2.2 5.5-3.3 8.5-1.1 3-2.7 7.3-3.5 9.4l-1.4 4-1.6-3.5c-.9-1.9-5.9-14.9-11.2-28.9-5.3-14-9.9-26.2-10.2-27-.4-.8-.7-1.7-.8-2-.2-1-6.6-17.5-7.5-19.5-.5-1.1-3-7.2-5.6-13.5-2.5-6.3-5.4-13.3-6.4-15.5-.9-2.2-3.9-9.4-6.5-16-2.7-6.6-5-12.2-5.2-12.4-.3-.5-34.6-.7-38.5-.3zm716.1-.4c-.1.1-.3 40-.3 88.8l-.2 88.8 13.8.1c7.6 0 15.6.1 17.8.1 2.2.1 4.3-.2 4.7-.6.8-.8 1.1-175.4.3-176.5-.4-.5-35.1-1.2-36.1-.7z"/></svg>