<?xml version="1.0" standalone="no"?>
<!DOCTYPE svg PUBLIC "-//W3C//DTD SVG 20010904//EN"
 "http://www.w3.org/TR/2001/REC-SVG-20010904/DTD/svg10.dtd">
<svg version="1.0" xmlns="http://www.w3.org/2000/svg"
 width="2836.000000pt" height="2836.000000pt" viewBox="0 0 2836.000000 2836.000000"
 preserveAspectRatio="xMidYMid meet">
<metadata>
Created by potrace 1.11, written by Peter Selinger 2001-2013
</metadata>
<g transform="translate(0.000000,2836.000000) scale(0.100000,-0.100000)"
fill="#000000" stroke="none">
<path d="M17851 17503 l-22 -18 -2 -555 -2 -555 -172 0 c-166 0 -172 -1 -172
-20 0 -11 0 -45 0 -75 -1 -30 1 -64 3 -75 2 -11 0 -29 -4 -39 -4 -11 -4 -36 0
-57 4 -20 3 -44 -2 -52 -5 -9 -4 -18 1 -22 7 -3 7 -15 1 -29 -5 -13 -7 -26 -5
-28 4 -4 5 -33 5 -118 0 -25 1 -87 2 -138 2 -50 -1 -92 -5 -92 -5 0 -5 -4 -2
-10 5 -8 6 -62 4 -130 -1 -8 0 -35 0 -60 0 -25 1 -52 1 -60 -1 -8 0 -44 0 -80
0 -36 0 -93 0 -128 -1 -34 1 -66 4 -70 2 -4 81 -7 175 -7 l170 1 0 -348 c0
-211 4 -356 10 -367 15 -27 57 -32 84 -11 22 18 22 22 27 372 l5 353 171 0
171 0 0 643 0 642 -66 1 c-36 0 -114 1 -173 1 l-108 -1 -2 560 c-3 542 -4 561
-22 575 -26 19 -49 18 -75 -3z m304 -1252 c20 -1 21 -5 21 -520 0 -461 -2
-520 -16 -523 -8 -2 -136 -3 -285 -3 l-270 2 -2 159 c-1 87 -2 168 -3 179 0
11 0 67 1 125 0 58 0 110 -1 115 -1 6 -2 12 -1 15 1 3 2 104 3 225 0 121 2
222 3 225 3 4 461 5 550 1z"/>
<path d="M16785 17140 c-17 -18 -18 -45 -18 -325 l0 -305 -174 0 -173 0 -1
-87 c-2 -485 1 -1565 5 -1572 5 -7 30 -12 69 -11 13 0 293 0 317 0 8 0 107 1
220 2 l205 3 0 830 0 830 -169 2 c-92 1 -171 5 -174 8 -3 3 -5 137 -5 298 1
283 -3 320 -31 339 -20 14 -53 8 -71 -12z m330 -1465 l0 -710 -285 0 -285 0
-3 712 -2 711 287 -1 288 -2 0 -710z"/>
<path d="M18933 16775 c-16 -7 -32 -21 -35 -31 -2 -11 -4 -164 -4 -342 1 -279
-1 -322 -14 -323 -8 -1 -87 -3 -175 -3 l-160 -2 -1 -437 c-1 -240 2 -435 6
-432 5 3 11 1 14 -4 3 -5 20 -6 38 -2 18 4 53 4 78 0 25 -4 46 -4 48 0 1 4 22
5 45 2 23 -4 56 -4 72 -1 17 4 35 5 40 3 6 -2 10 -123 9 -337 0 -224 3 -338
10 -348 26 -35 90 -32 103 5 3 12 7 167 7 344 1 177 4 324 8 328 7 7 11 7 171
3 53 -2 97 -1 97 2 0 4 15 4 33 2 23 -3 34 0 35 10 2 38 2 87 0 121 -2 21 0
41 4 43 3 2 3 17 -2 33 -4 16 -6 32 -3 35 3 3 5 27 4 53 -1 26 -2 54 -2 61 1
36 1 61 -2 95 -1 21 1 41 5 43 3 2 3 17 -2 33 -4 16 -6 32 -3 35 3 3 5 27 4
53 -6 126 -5 153 2 153 5 0 5 5 1 12 -4 7 -7 29 -5 50 1 30 -2 38 -16 39 -10
1 -88 2 -173 3 l-155 1 -1 325 c0 179 -3 334 -7 345 -11 34 -39 45 -74 30z
m288 -824 c15 -1 17 -30 15 -313 l-1 -313 -285 0 -285 0 -1 310 c0 171 3 312
7 315 6 4 489 5 550 1z"/>
<path d="M15720 16688 c-11 -18 -14 -67 -15 -228 l0 -205 -167 0 c-92 0 -170
-4 -174 -8 -12 -12 -11 -1698 1 -1705 6 -4 84 -7 175 -7 l165 0 0 -107 c1 -95
3 -110 20 -123 27 -19 63 -19 83 2 13 12 17 38 18 112 1 53 2 101 3 106 1 6
62 10 164 9 89 0 167 3 172 7 7 5 10 298 9 851 -1 463 -2 848 -3 853 -1 7 -62
10 -171 10 -111 -1 -171 3 -173 9 -2 6 -3 100 -2 209 0 178 -1 200 -18 217
-25 27 -68 26 -87 -2z m331 -563 c0 -5 2 -337 2 -738 1 -478 -1 -727 -8 -728
-5 -1 -135 -2 -287 -3 l-278 -1 -1 25 c-5 140 -2 387 3 383 5 -2 5 6 0 19 -5
17 -8 915 -3 1033 1 20 8 20 286 20 183 0 285 -4 286 -10z"/>
<path d="M14669 16249 c-23 -17 -24 -24 -25 -131 -1 -62 -2 -115 -3 -118 -1
-3 -79 -5 -174 -5 l-172 1 1 -836 c1 -459 2 -838 3 -841 0 -4 71 -6 156 -5 86
0 163 -2 172 -5 14 -5 17 -25 17 -143 1 -124 3 -139 21 -152 21 -15 53 -18 72
-6 23 14 29 58 28 180 -1 103 2 122 15 123 8 1 86 1 173 1 138 0 157 2 158 17
1 20 1 1570 0 1626 l-1 41 -166 -1 c-100 0 -168 4 -172 10 -4 6 -7 53 -7 105
-1 114 -7 135 -44 148 -22 8 -33 6 -52 -9z m321 -384 c1 -13 1 -1395 0 -1416
0 -14 -33 -15 -285 -15 -157 0 -286 2 -286 5 -6 27 -3 1427 2 1431 14 10 569
5 569 -5z"/>
<path d="M12548 15990 l-23 -18 -1 -479 c-1 -263 -2 -480 -3 -483 0 -3 -79 -5
-175 -4 l-173 0 0 -688 0 -688 176 -2 176 -3 1 -220 c1 -121 2 -223 3 -227 0
-4 10 -16 22 -27 17 -16 26 -17 50 -9 15 5 32 19 36 31 4 12 7 119 8 237 l0
215 173 3 172 2 0 689 0 689 -166 -1 c-91 -1 -169 0 -173 3 -4 3 -7 220 -6
484 l0 479 -24 15 c-33 23 -48 23 -73 2z m319 -1672 l3 -568 -288 0 -289 0 0
568 0 568 286 -1 286 0 2 -567z"/>
<path d="M13609 15694 c-20 -22 -22 -35 -23 -141 l-1 -118 -165 -1 c-91 -1
-170 -2 -176 -3 -7 -1 -10 -229 -10 -758 l1 -758 165 -2 c91 -1 170 -2 176 -2
7 -1 10 -140 10 -443 -1 -413 0 -443 17 -465 23 -28 60 -30 85 -3 17 19 18 45
18 465 -1 245 1 445 4 446 3 0 80 1 172 1 l168 1 2 755 c3 663 1 755 -12 760
-8 4 -86 6 -172 6 -136 0 -158 2 -159 15 0 9 -2 61 -2 116 -1 58 -7 109 -14
121 -19 32 -58 36 -84 8z m319 -1020 l2 -641 -287 1 -288 1 -1 635 c0 349 3
637 7 640 4 3 132 5 286 5 l278 -1 3 -640z"/>
<path d="M10419 15614 c-8 -10 -14 -39 -14 -65 0 -27 -4 -49 -8 -49 -5 0 -5
-4 -2 -10 9 -14 10 -108 2 -116 -3 -4 -4 -11 0 -17 9 -15 9 -207 0 -207 -5 0
-5 -5 -2 -11 6 -9 9 -118 4 -144 -1 -5 0 -14 1 -20 1 -5 2 -32 2 -60 0 -27 -1
-54 -2 -60 -1 -5 -2 -12 0 -15 6 -16 4 -130 -3 -130 -4 0 -4 -8 0 -17 8 -17 9
-35 3 -93 -1 -14 -1 -28 0 -32 4 -19 2 -89 -3 -94 -3 -3 -2 -17 3 -30 6 -14 6
-26 -1 -29 -5 -4 -6 -11 -3 -17 6 -9 8 -76 5 -158 -1 -19 -8 -20 -176 -20
l-175 0 0 -433 0 -433 405 0 c223 0 406 2 406 5 1 3 3 199 4 434 l2 428 -21
-2 c-11 0 -89 -1 -172 0 l-152 1 -1 663 c0 364 -2 677 -4 695 -2 19 -10 38
-18 43 -23 14 -65 10 -80 -7z m326 -1827 l0 -312 -287 0 -288 0 0 312 0 312
288 0 288 -1 -1 -311z"/>
<path d="M11483 15193 c-19 -17 -20 -31 -19 -288 1 -148 -2 -277 -5 -285 -6
-13 -35 -15 -178 -14 l-171 1 0 -612 0 -612 408 1 407 1 0 610 0 610 -155 1
c-85 1 -162 2 -170 3 -13 1 -15 39 -16 287 0 269 -1 287 -19 300 -26 19 -58
18 -82 -3z m323 -1199 l1 -491 -288 0 -288 0 0 485 c0 267 2 488 4 492 2 3
131 6 287 6 l283 -1 1 -491z"/>
<path d="M9354 14786 c-13 -22 -16 -74 -17 -388 l-2 -363 -172 0 -173 1 -1
-46 c-4 -342 -3 -480 6 -481 57 -3 805 -3 806 1 1 3 2 121 3 263 1 168 -2 257
-9 258 -5 1 -82 2 -170 3 l-160 1 -5 378 c-5 411 -3 397 -62 397 -18 0 -33 -8
-44 -24z m321 -878 c8 -5 12 -191 6 -268 -1 -13 -38 -15 -282 -13 -155 1 -283
4 -285 6 -3 3 -7 186 -5 257 l1 25 278 0 c152 0 282 -3 287 -7z"/>
<path d="M2209 12726 c-2 -2 -38 -7 -79 -10 -112 -9 -181 -23 -275 -56 -33
-12 -69 -24 -80 -27 -11 -4 -24 -10 -30 -15 -5 -5 -35 -23 -65 -41 -124 -73
-246 -209 -300 -335 -12 -26 -25 -55 -30 -64 -6 -10 -10 -22 -10 -27 0 -5 -5
-22 -11 -38 -7 -15 -14 -39 -16 -53 -2 -14 -6 -34 -8 -45 -2 -11 -4 -20 -5
-20 -5 0 -13 -124 -13 -205 0 -143 15 -248 48 -340 9 -25 18 -49 19 -55 5 -20
41 -90 49 -93 4 -2 7 -8 7 -13 0 -18 68 -111 121 -166 98 -101 241 -182 394
-223 106 -28 158 -34 295 -34 131 -1 211 8 290 30 30 8 62 17 71 19 34 7 169
74 216 106 119 81 206 182 271 314 21 44 43 94 47 110 12 44 12 45 15 50 3 6
4 9 13 58 17 81 20 116 20 232 1 161 -10 233 -54 367 -46 140 -152 290 -266
374 -21 16 -40 31 -43 34 -26 27 -206 108 -275 124 -11 3 -80 17 -110 22 -11
2 -58 7 -105 10 -46 3 -87 7 -91 10 -3 2 -8 2 -10 0z m149 -372 c31 -8 64 -16
72 -18 28 -8 105 -56 140 -88 117 -107 168 -255 164 -468 -2 -130 -5 -153 -31
-235 -17 -52 -61 -138 -75 -143 -4 -2 -8 -8 -8 -14 0 -9 -18 -27 -85 -86 -18
-16 -85 -52 -110 -59 -142 -39 -247 -42 -358 -11 -75 20 -93 29 -152 73 -99
73 -164 186 -191 330 -9 49 -10 223 -2 290 20 163 122 323 246 385 110 56 271
73 390 44z"/>
<path d="M9039 12726 c-2 -2 -35 -7 -74 -10 -117 -11 -128 -13 -200 -31 -98
-24 -242 -94 -323 -157 -75 -58 -158 -155 -204 -237 -27 -48 -76 -166 -83
-201 -2 -8 -8 -35 -14 -60 -28 -125 -30 -337 -4 -455 2 -11 7 -33 10 -50 9
-51 64 -194 89 -230 13 -20 24 -38 24 -42 0 -11 66 -90 121 -145 80 -78 159
-128 294 -183 95 -39 230 -60 385 -59 146 0 203 7 315 39 264 76 469 259 557
495 17 46 41 127 43 145 1 6 4 24 8 40 10 43 19 143 19 195 0 58 -12 191 -18
210 -3 8 -8 32 -11 54 -3 21 -11 54 -19 72 -8 19 -12 34 -10 34 2 0 -9 27 -25
60 -16 33 -29 63 -29 66 0 3 -19 34 -42 67 -47 68 -123 148 -180 191 -46 34
-148 96 -158 96 -4 0 -28 9 -52 20 -38 16 -110 37 -203 56 -11 2 -60 7 -110
10 -49 3 -93 7 -96 10 -3 2 -8 2 -10 0z m172 -374 c20 -5 51 -17 69 -26 18 -9
39 -16 46 -16 7 0 14 -3 16 -7 2 -5 24 -25 49 -45 74 -59 144 -182 162 -283 3
-17 8 -41 12 -55 6 -30 6 -210 0 -260 -8 -58 -35 -141 -66 -202 -31 -62 -121
-161 -157 -172 -12 -4 -22 -12 -22 -17 0 -5 -7 -9 -15 -9 -8 0 -23 -5 -33 -10
-70 -41 -288 -49 -392 -14 -30 10 -57 21 -60 24 -3 3 -20 13 -37 21 -45 21
-133 106 -133 129 0 5 -4 10 -8 10 -13 0 -66 124 -77 178 -19 98 -24 237 -12
320 28 184 120 326 257 396 39 19 70 34 70 32 0 -2 21 3 48 9 52 14 226 12
283 -3z"/>
<path d="M19048 12715 c-2 -1 -39 -5 -83 -9 -85 -6 -233 -40 -277 -62 -15 -8
-30 -14 -33 -13 -17 3 -145 -83 -191 -128 -52 -52 -106 -146 -119 -208 -11
-51 -13 -174 -4 -218 35 -161 164 -289 360 -359 78 -27 96 -32 169 -44 19 -3
38 -8 41 -9 3 -2 39 -7 80 -11 41 -3 83 -8 94 -11 11 -2 31 -6 45 -8 162 -21
274 -73 312 -145 35 -67 18 -164 -39 -216 -35 -32 -103 -67 -165 -84 -74 -20
-234 -17 -335 5 -13 3 -33 7 -45 10 -115 25 -263 107 -367 203 -13 12 -27 22
-30 22 -3 0 -26 -30 -51 -65 -25 -36 -56 -80 -70 -99 -14 -18 -35 -47 -47 -64
l-23 -30 38 -38 c216 -221 531 -317 910 -280 121 12 328 80 370 123 7 7 17 13
22 13 5 0 37 29 72 64 80 80 123 164 144 276 13 66 2 184 -22 257 -32 98 -93
173 -189 236 -70 46 -219 98 -316 112 -24 3 -55 8 -69 10 -14 3 -45 7 -70 10
-302 28 -431 83 -455 193 -21 100 33 180 153 223 60 21 83 24 217 23 198 0
274 -21 403 -112 l63 -44 22 24 c55 56 177 206 177 216 0 13 -102 87 -174 126
-96 53 -236 92 -371 102 -38 3 -87 7 -107 8 -21 2 -39 2 -40 1z"/>
<path d="M27548 12715 c-2 -1 -33 -5 -69 -9 -332 -31 -567 -187 -618 -411 -40
-174 9 -342 132 -450 43 -39 154 -106 172 -105 3 0 18 -6 33 -14 27 -14 131
-44 182 -52 14 -2 35 -7 48 -9 12 -3 44 -8 70 -11 26 -2 61 -6 77 -9 17 -2 50
-7 75 -10 65 -9 69 -10 135 -29 129 -38 188 -100 188 -197 0 -88 -46 -149
-148 -193 -118 -50 -260 -54 -450 -12 -99 21 -241 96 -334 175 -57 48 -65 52
-76 37 -7 -9 -21 -28 -31 -42 -11 -14 -36 -49 -57 -77 -21 -29 -49 -65 -62
-82 -14 -16 -25 -35 -25 -41 0 -23 191 -184 218 -184 6 0 12 -4 14 -8 9 -22
195 -92 303 -113 59 -12 195 -23 280 -23 315 1 584 131 685 330 13 27 25 51
26 54 0 3 3 12 6 20 31 81 29 272 -4 333 -6 12 -11 23 -10 25 6 8 -44 94 -75
128 -92 101 -235 168 -423 199 -25 4 -54 9 -65 11 -11 2 -45 6 -75 9 -265 24
-398 74 -442 165 -24 51 -17 121 15 164 39 50 82 75 182 103 51 14 279 9 352
-7 90 -21 192 -70 244 -118 22 -19 39 -30 39 -26 0 5 19 30 43 55 23 26 58 66
77 89 19 23 45 54 57 69 13 14 23 28 23 31 -1 13 -194 141 -220 146 -3 0 -18
6 -35 13 -59 23 -127 44 -142 42 -2 0 -17 4 -35 10 -18 5 -73 12 -123 15 -49
3 -105 7 -122 8 -18 2 -34 2 -35 1z"/>
<path d="M11955 12699 c-22 -4 -56 -10 -75 -13 -99 -15 -249 -100 -362 -205
l-68 -63 -1 39 c-1 21 -2 54 -4 73 -2 19 -5 59 -6 88 -3 38 -8 52 -19 53 -97
6 -320 2 -323 -6 -2 -5 -3 -404 -3 -885 l1 -875 162 -5 c89 -3 173 -3 185 0
l23 6 1 494 c0 355 4 512 13 555 31 149 136 292 258 354 99 49 189 63 312 47
181 -23 320 -154 371 -351 10 -38 14 -179 15 -573 1 -287 5 -525 8 -528 7 -7
357 -7 364 0 5 5 4 982 -1 1051 -12 150 -46 265 -116 395 -39 72 -174 215
-230 244 -87 46 -109 55 -169 75 -96 31 -248 45 -336 30z"/>
<path d="M15605 12694 c-38 -7 -79 -15 -90 -17 -49 -11 -152 -51 -198 -75 -27
-15 -58 -31 -68 -37 -11 -5 -19 -13 -19 -17 0 -5 -4 -8 -10 -8 -26 0 -164
-138 -215 -215 -56 -85 -115 -224 -131 -307 -15 -79 -17 -110 -18 -228 -1
-174 13 -262 67 -400 27 -71 91 -178 134 -227 19 -21 40 -45 46 -54 7 -8 39
-35 72 -60 33 -24 62 -46 65 -49 24 -27 251 -117 310 -123 14 -2 30 -6 35 -9
27 -14 317 -18 405 -4 52 7 187 44 240 64 14 5 28 10 32 11 4 1 46 23 92 49
80 44 206 143 206 161 0 5 -30 37 -66 72 -36 35 -88 85 -114 112 -27 26 -51
47 -54 47 -2 0 -19 -13 -37 -30 -68 -61 -229 -128 -354 -146 -143 -21 -316 1
-429 55 -125 60 -224 178 -256 306 -6 28 -14 56 -16 64 -3 10 3 12 21 9 14 -3
28 -1 31 4 3 4 10 5 17 1 9 -6 425 -8 452 -3 6 1 15 1 20 0 13 -2 447 -2 460
0 6 1 15 1 20 0 25 -5 407 -1 413 4 11 12 4 371 -8 371 -1 0 -3 9 -5 20 -6 38
-15 75 -24 97 -5 13 -9 25 -9 28 -2 21 -70 170 -82 180 -3 3 -15 20 -26 38
-31 50 -119 137 -178 176 -114 76 -237 121 -386 143 -75 11 -278 9 -345 -3z
m334 -328 c148 -33 267 -115 319 -220 28 -56 61 -171 53 -184 -4 -6 -207 -10
-538 -10 -531 0 -531 0 -528 21 8 37 58 157 67 157 4 0 8 7 8 15 0 8 26 41 58
73 57 57 172 125 232 137 14 3 41 9 60 14 36 8 227 6 269 -3z"/>
<path d="M17651 12690 c-103 -25 -177 -65 -245 -134 -34 -34 -70 -74 -81 -89
-16 -22 -21 -24 -21 -10 0 10 -4 52 -8 93 -4 41 -8 84 -9 95 -2 19 -10 20
-177 23 l-175 2 2 -881 c1 -484 4 -883 6 -885 5 -5 358 -6 363 -1 2 2 4 236 4
519 1 557 2 577 55 684 24 47 75 108 122 145 22 18 123 71 123 65 0 -2 21 2
48 10 43 14 160 19 224 10 55 -8 120 -35 177 -73 40 -27 47 -24 68 28 8 21 19
39 24 39 5 0 9 9 9 20 0 11 5 20 12 20 6 0 8 3 5 7 -4 3 -3 11 2 17 6 6 27 46
49 89 l39 77 -31 23 c-47 36 -165 92 -216 102 -138 28 -263 29 -369 5z"/>
<path d="M21597 12704 c-1 -1 -28 -4 -60 -8 -73 -7 -170 -30 -222 -51 -49 -20
-148 -68 -155 -75 -3 -3 -24 -18 -48 -34 -87 -59 -173 -156 -238 -266 -21 -36
-39 -67 -39 -70 0 -3 -3 -9 -6 -15 -8 -13 -48 -136 -54 -166 -3 -13 -8 -39
-11 -58 -3 -18 -8 -43 -10 -55 -12 -61 0 -305 17 -337 4 -9 6 -18 4 -21 -6 -6
30 -119 56 -175 10 -24 19 -45 19 -48 0 -3 8 -18 18 -33 11 -15 31 -46 46 -69
37 -56 130 -150 191 -194 103 -74 262 -138 394 -157 55 -8 270 -8 326 1 172
26 342 104 460 211 22 20 43 36 48 36 4 0 7 7 7 15 0 8 4 15 8 15 5 0 24 21
42 48 19 26 37 49 40 52 14 11 90 179 105 231 29 104 42 205 39 325 -2 65 -5
129 -8 142 -3 12 -8 32 -11 45 -2 12 -8 36 -11 52 -4 17 -11 41 -17 55 -6 14
-11 27 -12 30 -99 290 -371 511 -691 560 -66 11 -220 20 -227 14z m153 -348
c14 -3 39 -9 55 -12 70 -15 159 -68 224 -133 66 -65 134 -176 145 -234 2 -15
7 -30 9 -34 9 -14 20 -117 20 -173 -1 -125 -33 -229 -101 -333 -98 -150 -253
-231 -444 -230 -74 1 -172 17 -193 33 -5 4 -27 13 -47 19 -21 7 -38 17 -38 22
0 5 -6 9 -14 9 -8 0 -43 28 -78 63 -74 74 -135 185 -153 278 -14 72 -22 196
-15 222 2 4 3 15 4 25 1 9 6 33 11 52 5 19 9 37 10 40 39 187 246 371 433 385
18 2 35 5 37 7 6 5 102 1 135 -6z"/>
<path d="M23768 12705 c-2 -2 -28 -6 -58 -9 -95 -11 -207 -52 -287 -106 -24
-17 -46 -30 -49 -30 -3 0 -37 -31 -77 -69 -39 -38 -73 -68 -75 -66 -3 3 -6 38
-16 177 -3 32 -7 61 -9 65 -4 6 -217 9 -319 4 -15 -1 -16 -67 -17 -886 l0
-885 185 0 184 0 0 113 c1 397 8 924 12 937 3 8 9 30 13 48 4 18 12 35 16 38
5 3 9 13 9 22 0 28 89 154 131 187 21 17 48 38 60 47 67 54 228 83 349 63 65
-10 81 -16 157 -52 91 -43 193 -196 215 -323 7 -41 11 -248 12 -570 l1 -505
167 -5 c92 -3 176 -3 187 0 18 5 19 19 16 550 -1 300 -5 556 -8 570 -4 13 -9
42 -12 65 -19 130 -105 301 -204 404 -106 110 -252 184 -406 206 -50 8 -173
14 -177 10z"/>
<path d="M25585 12694 c-89 -16 -160 -37 -221 -65 -22 -10 -44 -19 -48 -19
-17 0 -153 -96 -205 -145 -68 -64 -120 -133 -169 -227 -34 -65 -45 -91 -57
-133 -29 -102 -33 -121 -41 -195 -9 -68 -11 -241 -4 -245 3 -2 7 -18 8 -37 3
-44 20 -120 43 -190 22 -67 99 -218 111 -218 4 0 8 -5 8 -10 0 -12 54 -73 110
-126 120 -112 291 -190 485 -221 99 -15 406 -6 438 14 4 3 22 7 38 10 27 4 86
23 174 57 40 15 149 78 153 88 2 4 8 8 13 8 11 0 19 7 86 68 l47 42 -91 88
c-50 48 -104 100 -121 116 l-31 29 -43 -37 c-77 -67 -223 -125 -355 -143 -141
-18 -327 3 -390 44 -12 8 -23 13 -23 9 0 -13 -105 60 -149 104 -59 59 -116
169 -124 241 l-4 37 221 0 c121 0 226 1 231 2 6 1 15 1 20 0 13 -2 447 -2 460
0 6 1 15 1 20 0 9 -1 421 -2 466 -1 17 1 21 35 21 166 -2 284 -83 508 -241
665 -57 56 -86 79 -131 105 -35 20 -153 77 -165 80 -5 1 -28 7 -51 13 -133 38
-353 50 -489 26z m380 -339 c111 -33 141 -51 222 -133 61 -62 102 -157 107
-247 1 -20 -6 -20 -532 -22 l-533 -1 6 31 c15 74 75 178 137 240 75 74 143
111 246 136 97 23 260 21 347 -4z"/>
<path d="M5857 12684 c-3 -5 -153 -9 -334 -9 l-329 1 1 -701 c1 -385 4 -711 8
-725 4 -14 9 -37 11 -53 8 -45 51 -129 87 -168 19 -20 54 -47 79 -62 39 -22
65 -31 150 -54 8 -3 210 -5 448 -7 381 -1 432 0 436 14 3 13 1 286 -3 318 -1
9 -80 12 -360 12 -385 0 -415 3 -433 49 -6 14 -12 94 -13 178 l-2 151 346 0
346 1 2 170 2 171 -27 1 c-15 0 -171 1 -347 2 l-320 2 -1 178 -1 177 26 1 c14
0 188 2 386 3 198 2 363 4 367 4 4 1 6 77 5 170 l-2 167 -255 0 c-140 0 -258
4 -261 9 -4 4 -9 4 -12 0z"/>
<path d="M7043 12682 c-6 -4 -106 -7 -222 -7 l-211 1 -1 -41 c-1 -57 -1 -256
0 -281 1 -21 3 -22 264 -22 144 0 267 0 273 -1 8 -1 11 -146 12 -493 1 -271 4
-520 7 -553 3 -33 6 -67 6 -75 1 -8 5 -19 9 -25 3 -5 12 -29 20 -52 7 -24 17
-43 21 -43 4 0 10 -8 14 -19 15 -47 133 -131 209 -147 55 -13 91 -17 112 -15
8 1 11 196 11 706 0 388 3 709 7 712 3 4 127 7 274 7 l267 1 0 170 0 170 -520
0 c-286 0 -525 4 -530 7 -6 4 -16 4 -22 0z"/>
<path d="M331 12669 c-44 -8 -127 -37 -146 -51 -81 -58 -141 -141 -161 -223
-4 -16 -10 -39 -13 -50 -8 -29 -7 -1085 2 -1115 4 -14 9 -35 11 -47 17 -84
105 -192 187 -230 93 -43 134 -47 559 -47 l405 -1 3 173 2 172 -338 0 c-355 0
-392 4 -415 44 -9 16 -13 189 -17 700 -4 594 -7 679 -20 681 -8 1 -35 -2 -59
-6z"/>
<path d="M3436 12670 c-6 -13 1 -1379 7 -1410 26 -124 61 -198 119 -252 50
-47 137 -85 213 -94 22 -3 45 -6 52 -9 6 -2 13 2 15 8 2 7 4 141 4 298 l-1
285 105 1 c119 0 108 6 166 -97 20 -36 44 -73 52 -82 8 -10 12 -18 8 -18 -4 0
2 -12 13 -26 12 -15 21 -32 21 -40 0 -7 4 -14 8 -16 7 -3 141 -228 151 -253 2
-5 13 -21 23 -35 l20 -25 224 0 c123 0 224 3 224 7 0 7 -128 220 -185 308 -45
70 -105 172 -105 180 0 5 -3 10 -7 12 -5 2 -32 40 -60 86 l-53 83 28 11 c94
37 163 79 213 128 102 100 142 199 143 355 1 141 -10 193 -63 292 -85 159
-248 259 -491 300 -44 7 -841 10 -844 3z m762 -345 c10 -4 30 -9 46 -12 33 -5
92 -41 118 -69 32 -37 46 -90 44 -161 -4 -97 -22 -142 -74 -180 -63 -46 -124
-58 -312 -58 l-175 0 -1 240 c0 132 1 242 2 245 3 8 333 3 352 -5z"/>
<path d="M10335 12672 c-3 -3 -5 -403 -5 -889 l0 -883 100 -1 c55 0 120 0 145
0 25 0 63 0 85 0 l40 1 -2 888 -3 887 -178 1 c-97 0 -179 -2 -182 -4z"/>
<path d="M12938 12672 c-29 -3 -34 -11 -19 -27 5 -6 21 -39 36 -75 15 -36 36
-84 46 -107 10 -23 19 -44 19 -47 0 -3 12 -31 26 -63 14 -32 29 -67 34 -78 4
-11 16 -38 25 -60 10 -22 24 -55 31 -72 8 -18 20 -48 28 -65 8 -18 44 -105 81
-193 36 -88 72 -173 80 -190 14 -31 88 -207 132 -310 13 -33 31 -73 38 -90 7
-16 25 -59 40 -95 15 -36 35 -83 44 -105 10 -22 31 -71 46 -110 16 -38 32 -75
37 -81 5 -7 74 -11 207 -12 l199 0 15 31 c8 18 34 77 56 132 23 55 46 109 51
120 37 81 140 332 140 343 0 6 5 12 10 12 6 0 10 5 10 12 0 10 111 279 242
588 225 528 228 535 213 540 -11 4 -338 5 -381 1 -6 -1 -17 -16 -24 -33 -7
-18 -19 -46 -25 -63 -7 -16 -32 -77 -56 -135 -23 -58 -46 -109 -51 -114 -4 -6
-8 -15 -8 -22 0 -6 -10 -33 -22 -60 -12 -27 -23 -51 -23 -54 -1 -3 -6 -16 -12
-30 -6 -14 -19 -45 -28 -70 -9 -25 -23 -58 -30 -75 -7 -16 -25 -64 -40 -105
-15 -41 -31 -84 -36 -95 -12 -26 -79 -207 -83 -220 -5 -23 -19 -62 -31 -90 -7
-16 -22 -55 -33 -85 -11 -30 -27 -73 -35 -94 l-14 -40 -16 35 c-9 19 -59 149
-112 289 -53 140 -99 262 -102 270 -4 8 -7 17 -8 20 -2 10 -66 175 -75 195 -5
11 -30 72 -56 135 -25 63 -54 133 -64 155 -9 22 -39 94 -65 160 -27 66 -50
122 -52 124 -3 5 -346 7 -385 3z"/>
<path d="M20099 12676 c-1 -1 -3 -400 -3 -888 l-2 -888 138 -1 c76 0 156 -1
178 -1 22 -1 43 2 47 6 8 8 11 1754 3 1765 -4 5 -351 12 -361 7z"/>
</g>
</svg>
