<svg version="1.1" id="Capa_1" xmlns="http://www.w3.org/2000/svg" x="0" y="0" viewBox="0 0 24 24" xml:space="preserve"><path d="M7.6 18.6c-1.2 0-2.2 1-2.2 2.2s1 2.2 2.2 2.2 2.2-1 2.2-2.2-1-2.2-2.2-2.2zM1 1v2.2h2.2l4 8.3-1.5 2.7c-.2.3-.3.7-.3 1.1 0 1.2 1 2.2 2.2 2.2h13.2v-2.2H8.1c-.2 0-.3-.1-.3-.3v-.1l1-1.8H17c.8 0 1.6-.5 1.9-1.1l3.9-7.1c.2-.2.2-.4.2-.6 0-.6-.5-1.1-1.1-1.1H5.6L4.6 1H1zm17.6 17.6c-1.2 0-2.2 1-2.2 2.2s1 2.2 2.2 2.2c1.2 0 2.2-1 2.2-2.2s-1-2.2-2.2-2.2z"/><path d="M0 0h24v24H0V0z" fill="none"/></svg>