<svg xmlns="http://www.w3.org/2000/svg" viewBox="0 0 709 167"><g fill="none" fill-rule="evenodd"><path fill="#004987" d="M55.639 157.766c-8.467 0-12.861-5.83-12.861-14.54 0-8.714 4.394-14.474 12.86-14.474 8.399 0 12.86 5.76 12.86 14.473 0 8.711-4.461 14.541-12.86 14.541m0-37.793c-14.04 0-23.558 8.711-23.558 23.252 0 14.541 9.518 23.25 23.559 23.25 13.973 0 23.553-8.709 23.553-23.25 0-14.54-9.58-23.252-23.553-23.252m46.508 22.008h-6.038v-12.314h6.038c4.263 0 8.136 1.115 8.136 6.156 0 5.045-3.873 6.158-8.136 6.158zm9.116 6.418c6.105-1.772 9.712-6.025 9.712-12.641 0-9.496-7.346-14.672-18.17-14.672H85.874v32.329c0 7.459 3.082 11.548 10.236 11.947v-14.803h5.379l8.66 14.803h11.549l-10.434-16.963zm28.803 4.978v-6.092h17.387v-8.58h-17.387v-9.039h19.62v-8.58h-29.854v32.291c0 7.861 3.412 11.984 11.414 11.984h19.16v-8.58h-17.324c-2.358 0-3.016-1.113-3.016-3.404m62.856-23.71v-8.58h-37.727v8.58h13.747v23.748c0 7.459 3.08 11.549 10.234 11.947v-35.695h13.746zm23.553 28.1c-8.461 0-12.861-5.83-12.861-14.542 0-8.713 4.4-14.473 12.86-14.473 8.399 0 12.862 5.76 12.862 14.473 0 8.711-4.463 14.541-12.861 14.541m0-37.793c-14.04 0-23.553 8.711-23.553 23.252 0 14.541 9.514 23.25 23.553 23.25 13.977 0 23.557-8.709 23.557-23.25 0-14.54-9.58-23.252-23.557-23.252M13.258 156.78c-2.361 0-3.018-1.115-3.018-3.408v-32.285C3.084 121.487 0 125.579 0 133.04v20.332c0 7.865 3.414 11.99 11.422 11.99h18.05v-8.582H13.259z"/><path fill="#D49000" d="M258.264 165.506h9.242V121.08h-9.242zm52.677-23.693c0-7.627-4.307-12.924-11.936-12.924-7.449 0-12.386 6.194-12.386 13.463v23.154h-9.242v-44.334h8.437l.537 6.461c4.22-4.845 9.154-7.269 14.9-7.269 10.678 0 19.024 7.539 19.024 21.359v23.783h-9.334v-23.693zm40.831 23.873H341.63l-18.846-44.514h10.231l5.923 14.27 7.809 20.553 7-18.758 6.642-16.065h10.14zm42.985-37.154c-6.82 0-12.295 3.59-13.73 10.68h26.834c-.628-7.09-5.565-10.68-13.104-10.68m.537 29.615c4.578 0 10.054-1.615 12.834-4.756l6.015 5.834c-4.576 5.114-12.205 7.537-19.03 7.537-14.536 0-23.87-9.242-23.87-23.423 0-13.461 9.424-23.065 23.244-23.065 13.195 0 22.436 7.539 22.436 22.797 0 1.256-.088 2.602-.18 3.947h-35.895c.805 6.823 6.28 11.129 14.446 11.129m37.42-31.053c3.23-5.654 8.257-6.82 13.015-6.82 4.307 0 8.434 1.525 10.949 3.77l-4.22 8.077c-2.242-1.795-4.306-2.693-7.81-2.693-6.37 0-11.934 3.947-11.934 12.117v23.961h-9.243v-44.244h8.616l.627 5.832zm43.793.899c-5.562 0-9.063 1.885-9.063 5.295.088 3.68 3.859 5.025 9.602 5.654 8.166.719 18.757 2.422 18.757 13.91 0 8.258-7.447 14.002-18.847 14.002-7.178 0-14.358-1.617-20.19-8.168l4.845-6.552c4.216 4.578 10.228 6.463 15.526 6.552 4.307 0 9.422-1.615 9.422-5.923 0-3.77-3.771-5.295-10.232-5.922-8.256-.72-18.037-3.592-18.037-13.284 0-9.783 10.14-13.373 18.398-13.373 6.819 0 12.024 1.528 17.05 5.834l-5.206 6.104c-3.587-3.32-7.447-4.13-12.025-4.13m25.845 37.514h9.243V121.08h-9.243zm25.574-22.078c0 7.898 5.204 14.45 13.55 14.45 8.527 0 13.642-6.552 13.642-14.45 0-7.809-5.473-14.539-13.641-14.539-8.347 0-13.551 6.73-13.551 14.54m36.526 0c0 13.192-8.975 23.065-22.975 23.065-13.908 0-22.795-9.873-22.795-23.066 0-12.922 9.065-23.064 22.795-23.064 13.64 0 22.975 10.142 22.975 23.064m40.65-1.615c0-7.627-4.307-12.924-11.935-12.924-7.45 0-12.384 6.194-12.384 13.463v23.154h-9.244v-44.334h8.434l.54 6.461c4.22-4.845 9.154-7.269 14.897-7.269 10.68 0 19.027 7.539 19.027 21.359v23.783h-9.335v-23.693zm39.305-13.281c-6.82 0-12.297 3.59-13.73 10.68h26.833c-.627-7.09-5.566-10.68-13.103-10.68m.537 29.615c4.578 0 10.052-1.615 12.834-4.756l6.015 5.834c-4.578 5.114-12.207 7.537-19.029 7.537-14.539 0-23.873-9.242-23.873-23.423 0-13.461 9.424-23.065 23.246-23.065 13.193 0 22.436 7.539 22.436 22.797 0 1.256-.09 2.602-.18 3.947h-35.897c.807 6.823 6.282 11.129 14.448 11.129m44.423-30.154c-5.564 0-9.066 1.885-9.066 5.295.09 3.68 3.86 5.025 9.602 5.654 8.168.719 18.76 2.422 18.76 13.91 0 8.258-7.45 14.002-18.85 14.002-7.176 0-14.358-1.617-20.19-8.168l4.846-6.552c4.217 4.578 10.23 6.463 15.525 6.552 4.31 0 9.424-1.615 9.424-5.923 0-3.77-3.77-5.295-10.232-5.922-8.256-.72-18.039-3.592-18.039-13.284 0-9.783 10.142-13.373 18.4-13.373 6.82 0 12.024 1.528 17.05 5.834l-5.206 6.104c-3.588-3.32-7.449-4.13-12.024-4.13"/><path fill="#004987" fill-rule="nonzero" d="M233.484 69.168a1.5 1.5 0 0 1 3 0v19.339a1.5 1.5 0 0 1-3 0V69.168z"/><path fill="#004987" d="M224.695 100.304h20.41v-13.2h-20.41v13.2zm3-2.998h14.41v-7.2h-14.41v7.2z"/><path fill="#004987" fill-rule="nonzero" d="M260.033 48.686a1.5 1.5 0 0 1 3 0V83.5a1.5 1.5 0 0 1-3 0V48.686z"/><path fill="#004987" d="M251.234 104.15h20.41V82.521h-20.41v21.629zm3-2.999h14.41V85.522h-14.41v15.629z"/><path fill="#004987" fill-rule="nonzero" d="M286.576 59.184a1.5 1.5 0 0 1 3 0v14.322a1.5 1.5 0 0 1-3 0V59.184z"/><path fill="#004987" d="M277.775 103.434h20.41v-30.6h-20.41v30.6zm3-3h14.41v-24.6h-14.41v24.6z"/><path fill="#004987" fill-rule="nonzero" d="M313.115 96.5a1.5 1.5 0 0 1 3 0v11.556a1.5 1.5 0 0 1-3 0V96.499zm0-57.144a1.5 1.5 0 0 1 3 0V63.5a1.5 1.5 0 0 1-3 0V39.356z"/><path fill="#004987" d="M304.316 97.256h20.41V62.831h-20.41v34.425zm3-3h14.41V65.831h-14.41v28.425z"/><path fill="#004987" fill-rule="nonzero" d="M339.656 89.49a1.5 1.5 0 0 1 3 0v22.565a1.5 1.5 0 0 1-3 0V89.49zm0-42.833a1.5 1.5 0 0 1 3 0v6.874a1.5 1.5 0 0 1-3 0v-6.874z"/><path fill="#004987" d="M330.857 90.18h20.41V52.156h-20.41V90.18zm3-2.999h14.41V55.157h-14.41v32.024z"/><path fill="#004987" fill-rule="nonzero" d="M366.1 79.5a1.5 1.5 0 0 1 3 0v7.064a1.5 1.5 0 0 1-3 0V79.5zm0-46.61a1.5 1.5 0 0 1 3 0v6.61a1.5 1.5 0 0 1-3 0v-6.61z"/><path fill="#004987" d="M357.397 80.179h20.41V38.104h-20.41v42.075zm3-2.998h14.41V41.106h-14.41v36.075z"/><path fill="#004987" fill-rule="nonzero" d="M392.64 73.489a1.5 1.5 0 0 1 3 0v5.842a1.5 1.5 0 0 1-3 0v-5.842zm0-51.79a1.5 1.5 0 0 1 3 0v10.807a1.5 1.5 0 0 1-3 0V21.7z"/><path fill="#004987" d="M383.936 74.632h20.41V31.656h-20.41v42.976zm3-3h14.41V34.656h-14.41v36.976z"/><path fill="#004987" fill-rule="nonzero" d="M419.18 10.467a1.5 1.5 0 0 1 3 0v16.034a1.5 1.5 0 0 1-3 0V10.467z"/><path fill="#004987" d="M410.477 66.931h20.409V25.306h-20.409v41.625zm3-3h14.409V28.306h-14.409v35.625z"/><path fill="#004987" fill-rule="nonzero" d="M445.72 59.498a1.5 1.5 0 0 1 3 0V77.9a1.5 1.5 0 0 1-3 0V59.498zm0-57.998a1.5 1.5 0 0 1 3 0v28a1.5 1.5 0 0 1-3 0v-28z"/><path fill="#004987" d="M437.016 60.856h20.409V28.681h-20.409v32.175zm3-3.002h14.409V31.679h-14.409v26.175z"/><path fill="#004987" fill-rule="nonzero" d="M472.356 56.496a1.5 1.5 0 0 1 3 0v17.737a1.5 1.5 0 0 1-3 0V56.496zm0-36.575a1.5 1.5 0 0 1 3 0v17.583a1.5 1.5 0 0 1-3 0V19.92z"/><path fill="#004987" d="M463.559 57.99V36.165h20.407V57.99h-20.407zm3-3h14.407V39.165h-14.407V54.99z"/></g></svg>