<?xml version="1.0" encoding="UTF-8" standalone="no"?>
<svg width="24px" height="24px" viewBox="0 0 24 24" version="1.1" xmlns="http://www.w3.org/2000/svg" xmlns:xlink="http://www.w3.org/1999/xlink">
    <!-- Generator: Sketch 49.3 (51167) - http://www.bohemiancoding.com/sketch -->
    <title>icons/papelera</title>
    <desc>Created with Sketch.</desc>
    <defs></defs>
    <g id="icons/papelera" stroke="none" stroke-width="1" fill="none" fill-rule="evenodd">
        <g id="papelera" transform="translate(3.000000, 1.000000)" fill="#72933A" fill-rule="nonzero">
            <polygon id="Fill-6" points="5.625 6.82916667 6.975 6.82916667 6.975 17.8291667 5.625 17.8291667"></polygon>
            <polygon id="Fill-7" points="8.325 6.82916667 9.675 6.82916667 9.675 17.8291667 8.325 17.8291667"></polygon>
            <polygon id="Fill-8" points="11.025 6.82916667 12.375 6.82916667 12.375 17.8291667 11.025 17.8291667"></polygon>
            <polygon id="Fill-9" points="0.225 2.70416667 17.775 2.70416667 17.775 4.07916667 0.225 4.07916667"></polygon>
            <path d="M12.33,3.39166667 L11.07,3.39166667 L11.07,2.01666667 C11.07,1.60416667 10.755,1.28333333 10.35,1.28333333 L7.65,1.28333333 C7.245,1.28333333 6.93,1.60416667 6.93,2.01666667 L6.93,3.39166667 L5.67,3.39166667 L5.67,2.01666667 C5.67,0.916666667 6.57,0 7.65,0 L10.35,0 C11.43,0 12.33,0.916666667 12.33,2.01666667 L12.33,3.39166667" id="Fill-10"></path>
            <path d="M13.05,21.9541667 L4.95,21.9541667 C3.87,21.9541667 2.925,21.0375 2.835,19.9375 L1.575,3.4375 L2.925,3.34583333 L4.185,19.8458333 C4.23,20.2583333 4.59,20.5791667 4.95,20.5791667 L13.05,20.5791667 C13.455,20.5791667 13.815,20.2125 13.815,19.8458333 L15.075,3.34583333 L16.425,3.4375 L15.165,19.9375 C15.075,21.0833333 14.13,21.9541667 13.05,21.9541667" id="Fill-11"></path>
        </g>
        <rect id="Bounding-Box" x="0" y="0" width="24" height="24"></rect>
    </g>
</svg>