<svg xmlns="http://www.w3.org/2000/svg" viewBox="0 0 24 24"><path d="M21.601 2c.183 0 .3.072.352.215.052.143.026.338-.078.586l-7.988 18.633a.846.846 0 0 1-.264.4.557.557 0 0 1-.342.127.549.549 0 0 1-.312-.107 1.098 1.098 0 0 1-.293-.323l-3.164-5.176c-.183-.312-.453-.647-.811-1.005a5.854 5.854 0 0 0-1.006-.83l-5.273-3.282c-.3-.195-.44-.413-.42-.654.02-.24.192-.433.517-.576l18.653-7.91c.078-.026.153-.05.224-.069A.78.78 0 0 1 21.601 2zM8.36 13.406c.13.078.264.173.4.283.137.111.277.232.42.362l9.239-9.395L4.082 10.75l4.277 2.656zm4.824 6.465l6.133-14.355-9.258 9.414c.118.13.225.26.323.39.097.13.179.26.244.39l2.558 4.161z"/></svg>