<svg width="47" height="35" xmlns="http://www.w3.org/2000/svg" xmlns:xlink="http://www.w3.org/1999/xlink"><defs><path id="path-1" d="M1.867 1.137H30.42v30.168H1.867z"/></defs><g id="_HOME" stroke="none" stroke-width="1" fill="none" fill-rule="evenodd"><g id="Home.Mobile-Aprobado" transform="translate(-20 -852)"><g id="3" transform="translate(20 844)"><g id="icono-camion-color"><g id="Page-1" transform="translate(0 6)"><path d="M11.447 34.863a3.698 3.698 0 0 1-3.696-3.694 3.702 3.702 0 0 1 3.696-3.698 3.702 3.702 0 0 1 3.696 3.698 3.698 3.698 0 0 1-3.696 3.694m0-9.392a5.704 5.704 0 0 0-5.696 5.698 5.702 5.702 0 0 0 5.696 5.694 5.702 5.702 0 0 0 5.696-5.694 5.704 5.704 0 0 0-5.696-5.698" id="Fill-1" fill="#72933A"/><path d="M33.625 34.863a3.697 3.697 0 0 1 0-7.392c2.04 0 3.698 1.66 3.698 3.698a3.699 3.699 0 0 1-3.698 3.694m0-9.392a5.703 5.703 0 0 0-5.694 5.698 5.701 5.701 0 0 0 5.694 5.694 5.703 5.703 0 0 0 5.698-5.694 5.706 5.706 0 0 0-5.698-5.698" id="Fill-5" fill="#72933A"/><g id="Group-11" transform="translate(16 .863)"><mask id="mask-2" fill="#fff"><use xlink:href="#path-1"/></mask><path d="M27.477 1.137H4.809A2.946 2.946 0 0 0 1.867 4.08v24.122a2.946 2.946 0 0 0 2.942 2.944h6.42v-2h-6.42a.944.944 0 0 1-.942-.944V4.08c0-.52.422-.944.942-.944h22.668c.52 0 .944.424.944.944v24.28c0 .222-.054.944-.72.944h-3.844v2H27.7c1.576 0 2.72-1.238 2.72-2.944V4.08a2.946 2.946 0 0 0-2.944-2.944" id="Fill-9" fill="#72933A" mask="url(#mask-2)"/></g><path d="M2 29.066v-7.45c0-1.478 1.334-2.55 1.84-2.906h13.128v-2H4.7l1.184-7.882c0-.52.424-.944.944-.944h10.14v-2H6.828c-1.622 0-2.944 1.32-2.932 2.794l-1.28 8.448C1.78 17.732 0 19.296 0 21.616v7.45a2.946 2.946 0 0 0 2.944 2.944h2.064v-2H2.944A.946.946 0 0 1 2 29.066" id="Fill-12" fill="#72933A"/></g></g></g></g></g></svg>