<svg xmlns="http://www.w3.org/2000/svg" viewBox="0 0 24 24"><path d="M17.75 9.5c.69 0 1.28.244 1.768.732.488.489.732 1.078.732 1.768v7.5c0 .69-.244 1.28-.732 1.768A2.409 2.409 0 0 1 17.75 22H6.5a2.41 2.41 0 0 1-1.768-.732A2.409 2.409 0 0 1 4 19.5V12c0-.69.244-1.28.732-1.768A2.409 2.409 0 0 1 6.5 9.5h.625V7.117c0-.703.12-1.367.361-1.992s.58-1.169 1.016-1.63c.436-.463.96-.828 1.572-1.095.612-.267 1.29-.4 2.031-.4.73 0 1.403.133 2.022.4a4.917 4.917 0 0 1 1.592 1.084 4.87 4.87 0 0 1 1.035 1.621c.247.625.371 1.296.371 2.012V9.5h.625zM8.375 7.117V9.5h7.5V7.117c0-1.08-.348-1.995-1.045-2.744-.697-.749-1.605-1.123-2.725-1.123-1.132 0-2.037.378-2.714 1.133S8.375 6.049 8.375 7.117zM19 19.5V12c0-.339-.124-.632-.371-.879a1.201 1.201 0 0 0-.879-.371H6.5c-.339 0-.632.124-.879.371s-.371.54-.371.879v7.5c0 .339.124.632.371.879s.54.371.879.371h11.25c.339 0 .632-.124.879-.371s.371-.54.371-.879zm-6.875-6.25c.352 0 .648.12.889.361.24.241.361.537.361.889 0 .234-.059.446-.176.635a1.261 1.261 0 0 1-.449.44v2.05a.6.6 0 0 1-.186.44.6.6 0 0 1-.439.185.6.6 0 0 1-.44-.186.6.6 0 0 1-.185-.439v-2.05a1.261 1.261 0 0 1-.45-.44 1.18 1.18 0 0 1-.175-.635c0-.352.12-.648.361-.889.241-.24.537-.361.889-.361z"/></svg>