<svg xmlns="http://www.w3.org/2000/svg" viewBox="0 0 72 72"><path d="M20.906 53.25c-2.5 0-4.61-.8-6.328-2.402S12 47.273 12 44.93V20.438c0-2.344.86-4.336 2.578-5.977C16.297 12.82 18.406 12 20.906 12h30.938c2.5 0 4.61.82 6.328 2.46 1.719 1.642 2.578 3.634 2.578 5.977V44.93c0 2.343-.86 4.316-2.578 5.918-1.719 1.601-3.828 2.402-6.328 2.402h-.469v7.5c-6.172-4.219-9.531-6.523-10.078-6.914-.547-.39-1.367-.586-2.461-.586h-17.93zm26.719-24.375c-1.094 0-1.992.352-2.695 1.055-.703.703-1.055 1.601-1.055 2.695 0 1.094.352 1.992 1.055 2.695.703.703 1.601 1.055 2.695 1.055 1.094 0 1.992-.352 2.695-1.055.703-.703 1.055-1.601 1.055-2.695 0-1.094-.352-1.992-1.055-2.695-.703-.703-1.601-1.055-2.695-1.055zm-11.25 0c-1.094 0-1.992.352-2.695 1.055-.703.703-1.055 1.601-1.055 2.695 0 1.094.352 1.992 1.055 2.695.703.703 1.601 1.055 2.695 1.055 1.094 0 1.992-.352 2.695-1.055.703-.703 1.055-1.601 1.055-2.695 0-1.094-.352-1.992-1.055-2.695-.703-.703-1.601-1.055-2.695-1.055zm-11.25 0c-1.094 0-1.992.352-2.695 1.055-.703.703-1.055 1.601-1.055 2.695 0 1.094.352 1.992 1.055 2.695.703.703 1.601 1.055 2.695 1.055 1.094 0 1.992-.352 2.695-1.055.703-.703 1.055-1.601 1.055-2.695 0-1.094-.352-1.992-1.055-2.695-.703-.703-1.601-1.055-2.695-1.055z"/></svg>