<svg xmlns="http://www.w3.org/2000/svg" viewBox="0 0 24 24"><path d="M2.286.571a.571.571 0 1 1 1.143 0V3.62a.571.571 0 0 1-1.143 0V.571zm4 23.429a.571.571 0 0 1 0-1.143h15.619a.952.952 0 0 0 .952-.952V8.19a.952.952 0 0 0-.952-.952H7.429a.571.571 0 1 1 0-1.143h14.476c1.157 0 2.095.938 2.095 2.095v13.715A2.095 2.095 0 0 1 21.905 24H6.285zM12 4.19a.571.571 0 1 1 0-1.142h7.619a.571.571 0 1 1 0 1.142H12zm-1.714-3.047v5.524a.571.571 0 0 1-1.143 0V0h10.713l2.62 2.62v4.047a.571.571 0 0 1-1.143 0V3.094l-1.95-1.951h-9.097zM2.096 4.19a.952.952 0 0 0-.953.953v16.762c0 .526.426.952.952.952h3.81a.952.952 0 0 0 .952-.952V5.143a.952.952 0 0 0-.952-.953h-3.81zm0-1.142h3.809C7.062 3.048 8 3.986 8 5.143v16.762A2.095 2.095 0 0 1 5.905 24h-3.81A2.095 2.095 0 0 1 0 21.905V5.143c0-1.157.938-2.095 2.095-2.095zm9.714 6.476v1.905h7.238V9.524H11.81zm8.38-1.143v4.19h-9.523v-4.19h9.523zm-7.809 7.238a.952.952 0 1 1 0-1.905.952.952 0 0 1 0 1.905zm0-1.143a.19.19 0 1 0 0 .381.19.19 0 0 0 0-.38zm3.048 1.143a.952.952 0 1 1 0-1.905.952.952 0 0 1 0 1.905zm0-1.143a.19.19 0 1 0 0 .381.19.19 0 0 0 0-.38zm3.047 1.143a.952.952 0 1 1 0-1.905.952.952 0 0 1 0 1.905zm0-1.143a.19.19 0 1 0 0 .381.19.19 0 0 0 0-.38zm-6.095 4.19a.952.952 0 1 1 0-1.904.952.952 0 0 1 0 1.905zm0-1.142a.19.19 0 1 0 0 .38.19.19 0 0 0 0-.38zm3.048 1.143a.952.952 0 1 1 0-1.905.952.952 0 0 1 0 1.905zm0-1.143a.19.19 0 1 0 0 .38.19.19 0 0 0 0-.38zm3.047 1.143a.952.952 0 1 1 0-1.905.952.952 0 0 1 0 1.905zm0-1.143a.19.19 0 1 0 0 .38.19.19 0 0 0 0-.38zm-6.095 4.19a.952.952 0 1 1 0-1.904.952.952 0 0 1 0 1.904zm0-1.143a.19.19 0 1 0 0 .381.19.19 0 0 0 0-.38zm3.048 1.143a.952.952 0 1 1 0-1.904.952.952 0 0 1 0 1.904zm0-1.143a.19.19 0 1 0 0 .381.19.19 0 0 0 0-.38zm3.047 1.143a.952.952 0 1 1 0-1.904.952.952 0 0 1 0 1.904zm0-1.143a.19.19 0 1 0 0 .381.19.19 0 0 0 0-.38z"/></svg>