<?xml version="1.0" encoding="UTF-8" standalone="no"?>
<svg width="24px" height="24px" viewBox="0 0 24 24" version="1.1" xmlns="http://www.w3.org/2000/svg" xmlns:xlink="http://www.w3.org/1999/xlink">
    <!-- Generator: Sketch 49.3 (51167) - http://www.bohemiancoding.com/sketch -->
    <title>icons/social/youtube</title>
    <desc>Created with Sketch.</desc>
    <defs>
        <polygon id="path-1" points="0 0.345409587 9.97526667 0.345409587 9.97526667 7.41621622 0 7.41621622"></polygon>
    </defs>
    <g id="icons/social/youtube" stroke="none" stroke-width="1" fill="none" fill-rule="evenodd">
        <g id="youtube">
            <rect id="Bounding-Box" x="0" y="0" width="24" height="24"></rect>
            <circle id="Oval" fill="#72933A" cx="12" cy="12" r="11"></circle>
            <g id="Page-1" transform="translate(7.000000, 5.000000)">
                <polygon id="Fill-1" fill="#FFFFFF" points="2.20996667 4.68100973 2.94763333 4.68100973 2.94763333 2.73866739 3.80563333 -3.53153153e-05 3.05563333 -3.53153153e-05 2.6003 1.87097009 2.55396667 1.87097009 2.0753 -3.53153153e-05 1.33196667 -3.53153153e-05 2.20996667 2.82624937"></polygon>
                <g id="Group-15" transform="translate(0.000000, 1.059459)">
                    <path d="M4.5332,0.932041802 C4.5332,0.856467027 4.55853333,0.795371532 4.6082,0.748755315 C4.65853333,0.702492252 4.72286667,0.679537297 4.80353333,0.679537297 C4.8892,0.679537297 4.9592,0.702492252 5.01253333,0.748755315 C5.06653333,0.795371532 5.0932,0.856467027 5.0932,0.932041802 L5.0932,2.81328865 C5.0932,2.90510847 5.0672,2.97785802 5.01453333,3.0315373 C4.96186667,3.08380396 4.89186667,3.11029045 4.80353333,3.11029045 C4.71653333,3.11029045 4.64986667,3.08486342 4.60353333,3.03294991 C4.55686667,2.98033009 4.5332,2.90758054 4.5332,2.81328865 L4.5332,0.932041802 Z M4.8042,3.70853189 C5.10253333,3.70853189 5.3352,3.62448144 5.50653333,3.45638054 C5.67553333,3.28792649 5.76053333,3.05661117 5.76053333,2.76137514 L5.76053333,0.977598559 C5.76053333,0.714499459 5.67386667,0.499076036 5.5012,0.332034595 C5.32786667,0.16464 5.1052,0.0809427027 4.8342,0.0809427027 C4.53753333,0.0809427027 4.29986667,0.160402162 4.12353333,0.318967928 C3.94653333,0.477180541 3.85886667,0.690131892 3.8592,0.958175135 L3.8592,2.74795532 C3.8592,3.04142559 3.9452,3.27485982 4.11653333,3.44861117 C4.28886667,3.62165622 4.5182,3.70853189 4.8042,3.70853189 Z" id="Fill-2" fill="#FFFFFF"></path>
                    <path d="M6.74903333,3.67138018 C6.87203333,3.67138018 6.99836667,3.63465225 7.12903333,3.5611964 C7.26036667,3.48844685 7.38636667,3.38038198 7.50603333,3.24018018 L7.50603333,3.62158559 L8.1607,3.62158559 L8.1607,0.168100901 L7.5057,0.168100901 L7.5057,2.7892036 C7.4447,2.86513153 7.37703333,2.92693333 7.3037,2.97531532 C7.23003333,3.0236973 7.1687,3.04806486 7.12103333,3.04806486 C7.06003333,3.04806486 7.0147,3.0297009 6.98803333,2.99297297 C6.9607,2.9565982 6.9457,2.89726847 6.9457,2.81569009 L6.9457,0.168100901 L6.2917,0.168100901 L6.2917,3.05406847 C6.2917,3.26030991 6.33036667,3.41428468 6.4067,3.51705225 C6.48336667,3.61981982 6.59636667,3.67138018 6.74903333,3.67138018" id="Fill-4" fill="#FFFFFF"></path>
                    <g id="Group-8" transform="translate(0.000000, 4.590991)">
                        <mask id="mask-2" fill="white">
                            <use xlink:href="#path-1"></use>
                        </mask>
                        <g id="Clip-7"></g>
                        <path d="M9.01626667,4.47130739 L7.9036,4.47130739 L7.9036,5.06072 C7.9036,5.22599568 7.92293333,5.3404173 7.96026667,5.40504432 C7.9996,5.46825874 8.06493333,5.49933622 8.1576,5.49933622 C8.25393333,5.49933622 8.32126667,5.47284973 8.3596,5.4188173 C8.39793333,5.36478486 8.41793333,5.24612541 8.41793333,5.06107315 L8.41793333,4.91804613 L9.01626667,4.91804613 L9.01626667,5.07908396 C9.01626667,5.40080649 8.94393333,5.6427164 8.7976,5.80622631 C8.65226667,5.9683236 8.43426667,6.04884252 8.14493333,6.04884252 C7.88426667,6.04884252 7.6786,5.96373261 7.52893333,5.79033441 C7.3796,5.61905514 7.3036,5.38208937 7.3036,5.07943712 L7.3036,3.6714155 C7.3036,3.40054703 7.3866,3.17806054 7.55093333,3.00713441 C7.7156,2.83550198 7.92693333,2.75039207 8.18826667,2.75039207 C8.45426667,2.75039207 8.65926667,2.83020468 8.80226667,2.9884173 C8.94526667,3.14662991 9.01626667,3.37441369 9.01626667,3.6714155 L9.01626667,4.47130739 Z M6.99893333,5.31499027 C6.99893333,5.53677045 6.9536,5.70663712 6.86193333,5.82529658 C6.77193333,5.94395604 6.63893333,6.00222631 6.4666,6.00222631 C6.35193333,6.00222631 6.25093333,5.97997766 6.16226667,5.93477405 C6.07326667,5.88886414 5.98926667,5.81858667 5.9136,5.72217586 L5.9136,5.96267315 L5.32593333,5.96267315 L5.32593333,1.71318126 L5.9136,1.71318126 L5.9136,3.08164973 C5.99293333,2.98665153 6.0756,2.91319568 6.16293333,2.86375423 C6.25193333,2.81431279 6.34126667,2.78923892 6.43126667,2.78923892 C6.61593333,2.78923892 6.7566,2.85633802 6.85326667,2.9891236 C6.95126667,3.1233218 6.99893333,3.31826234 6.99893333,3.57535784 L6.99893333,5.31499027 Z M4.8876,5.96232 L4.30693333,5.96232 L4.30693333,5.96267315 L4.30693333,5.96232 L4.30693333,5.61799568 C4.1986,5.74548396 4.0876,5.84260108 3.9706,5.90828757 C3.8546,5.97573982 3.74226667,6.00787676 3.63293333,6.00787676 C3.4976,6.00787676 3.39793333,5.96232 3.3286,5.86767495 C3.26126667,5.77373622 3.2266,5.63565333 3.2266,5.44848216 L3.2266,2.82702631 L3.80793333,2.82702631 L3.80793333,5.23164613 C3.80793333,5.30616144 3.82026667,5.35948757 3.8436,5.39303712 C3.8696,5.42623351 3.90926667,5.44283171 3.96293333,5.44283171 C4.00593333,5.44283171 4.06026667,5.42058306 4.1256,5.37643892 C4.19126667,5.33229477 4.2506,5.27649658 4.30626667,5.20869117 L4.30626667,2.82702631 L4.8876,2.82702631 L4.8876,5.96232 Z M2.97093333,2.33049297 L2.29293333,2.33049297 L2.29293333,5.96267315 L1.63693333,5.96267315 L1.63693333,2.33049297 L0.958933333,2.33049297 L0.958933333,1.71318126 L2.97093333,1.71318126 L2.97093333,2.33049297 Z M4.9856,0.345419099 C4.9856,0.345065946 0.9596,0.351775856 0.4806,0.857491171 C0.00126666667,1.36355964 -6.66666667e-05,3.86388396 -6.66666667e-05,3.87836324 C-6.66666667e-05,3.89743351 0.000933333333,6.39316685 0.4806,6.89994162 C0.959266667,7.40530378 4.9856,7.41625153 4.9856,7.41625153 C4.9856,7.41625153 9.01226667,7.40530378 9.49026667,6.90029477 C9.97126667,6.39175423 9.97526667,3.87836324 9.97526667,3.87836324 C9.97526667,3.86388396 9.96993333,1.36426595 9.49026667,0.857491171 C9.01226667,0.351775856 4.9856,0.345065946 4.9856,0.345419099 Z" id="Fill-6" fill="#FFFFFF" mask="url(#mask-2)"></path>
                    </g>
                    <path d="M8.1634,7.88937081 C8.07073333,7.88937081 8.00373333,7.91691676 7.96306667,7.97554018 C7.92306667,8.03063207 7.9034,8.12527712 7.9034,8.25665009 L7.9034,8.57307532 L8.41773333,8.57307532 L8.41773333,8.25665009 C8.41773333,8.12527712 8.39706667,8.03063207 8.35606667,7.97554018 C8.3174,7.91691676 8.25173333,7.88937081 8.1634,7.88937081" id="Fill-11" fill="#FFFFFF"></path>
                </g>
            </g>
        </g>
    </g>
</svg>