<?xml version="1.0" encoding="UTF-8" standalone="no"?>
<svg width="24px" height="24px" viewBox="0 0 24 24" version="1.1" xmlns="http://www.w3.org/2000/svg" xmlns:xlink="http://www.w3.org/1999/xlink">
    <!-- Generator: Sketch 49.3 (51167) - http://www.bohemiancoding.com/sketch -->
    <title>icono-regalo-2 color</title>
    <desc>Created with Sketch.</desc>
    <defs></defs>
    <g id="icono-regalo-2-color" stroke="none" stroke-width="1" fill="none" fill-rule="evenodd">
        <path d="M21.667,9.9912 C21.667,10.2662 21.442,10.4912 21.167,10.4912 L20.667,10.4912 L19.667,10.4912 L15.167,10.4912 L15.167,6.5742 L19.167,6.5742 L20.575,6.5742 L21.167,6.5742 C21.442,6.5742 21.667,6.7992 21.667,7.0742 L21.667,9.9912 Z M19.667,20.9912 C19.667,21.2662 19.442,21.4912 19.167,21.4912 L15.075,21.4912 C15.131,21.3342 15.167,21.1672 15.167,20.9912 L15.167,11.4912 L19.667,11.4912 L19.667,20.9912 Z M14.167,10.4912 L14.167,10.9912 L14.167,11.4912 L14.167,20.9912 C14.167,21.2662 13.942,21.4912 13.667,21.4912 L10,21.4912 C9.725,21.4912 9.5,21.2662 9.5,20.9912 L9.5,11.4912 L9.5,10.9912 L9.5,10.4912 L9.5,6.5742 L14.167,6.5742 L14.167,10.4912 Z M4.5,21.4912 C4.225,21.4912 4,21.2662 4,20.9912 L4,11.4912 L8.5,11.4912 L8.5,20.9912 C8.5,21.1672 8.536,21.3342 8.592,21.4912 L4.5,21.4912 Z M3,10.4912 L2.5,10.4912 C2.225,10.4912 2,10.2662 2,9.9912 L2,7.0742 C2,6.7992 2.225,6.5742 2.5,6.5742 L3.092,6.5742 L4.5,6.5742 L8.5,6.5742 L8.5,10.4912 L4,10.4912 L3,10.4912 Z M7.526,2.1422 C7.637,2.0322 7.803,1.9762 8.021,1.9762 C8.602,1.9762 9.34,2.3552 9.949,2.9662 C10.498,3.5152 10.735,4.2762 10.669,5.2852 C9.673,5.3532 8.9,5.1142 8.351,4.5652 C7.422,3.6362 7.149,2.5192 7.526,2.1422 Z M13.708,2.9662 C14.549,2.1242 15.727,1.7402 16.13,2.1422 C16.305,2.3172 16.344,2.6502 16.237,3.0562 C16.105,3.5552 15.767,4.1052 15.308,4.5652 C14.816,5.0562 14.158,5.2952 13.298,5.2952 C13.196,5.2952 13.093,5.2922 12.987,5.2852 C12.923,4.2752 13.16,3.5142 13.708,2.9662 Z M21.167,5.5742 L19.167,5.5742 L15.641,5.5742 C15.769,5.4782 15.899,5.3872 16.015,5.2722 C16.604,4.6822 17.026,3.9852 17.204,3.3102 C17.406,2.5402 17.276,1.8742 16.837,1.4352 C16.015,0.6132 14.265,0.9942 13.001,2.2592 C12.206,3.0532 11.89,4.1752 12.023,5.5742 L11.634,5.5742 C11.769,4.1772 11.451,3.0542 10.656,2.2592 C9.394,0.9962 7.641,0.6132 6.819,1.4352 C5.975,2.2802 6.337,3.9662 7.644,5.2722 C7.759,5.3872 7.89,5.4782 8.018,5.5742 L4.5,5.5742 L2.5,5.5742 C1.673,5.5742 1,6.2472 1,7.0742 L1,9.9912 C1,10.8182 1.673,11.4912 2.5,11.4912 L3,11.4912 L3,20.9912 C3,21.8182 3.673,22.4912 4.5,22.4912 L10,22.4912 L13.667,22.4912 L19.167,22.4912 C19.994,22.4912 20.667,21.8182 20.667,20.9912 L20.667,11.4912 L21.167,11.4912 C21.994,11.4912 22.667,10.8182 22.667,9.9912 L22.667,7.0742 C22.667,6.2472 21.994,5.5742 21.167,5.5742 Z" id="Page-1" fill="#72933A"></path>
        <rect id="Rectangle" x="0" y="0" width="24" height="24"></rect>
    </g>
</svg>