<?xml version="1.0" encoding="UTF-8" standalone="no"?>
<svg width="24px" height="24px" viewBox="0 0 24 24" version="1.1" xmlns="http://www.w3.org/2000/svg" xmlns:xlink="http://www.w3.org/1999/xlink">
    <!-- Generator: Sketch 49.3 (51167) - http://www.bohemiancoding.com/sketch -->
    <title>icono-dinero-blanco</title>
    <desc>Created with Sketch.</desc>
    <defs>
        <polygon id="path-1" points="0.4999 0.016 7.4999 0.016 7.4999 5.1827 0.4999 5.1827"></polygon>
    </defs>
    <g id="icono-dinero-blanco" stroke="none" stroke-width="1" fill="none" fill-rule="evenodd">
        <g id="Page-1">
            <rect id="Bounding-Box" x="0" y="0" width="24" height="24"></rect>
            <g id="Group-3" transform="translate(5.000000, 0.984400)">
                <mask id="mask-2" fill="white">
                    <use xlink:href="#path-1"></use>
                </mask>
                <g id="Clip-2"></g>
                <path d="M1.2969,4.9697 C1.0999,4.5497 0.9999,4.0987 0.9999,3.6277 C0.9999,1.9117 2.3459,0.5157 3.9999,0.5157 C5.6539,0.5157 6.9999,1.9117 6.9999,3.6277 L7.4999,3.6277 C7.4999,1.6357 5.9299,0.0157 3.9999,0.0157 C2.0699,0.0157 0.4999,1.6357 0.4999,3.6277 C0.4999,4.1727 0.6149,4.6957 0.8439,5.1827 L1.2969,4.9697 Z" id="Fill-1" fill="#FFFFFF" mask="url(#mask-2)"></path>
            </g>
            <path d="M23,15.2031 C23,15.5281 22.748,15.7931 22.437,15.7931 L21.624,15.7931 C20.928,15.7931 20.695,16.2951 20.584,16.5361 C20.044,17.7031 19.233,18.5981 18.175,19.1941 C17.931,19.3311 17.775,19.5121 17.714,19.7311 C17.63,20.0301 17.759,20.2791 17.762,20.2791 L17.763,20.2791 L18.021,20.9861 C18.143,21.3171 17.982,21.6881 17.665,21.8141 L16.057,22.4431 C15.754,22.5641 15.391,22.3931 15.271,22.0651 C15.27,22.0621 15.078,21.5971 14.925,21.1231 C14.805,20.7591 14.641,20.5341 14.19,20.5341 C14.059,20.5341 13.891,20.5521 13.671,20.5761 C13.267,20.6201 12.714,20.6821 11.869,20.6821 C10.964,20.6821 10.398,20.5591 10.025,20.4781 C9.825,20.4351 9.668,20.4011 9.528,20.4011 C9.111,20.4011 8.96,20.7191 8.851,21.0171 C8.678,21.4981 8.463,22.0721 8.463,22.0741 C8.348,22.3911 7.989,22.5671 7.679,22.4431 L6.071,21.8141 C5.753,21.6881 5.594,21.3171 5.713,20.9931 C5.713,20.9931 6.008,20.2641 6.172,19.7401 C6.373,19.0931 5.983,18.7831 5.79,18.6301 C4.907,17.8971 3.413,16.3571 3.328,14.2651 C3.228,11.7841 4.02,9.7351 5.559,8.4961 C7.346,7.0571 9.409,6.3571 11.869,6.3571 C12.873,6.3571 13.857,6.4771 14.796,6.7151 C14.911,6.7401 15.037,6.6841 15.086,6.5731 C15.677,5.2271 16.6,4.3701 17.972,3.9041 C17.543,5.1371 17.292,6.0631 17.313,7.3071 C17.315,7.4111 17.381,7.5031 17.479,7.5381 C19.998,8.4481 20.585,10.5981 20.721,11.4811 C20.765,11.7611 21.027,12.0871 21.624,12.0871 L22.437,12.0871 C22.748,12.0871 23,12.3521 23,12.6791 L23,15.2031 Z M22.437,11.5871 L21.624,11.5871 C21.361,11.5871 21.229,11.4951 21.215,11.4041 C21.068,10.4531 20.445,8.1631 17.812,7.1291 C17.815,6.0061 18.058,5.1441 18.606,3.6081 C18.638,3.5211 18.618,3.4241 18.556,3.3551 C18.494,3.2871 18.399,3.2611 18.309,3.2821 C16.613,3.7231 15.437,4.6721 14.716,6.1811 C13.799,5.9661 12.843,5.8571 11.869,5.8571 C9.291,5.8571 7.124,6.5941 5.244,8.1071 C4.306,8.8631 3.635,9.8961 3.237,11.1221 C3.23,11.1191 3.229,11.1121 3.222,11.1101 C3.151,11.0941 1.5,10.6771 1.5,9.1161 C1.5,8.4571 1.827,7.8861 2.333,7.6601 C2.459,7.6031 2.516,7.4561 2.46,7.3301 C2.403,7.2031 2.255,7.1461 2.13,7.2031 C1.443,7.5101 1,8.2601 1,9.1161 C1,11.0421 3.003,11.5701 3.092,11.5931 C2.882,12.4181 2.789,13.3201 2.828,14.2851 C2.921,16.5711 4.524,18.2291 5.506,19.0421 C5.66,19.1651 5.794,19.2711 5.695,19.5911 C5.536,20.0971 5.25,20.8041 5.247,20.8121 C5.031,21.3961 5.319,22.0551 5.889,22.2791 L7.496,22.9081 C8.06,23.1311 8.724,22.8181 8.932,22.2471 C8.932,22.2471 9.146,21.6701 9.32,21.1881 C9.426,20.9011 9.471,20.9011 9.528,20.9011 C9.614,20.9011 9.749,20.9301 9.919,20.9671 C10.313,21.0531 10.91,21.1821 11.869,21.1821 C12.741,21.1821 13.334,21.1161 13.726,21.0731 C13.923,21.0511 14.072,21.0341 14.19,21.0341 C14.342,21.0341 14.369,21.0341 14.449,21.2781 C14.607,21.7661 14.804,22.2461 14.804,22.2461 C14.965,22.6871 15.382,22.9841 15.843,22.9841 C15.979,22.9841 16.112,22.9591 16.239,22.9081 L17.848,22.2791 C18.417,22.0551 18.705,21.3971 18.489,20.8131 L18.217,20.0741 C18.177,19.9971 18.117,19.8001 18.42,19.6301 C19.556,18.9891 20.461,17.9921 21.037,16.7461 C21.16,16.4801 21.274,16.2931 21.624,16.2931 L22.437,16.2931 C23.023,16.2931 23.5,15.8041 23.5,15.2031 L23.5,12.6791 C23.5,12.0771 23.023,11.5871 22.437,11.5871 Z" id="Fill-4" fill="#FFFFFF"></path>
            <path d="M17.9902,13.083 C17.5992,13.083 17.2822,12.751 17.2822,12.343 C17.2822,11.936 17.5992,11.604 17.9902,11.604 C18.3792,11.604 18.6952,11.936 18.6952,12.343 C18.6952,12.751 18.3792,13.083 17.9902,13.083 M17.9902,11.104 C17.3242,11.104 16.7822,11.659 16.7822,12.343 C16.7822,13.026 17.3242,13.583 17.9902,13.583 C18.6542,13.583 19.1952,13.026 19.1952,12.343 C19.1952,11.659 18.6542,11.104 17.9902,11.104" id="Fill-6" fill="#FFFFFF"></path>
        </g>
    </g>
</svg>