<?xml version="1.0" encoding="UTF-8" standalone="no"?>
<svg width="24px" height="24px" viewBox="0 0 24 24" version="1.1" xmlns="http://www.w3.org/2000/svg" xmlns:xlink="http://www.w3.org/1999/xlink">
    <!-- Generator: Sketch 49.3 (51167) - http://www.bohemiancoding.com/sketch -->
    <title>icons/social/twitter</title>
    <desc>Created with Sketch.</desc>
    <defs></defs>
    <g id="icons/social/twitter" stroke="none" stroke-width="1" fill="none" fill-rule="evenodd">
        <g id="twitter">
            <rect id="Bounding-Box" x="0" y="0" width="24" height="24"></rect>
            <circle id="Oval" fill="#72933A" cx="12" cy="12" r="11"></circle>
            <path d="M16.2630745,9.42286581 C16.7080472,9.14206269 17.0494805,8.69680774 17.20972,8.16640185 C16.7930974,8.42705475 16.332717,8.61555684 15.8415214,8.71760797 C15.449551,8.27560306 14.8893291,8 14.2693256,8 C13.0798556,8 12.1159535,9.0172613 12.1159535,10.2717752 C12.1159535,10.4498772 12.1338264,10.6234291 12.1708047,10.789181 C10.381053,10.6942799 8.79406586,9.7907699 7.73093855,8.41535462 C7.54543053,8.75205836 7.43942596,9.14206269 7.43942596,9.55806731 C7.43942596,10.3458761 7.81968656,11.0413838 8.3977813,11.4495883 C8.04463814,11.4378882 7.71244937,11.3345371 7.42155309,11.1655352 L7.42155309,11.1934855 C7.42155309,12.2945977 8.16358514,13.2130579 9.15029054,13.4210602 C8.96909667,13.4743608 8.77927452,13.5010111 8.5820567,13.5010111 C8.44338792,13.5010111 8.30780067,13.487361 8.17714386,13.4607107 C8.45078359,14.3629207 9.24643423,15.020728 10.1893819,15.0382782 C9.45166403,15.647985 8.52289135,16.010689 7.51399894,16.010689 C7.34020074,16.010689 7.16825145,16.0009389 7,15.9794887 C7.9534249,16.6236458 9.08557845,17 10.3021659,17 C14.2650114,17 16.4307096,13.5380615 16.4307096,10.5356782 C16.4307096,10.4368771 16.429477,10.338726 16.4251629,10.2418749 C16.8460997,9.92142135 17.2121852,9.5210169 17.5,9.06536184 C17.1135763,9.24606385 16.6981863,9.3682652 16.2630745,9.42286581 Z" id="Shape" fill="#FFFFFF"></path>
        </g>
    </g>
</svg>