<?xml version="1.0" encoding="UTF-8" standalone="no"?>
<svg width="24px" height="24px" viewBox="0 0 24 24" version="1.1" xmlns="http://www.w3.org/2000/svg" xmlns:xlink="http://www.w3.org/1999/xlink">
    <!-- Generator: Sketch 49.3 (51167) - http://www.bohemiancoding.com/sketch -->
    <title>icons/social/pinterest</title>
    <desc>Created with Sketch.</desc>
    <defs></defs>
    <g id="icons/social/pinterest" stroke="none" stroke-width="1" fill="none" fill-rule="evenodd">
        <g id="pinterest">
            <rect id="Bounding-Box" x="0" y="0" width="24" height="24"></rect>
            <circle id="Oval" fill="#72933A" cx="12" cy="12" r="11"></circle>
            <path d="M6,12 C6,14.4567262 7.47812794,16.5677328 9.59266228,17.4955315 C9.57502352,17.0764346 9.58913452,16.5733772 9.69637817,16.1175917 C9.81208843,15.630762 10.4682502,12.8480715 10.4682502,12.8480715 C10.4682502,12.8480715 10.2763405,12.4649577 10.2763405,11.8991063 C10.2763405,11.0094073 10.7920978,10.3454845 11.4334431,10.3454845 C11.979539,10.3454845 12.2434149,10.7554092 12.2434149,11.2464722 C12.2434149,11.7953904 11.8934619,12.6159454 11.7135466,13.3758231 C11.5632643,14.0122295 12.0324553,14.530809 12.6603951,14.530809 C13.7970367,14.530809 14.5625588,13.071731 14.5625588,11.341016 C14.5625588,10.0265757 13.6770931,9.04233302 12.0663217,9.04233302 C10.2460019,9.04233302 9.1121825,10.3998119 9.1121825,11.915334 C9.1121825,12.4381468 9.26669802,12.8071496 9.50729069,13.0921919 C9.61876764,13.2234243 9.63428975,13.2763405 9.59407338,13.4273283 C9.56585136,13.5366886 9.49952963,13.8033866 9.47201317,13.9085136 C9.4317968,14.060207 9.30903104,14.1145343 9.17144873,14.0587959 C8.33325494,13.7158984 7.94308561,12.7979774 7.94308561,11.7664628 C7.94308561,10.0618532 9.37958608,8.01787394 12.230715,8.01787394 C14.5216369,8.01787394 16.0293979,9.67591722 16.0293979,11.4553151 C16.0293979,13.809031 14.7206021,15.5672625 12.7916275,15.5672625 C12.1439323,15.5672625 11.5350423,15.2173095 11.3261994,14.8193791 C11.3261994,14.8193791 10.9776576,16.2015522 10.9035748,16.4689558 C10.7772813,16.9310913 10.5275165,17.3932267 10.3003293,17.7537629 C10.8393697,17.9132173 11.4094544,18 12.0007056,18 C15.3139699,18 18,15.3132643 18,12 C18,8.6860301 15.3139699,6 12.0007056,6 C8.68673565,6 6,8.6860301 6,12 Z" id="Shape" fill="#FFFFFF"></path>
        </g>
    </g>
</svg>