<?xml version="1.0" encoding="UTF-8" standalone="no"?>
<svg width="24px" height="24px" viewBox="0 0 24 24" version="1.1" xmlns="http://www.w3.org/2000/svg" xmlns:xlink="http://www.w3.org/1999/xlink">
    <!-- Generator: Sketch 49.3 (51167) - http://www.bohemiancoding.com/sketch -->
    <title>icono-tarjeta color</title>
    <desc>Created with Sketch.</desc>
    <defs></defs>
    <g id="icono-tarjeta-color" stroke="none" stroke-width="1" fill="none" fill-rule="evenodd">
        <g id="Page-1" transform="translate(1.000000, 2.000000)" fill="#72933A">
            <path d="M10.5957,5.5746 L-0.0003,2.6566 L-0.0003,17.3566 L10.0957,20.1356 L10.5957,20.2736 L11.0957,20.1356 L21.1917,17.3566 L21.1917,2.6566 L10.5957,5.5746 Z M11.0957,6.4736 L20.1917,3.9696 L20.1917,16.5956 L11.0957,19.0986 L11.0957,6.4736 Z M0.9997,16.5956 L0.9997,3.9696 L10.0957,6.4736 L10.0957,19.0986 L0.9997,16.5956 Z" id="Fill-1"></path>
            <polygon id="Fill-2" points="21.1914 -3.55271368e-15 10.5954 2.917 0.0004 -3.55271368e-15 0.0004 1.039 10.5954 3.961 10.5954 3.97 21.1914 1.05"></polygon>
        </g>
        <rect id="Rectangle" x="0" y="0" width="24" height="24"></rect>
    </g>
</svg>