<?xml version="1.0" encoding="UTF-8" standalone="no"?>
<svg width="24px" height="24px" viewBox="0 0 24 24" version="1.1" xmlns="http://www.w3.org/2000/svg" xmlns:xlink="http://www.w3.org/1999/xlink">
    <!-- Generator: Sketch 49.3 (51167) - http://www.bohemiancoding.com/sketch -->
    <title>icons/social/pinterest hover</title>
    <desc>Created with Sketch.</desc>
    <defs></defs>
    <g id="icons/social/pinterest-hover" stroke="none" stroke-width="1" fill="none" fill-rule="evenodd">
        <g id="pinterest" transform="translate(1.000000, 1.000000)">
            <circle id="Oval" fill="#FFFFFF" cx="11" cy="11" r="11"></circle>
            <path d="M5,11 C5,13.4567262 6.47812794,15.5677328 8.59266228,16.4955315 C8.57502352,16.0764346 8.58913452,15.5733772 8.69637817,15.1175917 C8.81208843,14.630762 9.46825024,11.8480715 9.46825024,11.8480715 C9.46825024,11.8480715 9.27634055,11.4649577 9.27634055,10.8991063 C9.27634055,10.0094073 9.79209784,9.34548448 10.4334431,9.34548448 C10.979539,9.34548448 11.2434149,9.75540922 11.2434149,10.2464722 C11.2434149,10.7953904 10.8934619,11.6159454 10.7135466,12.3758231 C10.5632643,13.0122295 11.0324553,13.530809 11.6603951,13.530809 C12.7970367,13.530809 13.5625588,12.071731 13.5625588,10.341016 C13.5625588,9.02657573 12.6770931,8.04233302 11.0663217,8.04233302 C9.24600188,8.04233302 8.1121825,9.39981185 8.1121825,10.915334 C8.1121825,11.4381468 8.26669802,11.8071496 8.50729069,12.0921919 C8.61876764,12.2234243 8.63428975,12.2763405 8.59407338,12.4273283 C8.56585136,12.5366886 8.49952963,12.8033866 8.47201317,12.9085136 C8.4317968,13.060207 8.30903104,13.1145343 8.17144873,13.0587959 C7.33325494,12.7158984 6.94308561,11.7979774 6.94308561,10.7664628 C6.94308561,9.06185325 8.37958608,7.01787394 11.230715,7.01787394 C13.5216369,7.01787394 15.0293979,8.67591722 15.0293979,10.4553151 C15.0293979,12.809031 13.7206021,14.5672625 11.7916275,14.5672625 C11.1439323,14.5672625 10.5350423,14.2173095 10.3261994,13.8193791 C10.3261994,13.8193791 9.97765757,15.2015522 9.90357479,15.4689558 C9.77728128,15.9310913 9.52751646,16.3932267 9.30032926,16.7537629 C9.83936971,16.9132173 10.4094544,17 11.0007056,17 C14.3139699,17 17,14.3132643 17,11 C17,7.6860301 14.3139699,5 11.0007056,5 C7.68673565,5 5,7.6860301 5,11 Z" id="Shape" fill="#333333"></path>
        </g>
        <rect id="Bounding-Box" x="0" y="0" width="24" height="24"></rect>
    </g>
</svg>