<?xml version="1.0" encoding="UTF-8" standalone="no"?>
<svg width="24px" height="24px" viewBox="0 0 24 24" version="1.1" xmlns="http://www.w3.org/2000/svg" xmlns:xlink="http://www.w3.org/1999/xlink">
    <!-- Generator: Sketch 49.3 (51167) - http://www.bohemiancoding.com/sketch -->
    <title>icons/social/youtube hover</title>
    <desc>Created with Sketch.</desc>
    <defs></defs>
    <g id="icons/social/youtube-hover" stroke="none" stroke-width="1" fill="none" fill-rule="evenodd">
        <g id="youtube">
            <rect id="Bounding-Box" x="0" y="0" width="24" height="24"></rect>
            <circle id="Oval" fill="#FFFFFF" cx="12" cy="12" r="11"></circle>
            <path d="M9.09312239,14.6925022 L9.1000082,12.8301333 L9.41380441,12.8264838 L9.72727273,12.8221043 L9.72366587,12.5352492 L9.71973113,12.248029 L8.81408312,12.2440145 L7.90909091,12.24 L7.90909091,12.5312346 L7.90909091,12.8221043 L8.21534552,12.8264838 L8.52160013,12.8301333 L8.52520698,14.6771741 C8.52684646,15.6928457 8.531437,16.5329737 8.53504386,16.5435575 C8.53996229,16.5585206 8.60357406,16.5621702 8.81375523,16.5588856 L9.08623658,16.5548711 L9.09312239,14.6925022 Z M15.1854094,14.6104965 C15.174897,14.5641986 15.1894526,14.0290496 15.2034692,13.9514326 C15.2360845,13.7689645 15.3053584,13.68 15.4145254,13.68 C15.5053632,13.68 15.5630465,13.7390071 15.6018615,13.8715461 C15.6263904,13.9555177 15.6288163,13.9913759 15.63259,14.301844 L15.6363636,14.64 L15.4139863,14.64 C15.2228766,14.64 15.1910699,14.6359149 15.1854094,14.6104965 L15.1854094,14.6104965 Z M15.4414762,16.5268983 C15.7516073,16.4421945 15.9661658,16.2362186 16.047153,15.9455389 C16.0605869,15.8959107 16.0763237,15.7544888 16.0816973,15.6317242 L16.0909091,15.4085837 L15.7922928,15.4085837 L15.4932926,15.4085837 L15.486,15.6085893 C15.4775558,15.8358344 15.4533748,15.9138216 15.3681655,15.9865848 C15.2775827,16.0638258 15.1110024,16.0694229 15.0027635,15.9985254 C14.8737981,15.9138216 14.8419406,15.7709072 14.8484657,15.3067152 L14.8530716,14.9776016 L15.4714146,14.9738702 L16.0897576,14.9693925 L16.0816973,14.4798267 C16.0717178,13.9335429 16.060203,13.8507047 15.9657819,13.6566695 C15.7857677,13.289122 15.2871783,13.1036691 14.8730305,13.250315 C14.5605965,13.3611389 14.3759764,13.5607713 14.301898,13.8697351 C14.2757979,13.9786934 14.2727273,14.0764573 14.2727273,14.8757331 C14.2727273,15.8559842 14.2761817,15.8959107 14.379047,16.0966625 C14.5628994,16.4537619 15.0231063,16.6403343 15.4414762,16.5268983 L15.4414762,16.5268983 Z M13.2711311,16.0415611 C13.3038038,16.014986 13.3252556,15.9780981 13.342087,15.9205848 C13.3635388,15.8448258 13.3655189,15.7484414 13.3625487,14.8548032 C13.3595784,13.9234839 13.3579283,13.8687471 13.3328462,13.8076639 C13.2684909,13.651783 13.1064474,13.6367105 12.957935,13.7731559 L12.9090909,13.81758 L12.9090909,14.8797918 L12.9090909,15.9420035 L12.957605,15.9864276 C13.0675041,16.0871751 13.1879641,16.1081972 13.2711311,16.0415611 L13.2711311,16.0415611 Z M13.9046631,16.5322664 C14.0015221,16.506601 14.1185436,16.4014091 14.1711242,16.2940482 C14.2723319,16.0883635 14.2727273,16.0833027 14.2727273,14.926914 C14.2727273,13.9776558 14.2695645,13.8605348 14.2438672,13.7578732 C14.1604499,13.4292839 13.9785922,13.2857745 13.6725968,13.3067406 C13.5014134,13.3190311 13.3666014,13.3812064 13.2049062,13.5239928 C13.1345352,13.5858066 13.0716757,13.6367759 13.0645595,13.6367759 C13.058234,13.6367759 13.0523039,13.3222845 13.0523039,12.938388 L13.0523039,12.24 L12.7534247,12.24 L12.4545455,12.24 L12.4545455,14.3803495 L12.4545455,16.5210604 L12.7534247,16.5210604 L13.0523039,16.5210604 L13.0523039,16.3768281 C13.0523039,16.2810347 13.0586293,16.2325958 13.070885,16.2325958 C13.0807685,16.2325958 13.1479768,16.2832036 13.2203246,16.345379 C13.4527862,16.5452799 13.6540157,16.6002255 13.9046631,16.5322664 L13.9046631,16.5322664 Z M10.8672439,16.5169708 C10.9882957,16.4746056 11.1305916,16.3815534 11.2504409,16.266562 C11.3053551,16.2136055 11.3602694,16.1704837 11.3722944,16.1704837 C11.3883277,16.1704837 11.3939394,16.2136055 11.3939394,16.3452403 L11.3939394,16.5199969 L11.6969697,16.5199969 L12,16.5199969 L12,14.8598093 L12,13.2 L11.6969697,13.2 L11.3939394,13.2 L11.3939394,14.4804135 L11.3939394,15.7612053 L11.2632676,15.8833836 C11.1598525,15.9805967 11.1165624,16.0101011 11.0524291,16.0267446 C10.9442039,16.0551141 10.8752605,16.0354446 10.830768,15.9631967 C10.797098,15.9094836 10.7962963,15.8845184 10.7914863,14.5541744 L10.7870771,13.2 L10.4840468,13.2 L10.1818182,13.2 L10.1818182,14.6377701 C10.1818182,16.204149 10.1834215,16.2381925 10.2764149,16.3891186 C10.3782267,16.5540404 10.6163219,16.6058622 10.8672439,16.5169708 L10.8672439,16.5169708 Z M10.9154271,17.9931208 C10.5622782,17.9865011 10.1443973,17.9759875 9.98652319,17.9697573 C8.92671686,17.9284818 8.19920135,17.8844806 8.05391402,17.8525505 C7.84677169,17.8073811 7.61517506,17.6555185 7.48067639,17.4767879 C7.26562237,17.1905853 7.1505433,16.8432482 7.09480188,16.3086139 C6.96569754,15.0656769 6.96857452,13.615973 7.10271356,12.4166478 C7.16169159,11.8909695 7.30805778,11.511313 7.55367968,11.2465269 C7.6939323,11.0950536 7.82879058,11.0109451 8.00824201,10.961103 C8.39735313,10.8532416 11.4419138,10.7675756 13.2939677,10.8119662 C14.3638434,10.837666 15.5196688,10.891402 15.8267861,10.929173 C16.2241685,10.9782363 16.5032353,11.2009681 16.6963524,11.6234577 C16.8423589,11.9423691 16.8887502,12.1908008 16.9480878,12.9563441 C16.9944791,13.562237 17.005987,13.9399466 16.9973561,14.6396828 C16.9876463,15.4768741 16.938378,16.2143812 16.8646555,16.6283042 C16.7869771,17.06598 16.6035699,17.4390169 16.3658596,17.641111 C16.182812,17.7972569 15.9875372,17.866958 15.6800603,17.8856488 C15.5887163,17.8914896 15.4732776,17.8992774 15.4232901,17.9035608 C15.246356,17.9183576 14.2976729,17.9596331 13.7772998,17.9755981 C13.0041122,17.9989616 11.6512139,18.0071388 10.9154271,17.9931208 Z M10.0895206,10.7819752 C10.0763613,10.7583998 10.0785545,9.3778382 10.0917138,9.18244178 C10.1088941,8.93190282 10.0701471,8.73450848 9.90565549,8.23023388 C9.85228708,8.06680416 9.75578531,7.74953472 9.6914508,7.52576786 C9.22612218,5.90785356 9.25061316,6.00255489 9.29520867,6.00215531 C9.60189423,5.99935822 9.98022504,6.00135614 9.98461148,6.00615114 C9.98753578,6.00934781 10.0869618,6.40413648 10.2057614,6.88403648 C10.3249264,7.36353689 10.423987,7.76272098 10.4265457,7.77151182 C10.428739,7.77950349 10.4985565,7.50019451 10.5815334,7.15055879 C10.7551635,6.41692316 10.8527619,6.0121449 10.8564173,6.00854864 C10.8640935,6.00055697 10.9503603,5.99895864 11.2329204,6.00055697 L11.5454545,6.00255489 L11.5385093,6.05729785 C11.5330263,6.10165164 11.3195527,6.88483564 11.0962096,7.68040674 C11.0720841,7.76831515 11.0095773,7.9948791 10.9580366,8.18428176 C10.9064958,8.37328484 10.8443545,8.59785086 10.819498,8.68336177 L10.774537,8.8391994 L10.774537,9.8109869 C10.774537,10.7224373 10.7727093,10.7835736 10.7478528,10.7907661 C10.6915601,10.8075486 10.0993901,10.7995569 10.0895206,10.7819752 Z M13.7676768,10.3153265 C13.605291,10.294642 13.5102453,10.2344352 13.445214,10.1106974 C13.3636364,9.95556338 13.3636364,9.95630212 13.3636364,8.41050276 L13.3636364,6.96812607 L13.6914863,6.96812607 L14.0189514,6.96812607 L14.0258778,8.29784594 C14.033189,9.74206947 14.031265,9.70845711 14.1213083,9.73024974 C14.2040404,9.74982617 14.2956229,9.70734901 14.4095238,9.59580029 L14.5188071,9.48905333 L14.5230399,8.22840501 L14.5268879,6.96812607 L14.8543531,6.96369367 L15.1818182,6.96 L15.1818182,8.61069948 L15.1818182,10.2617683 L15.1371813,10.2706331 C15.0836941,10.2813448 14.5873016,10.280606 14.5472823,10.269525 C14.5230399,10.2632458 14.5191919,10.2418225 14.5191919,10.1125442 L14.5191919,9.96258135 L14.4260702,10.0497519 C14.2121212,10.2495792 13.981241,10.3426596 13.7676768,10.3153265 L13.7676768,10.3153265 Z M12.353036,10.2686709 C12.4472753,10.1807866 12.4479208,10.1732649 12.4527618,9.17843007 C12.4569574,8.40528543 12.4546982,8.2738548 12.4356567,8.16855195 C12.4098377,8.0260368 12.3646545,7.95873799 12.2762245,7.92904733 C12.1619754,7.89183505 12.0574085,7.97180188 12.0206164,8.12500565 C11.992861,8.24297652 11.9931837,9.9967045 12.0212619,10.1146754 C12.0425626,10.2033515 12.1106602,10.3003409 12.1610072,10.3138007 C12.2265229,10.3308233 12.3068845,10.3118213 12.3533587,10.2686709 L12.353036,10.2686709 Z M12.3554183,10.3168928 C12.0695001,10.2833179 11.8068456,10.1198224 11.6803962,9.89647588 C11.5516955,9.66911497 11.5396885,9.55014281 11.5471929,8.54873296 C11.5531964,7.77322424 11.5554477,7.72468652 11.5869663,7.61337821 C11.6623856,7.34879288 11.8083465,7.16850992 12.0346046,7.05939128 C12.3452873,6.91012866 12.6803594,6.92947076 12.9734068,7.11413307 C13.1602667,7.2312805 13.2735834,7.401345 13.3343691,7.65425208 C13.3610098,7.76592534 13.3636364,7.85168748 13.3636364,8.63486005 C13.3636364,9.58736723 13.3591337,9.64247397 13.2585746,9.84866805 C13.1621428,10.0475632 12.9437644,10.222737 12.7160054,10.2844127 C12.6154463,10.3110537 12.4409686,10.3271113 12.3554183,10.3168928 L12.3554183,10.3168928 Z" id="Shape" fill="#333333"></path>
        </g>
    </g>
</svg>