<?xml version="1.0" encoding="UTF-8" standalone="no"?>
<svg width="24px" height="24px" viewBox="0 0 24 24" version="1.1" xmlns="http://www.w3.org/2000/svg" xmlns:xlink="http://www.w3.org/1999/xlink">
    <!-- Generator: Sketch 49.3 (51167) - http://www.bohemiancoding.com/sketch -->
    <title>icono-novios-blanco</title>
    <desc>Created with Sketch.</desc>
    <defs>
        <polygon id="path-1" points="0 0 22.5957308 0 22.5957308 15.5169778 0 15.5169778"></polygon>
    </defs>
    <g id="icono-novios-blanco" stroke="none" stroke-width="1" fill="none" fill-rule="evenodd">
        <rect id="Bounding-Box" x="0" y="0" width="24" height="24"></rect>
        <g id="Page-1" transform="translate(0.000000, 4.000000)">
            <mask id="mask-2" fill="white">
                <use xlink:href="#path-1"></use>
            </mask>
            <g id="Clip-2"></g>
            <path d="M22.1534231,14.4592 C22.1534231,14.7978667 21.8791923,15.0725333 21.5430385,15.0725333 L21.3316154,15.0725333 L20.8893077,15.0725333 L1.84707692,15.0725333 L1.40476923,15.0725333 L1.05269231,15.0725333 C0.716538462,15.0725333 0.442307692,14.7978667 0.442307692,14.4592 L0.442307692,14.1614222 C0.442307692,13.8227556 0.716538462,13.5480889 1.05269231,13.5480889 L1.40476923,13.5480889 L1.84707692,13.5480889 L20.8893077,13.5480889 L21.3316154,13.5480889 L21.5430385,13.5480889 C21.8791923,13.5480889 22.1534231,13.8227556 22.1534231,14.1614222 L22.1534231,14.4592 Z M1.84707692,13.1027556 L20.8893077,13.1027556 L20.8893077,11.5623111 L1.84707692,11.5623111 L1.84707692,13.1027556 Z M1.84707692,11.1178667 L20.8893077,11.1178667 L20.8893077,10.0467556 L1.84707692,10.0467556 L1.84707692,11.1178667 Z M1.84707692,7.71964444 C2.18588462,8.11875556 2.68303846,8.37831111 3.24565385,8.37831111 C3.95246154,8.37831111 4.55930769,7.97297778 4.86980769,7.38542222 C5.17942308,7.97297778 5.78803846,8.37831111 6.49484615,8.37831111 C7.20165385,8.37831111 7.8085,7.97297778 8.119,7.38542222 C8.42861538,7.97297778 9.03634615,8.37831111 9.74315385,8.37831111 C10.4499615,8.37831111 11.0568077,7.97297778 11.3673077,7.38542222 C11.6769231,7.97297778 12.2846538,8.37831111 12.9914615,8.37831111 C13.6973846,8.37831111 14.306,7.97297778 14.6156154,7.38542222 C14.9261154,7.97297778 15.5338462,8.37831111 16.2397692,8.37831111 C16.9465769,8.37831111 17.5543077,7.97297778 17.8639231,7.38542222 C18.1744231,7.97297778 18.7821538,8.37831111 19.4889615,8.37831111 C20.0515769,8.37831111 20.5505,8.11875556 20.8893077,7.71875556 L20.8893077,9.60231111 L1.84707692,9.60231111 L1.84707692,7.71964444 Z M1.84707692,4.77386667 C1.84707692,4.43608889 2.12042308,4.15964444 2.45746154,4.15964444 L20.2789231,4.15964444 C20.6159615,4.15964444 20.8893077,4.43608889 20.8893077,4.77386667 L20.8893077,6.55786667 C20.8707308,7.31964444 20.2515,7.93386667 19.4889615,7.93386667 C18.7149231,7.93386667 18.0850769,7.30097778 18.0850769,6.52408889 L17.6427692,6.52408889 C17.6427692,7.30097778 17.0129231,7.93386667 16.2397692,7.93386667 C15.4666154,7.93386667 14.8367692,7.30097778 14.8367692,6.52408889 L14.3944615,6.52408889 C14.3944615,7.30097778 13.7655,7.93386667 12.9914615,7.93386667 C12.2183077,7.93386667 11.5884615,7.30097778 11.5884615,6.52408889 L11.1461538,6.52408889 C11.1461538,7.30097778 10.5163077,7.93386667 9.74315385,7.93386667 C8.97,7.93386667 8.34015385,7.30097778 8.34015385,6.52408889 L7.89784615,6.52408889 C7.89784615,7.30097778 7.268,7.93386667 6.49484615,7.93386667 C5.72080769,7.93386667 5.09096154,7.30097778 5.09096154,6.52408889 L4.64865385,6.52408889 C4.64865385,7.30097778 4.01880769,7.93386667 3.24565385,7.93386667 C2.48753846,7.93386667 1.87007692,7.32408889 1.84707692,6.56675556 L1.84707692,4.77386667 Z M10.5180769,1.27253333 C10.3031154,1.04497778 10.3031154,0.702755556 10.5180769,0.493866667 C10.5755769,0.436977778 10.6534231,0.399644444 10.7507308,0.399644444 C10.9064231,0.399644444 11.1205,0.493866667 11.316,0.645866667 C11.3938462,0.721422222 11.5106154,0.721422222 11.5893462,0.645866667 C11.7432692,0.493866667 11.9591154,0.399644444 12.1333846,0.399644444 C12.2306923,0.399644444 12.3085385,0.436977778 12.3669231,0.493866667 C12.6013462,0.702755556 12.6013462,1.06453333 12.3863846,1.27253333 L11.4522308,2.18364444 L10.5180769,1.27253333 Z M21.5430385,13.1036444 L21.3316154,13.1036444 L21.3316154,6.55875556 C21.3316154,6.5472 21.3351538,6.53653333 21.3351538,6.52408889 L21.3316154,6.52408889 L21.3316154,4.77386667 C21.3316154,4.18986667 20.8592308,3.7152 20.2789231,3.7152 L11.6539231,3.7152 L11.6539231,2.4992 L12.6402692,1.51875556 C12.9905769,1.15875556 12.9905769,0.570311111 12.6208077,0.209422222 C12.4836923,0.0752 12.3085385,-0.000355555556 12.1130385,-0.000355555556 C11.8998462,-0.000355555556 11.6468462,0.0947555556 11.4327692,0.246755556 C11.2186923,0.0947555556 10.9648077,-0.000355555556 10.7507308,-0.000355555556 C10.557,-0.000355555556 10.3809615,0.0752 10.2447308,0.209422222 C9.87407692,0.570311111 9.87407692,1.15875556 10.2252692,1.51875556 L11.2116154,2.4992 L11.2116154,3.7152 L2.45746154,3.7152 C1.87715385,3.7152 1.40476923,4.18986667 1.40476923,4.77386667 L1.40476923,6.52408889 L1.40034615,6.52408889 C1.40034615,6.5392 1.40476923,6.55253333 1.40476923,6.56675556 L1.40476923,13.1036444 L1.05269231,13.1036444 C0.472384615,13.1036444 0,13.5783111 0,14.1614222 L0,14.4592 C0,15.0423111 0.472384615,15.5169778 1.05269231,15.5169778 L1.40476923,15.5169778 L21.3316154,15.5169778 L21.5430385,15.5169778 C22.1233462,15.5169778 22.5957308,15.0423111 22.5957308,14.4592 L22.5957308,14.1614222 C22.5957308,13.5783111 22.1233462,13.1036444 21.5430385,13.1036444 Z" id="Fill-1" fill="#FFFFFF" mask="url(#mask-2)"></path>
        </g>
    </g>
</svg>