<?xml version="1.0" encoding="UTF-8" standalone="no"?>
<svg width="24px" height="24px" viewBox="0 0 24 24" version="1.1" xmlns="http://www.w3.org/2000/svg" xmlns:xlink="http://www.w3.org/1999/xlink">
    <!-- Generator: Sketch 49.3 (51167) - http://www.bohemiancoding.com/sketch -->
    <title>icono-camion color</title>
    <desc>Created with Sketch.</desc>
    <defs>
        <polygon id="path-1" points="0.9333 0.5684 15.21 0.5684 15.21 15.6524 0.9333 15.6524"></polygon>
    </defs>
    <g id="icono-camion-color" stroke="none" stroke-width="1" fill="none" fill-rule="evenodd">
        <g id="Page-1" transform="translate(0.000000, 3.000000)">
            <path d="M5.7236,17.4316 C4.7046,17.4316 3.8756,16.6036 3.8756,15.5846 C3.8756,14.5656 4.7046,13.7356 5.7236,13.7356 C6.7426,13.7356 7.5716,14.5656 7.5716,15.5846 C7.5716,16.6036 6.7426,17.4316 5.7236,17.4316 M5.7236,12.7356 C4.1536,12.7356 2.8756,14.0136 2.8756,15.5846 C2.8756,17.1546 4.1536,18.4316 5.7236,18.4316 C7.2936,18.4316 8.5716,17.1546 8.5716,15.5846 C8.5716,14.0136 7.2936,12.7356 5.7236,12.7356" id="Fill-1" fill="#72933A"></path>
            <path d="M16.8125,17.4316 C15.7935,17.4316 14.9655,16.6036 14.9655,15.5846 C14.9655,14.5656 15.7935,13.7356 16.8125,13.7356 C17.8325,13.7356 18.6615,14.5656 18.6615,15.5846 C18.6615,16.6036 17.8325,17.4316 16.8125,17.4316 M16.8125,12.7356 C15.2435,12.7356 13.9655,14.0136 13.9655,15.5846 C13.9655,17.1546 15.2435,18.4316 16.8125,18.4316 C18.3825,18.4316 19.6615,17.1546 19.6615,15.5846 C19.6615,14.0136 18.3825,12.7356 16.8125,12.7356" id="Fill-5" fill="#72933A"></path>
            <g id="Group-11" transform="translate(8.000000, 0.431600)">
                <mask id="mask-2" fill="white">
                    <use xlink:href="#path-1"></use>
                </mask>
                <g id="Clip-10"></g>
                <path d="M13.7383,0.5684 L2.4043,0.5684 C1.5933,0.5684 0.9333,1.2284 0.9333,2.0404 L0.9333,14.1014 C0.9333,14.9134 1.5933,15.5734 2.4043,15.5734 L5.6143,15.5734 L5.6143,14.5734 L2.4043,14.5734 C2.1443,14.5734 1.9333,14.3614 1.9333,14.1014 L1.9333,2.0404 C1.9333,1.7804 2.1443,1.5684 2.4043,1.5684 L13.7383,1.5684 C13.9983,1.5684 14.2103,1.7804 14.2103,2.0404 L14.2103,14.1804 C14.2103,14.2914 14.1833,14.6524 13.8503,14.6524 L11.9283,14.6524 L11.9283,15.6524 L13.8503,15.6524 C14.6383,15.6524 15.2103,15.0334 15.2103,14.1804 L15.2103,2.0404 C15.2103,1.2284 14.5503,0.5684 13.7383,0.5684" id="Fill-9" fill="#72933A" mask="url(#mask-2)"></path>
            </g>
            <path d="M1,14.5332 L1,10.8082 C1,10.0692 1.667,9.5332 1.92,9.3552 L8.484,9.3552 L8.484,8.3552 L2.35,8.3552 L2.942,4.4142 C2.942,4.1542 3.154,3.9422 3.414,3.9422 L8.484,3.9422 L8.484,2.9422 L3.414,2.9422 C2.603,2.9422 1.942,3.6022 1.948,4.3392 L1.308,8.5632 C0.89,8.8662 0,9.6482 0,10.8082 L0,14.5332 C0,15.3452 0.66,16.0052 1.472,16.0052 L2.504,16.0052 L2.504,15.0052 L1.472,15.0052 C1.212,15.0052 1,14.7932 1,14.5332" id="Fill-12" fill="#72933A"></path>
        </g>
        <rect id="Rectangle" x="0" y="0" width="24" height="24"></rect>
    </g>
</svg>