<svg xmlns="http://www.w3.org/2000/svg" viewBox="0 0 24 24"><path d="M12.323 24H11.16c0-2.75-.89-4.619-3.358-8.063l-.28-.39-.28-.392c-1.903-2.677-2.748-4.35-2.965-6.474a7.605 7.605 0 0 1-.084-.928A7.548 7.548 0 0 1 16.1 1.443a7.537 7.537 0 0 1 3.11 7.249c-.22 2.123-1.06 3.788-2.933 6.42l-.298.416-.299.416c-2.464 3.43-3.357 5.305-3.357 8.056zm2.414-8.734l.299-.416.295-.412c1.765-2.48 2.53-3.997 2.727-5.891a6.387 6.387 0 1 0-12.703-.822c.007.261.031.522.074.81.195 1.896.966 3.422 2.761 5.947l.277.388.28.391c1.493 2.084 2.45 3.646 2.995 5.179.545-1.535 1.503-3.097 2.995-5.174zm-2.995-4.62a2.903 2.903 0 1 1 0-5.807 2.903 2.903 0 0 1 0 5.806zm0-1.162a1.742 1.742 0 1 0 0-3.484 1.742 1.742 0 0 0 0 3.484z"/></svg>