<svg xmlns="http://www.w3.org/2000/svg" viewBox="0 0 24 24"><path d="M18.619 14.639l3.966 2.592c.863.597 1.535 1.55 1.397 2.47-.095.634-.694 1.691-1.503 2.509C21.37 23.33 19.947 24 18.268 24c-3.392 0-7.632-2.474-11.693-6.534C2.482 13.376 0 9.15 0 5.739c0-1.704.626-3.128 1.69-4.205C2.51.707 3.567.138 4.344.027c.932-.134 1.582.24 2.13.97.052.069.102.138.16.224l.138.202L9.37 5.395a2.401 2.401 0 0 1-.632 3.24c-.063.05-.27.22-.336.276-.598.503-.826.872-.783 1.414.065.839.805 2.034 2.435 3.664 1.622 1.621 2.807 2.355 3.634 2.417.533.04.893-.186 1.394-.785.055-.065.231-.282.29-.355a2.405 2.405 0 0 1 3.248-.627zm-.62.961a1.259 1.259 0 0 0-1.704.341c-.06.075-.269.334-.336.414-1.574 1.883-3.412 1.744-6.715-1.558-3.317-3.316-3.462-5.175-1.58-6.76.083-.071.352-.29.361-.298.588-.414.738-1.164.382-1.725L5.822 2.062l-.132-.194a5.237 5.237 0 0 0-.132-.185c-.322-.428-.601-.589-1.053-.524-.518.074-1.35.522-2 1.18-.86.868-1.36 2.008-1.36 3.4 0 3.036 2.34 7.022 6.239 10.918 3.867 3.866 7.865 6.2 10.884 6.2 1.353 0 2.493-.537 3.397-1.451.65-.657 1.13-1.503 1.186-1.875.055-.372-.372-.98-.899-1.347L18 15.6z"/></svg>