<svg width="68" height="66" xmlns="http://www.w3.org/2000/svg" xmlns:xlink="http://www.w3.org/1999/xlink"><title>icono-dinero</title><defs><path id="path-1" d="M1.5.048h21v15.5h-21z"/></defs><g id="_HOME" fill="none" fill-rule="evenodd"><g id="Home.Mobile-Aprobado" transform="translate(-127 -5527)"><g id="cifras" transform="translate(0 4927)"><g id="3" transform="translate(40 597)"><g id="icono-dinero" transform="translate(84)"><g id="Page-1" transform="translate(3)"><g id="Group-3" transform="translate(12 2.953)"><mask id="mask-2" fill="#fff"><use xlink:href="#path-1"/></mask><path d="M3.89 14.91A9.404 9.404 0 0 1 3 10.882c0-5.148 4.038-9.336 9-9.336s9 4.188 9 9.336h1.5C22.5 4.907 17.79.047 12 .047S1.5 4.907 1.5 10.883c0 1.635.345 3.204 1.032 4.665l1.359-.639z" id="Fill-1" fill="#FFF" mask="url(#mask-2)"/></g><path d="M66 45.61c0 .974-.756 1.77-1.689 1.77h-2.439c-2.088 0-2.787 1.505-3.12 2.228-1.62 3.501-4.053 6.186-7.227 7.974-.732.411-1.2.954-1.383 1.611-.252.897.135 1.644.144 1.644h.003l.774 2.121c.366.993-.117 2.106-1.068 2.484l-4.824 1.887c-.909.363-1.998-.15-2.358-1.134-.003-.009-.579-1.404-1.038-2.826-.36-1.092-.852-1.767-2.205-1.767-.393 0-.897.054-1.557.126-1.212.132-2.871.318-5.406.318-2.715 0-4.413-.369-5.532-.612-.6-.129-1.071-.23-1.491-.23-1.251 0-1.704.953-2.031 1.847-.519 1.443-1.164 3.165-1.164 3.171-.345.951-1.422 1.48-2.352 1.107l-4.824-1.887c-.954-.378-1.431-1.49-1.074-2.463 0 0 .885-2.187 1.377-3.759.603-1.94-.567-2.87-1.146-3.33-2.649-2.199-7.131-6.819-7.386-13.095-.3-7.443 2.076-13.59 6.693-17.307 5.361-4.317 11.55-6.417 18.93-6.417 3.012 0 5.964.36 8.781 1.074a.775.775 0 0 0 .87-.426c1.773-4.038 4.542-6.609 8.658-8.007-1.287 3.7-2.04 6.477-1.977 10.21a.75.75 0 0 0 .498.692c7.557 2.73 9.318 9.18 9.726 11.83.132.84.918 1.817 2.709 1.817h2.439c.933 0 1.689.795 1.689 1.776v7.572zm-1.689-10.85h-2.439c-.789 0-1.185-.276-1.227-.549-.441-2.853-2.31-9.723-10.209-12.825.009-3.369.738-5.955 2.382-10.563a.749.749 0 0 0-.15-.759.764.764 0 0 0-.741-.219c-5.088 1.323-8.616 4.17-10.779 8.697a37.43 37.43 0 0 0-8.541-.972c-7.734 0-14.235 2.211-19.875 6.75-2.814 2.268-4.827 5.367-6.021 9.045-.021-.009-.024-.03-.045-.036-.213-.048-5.166-1.299-5.166-5.982 0-1.977.981-3.69 2.499-4.368a.752.752 0 0 0 .381-.99.748.748 0 0 0-.99-.38C1.329 22.53 0 24.78 0 27.347c0 5.778 6.009 7.362 6.276 7.431-.63 2.475-.909 5.181-.792 8.076.279 6.858 5.088 11.832 8.034 14.271.462.37.864.687.567 1.647-.477 1.518-1.335 3.64-1.344 3.663-.648 1.752.216 3.73 1.926 4.401l4.821 1.887c1.692.67 3.684-.27 4.308-1.983 0 0 .642-1.73 1.164-3.177.318-.86.453-.86.624-.86.258 0 .663.086 1.173.197 1.182.258 2.973.645 5.85.645 2.616 0 4.395-.198 5.571-.327.591-.066 1.038-.117 1.392-.117.456 0 .537 0 .777.732a46.51 46.51 0 0 0 1.065 2.904c.483 1.323 1.734 2.214 3.117 2.214.408 0 .807-.075 1.188-.228l4.827-1.887c1.707-.672 2.571-2.646 1.923-4.398l-.816-2.217c-.12-.23-.3-.822.609-1.332 3.408-1.923 6.123-4.914 7.851-8.652.369-.798.711-1.359 1.761-1.359h2.439c1.758 0 3.189-1.467 3.189-3.27v-7.572c0-1.806-1.431-3.276-3.189-3.276z" id="Fill-4" fill="#FFF"/><path d="M50.97 39.249c-1.172 0-2.123-.996-2.123-2.22 0-1.221.95-2.217 2.124-2.217 1.167 0 2.115.996 2.115 2.217 0 1.224-.948 2.22-2.115 2.22m0-5.937c-1.998 0-3.624 1.665-3.624 3.717 0 2.049 1.626 3.72 3.624 3.72 1.992 0 3.615-1.671 3.615-3.72 0-2.052-1.623-3.717-3.615-3.717" id="Fill-6" fill="#FFF"/></g></g></g></g></g></g></svg>