<svg width="64" height="63" xmlns="http://www.w3.org/2000/svg" xmlns:xlink="http://www.w3.org/1999/xlink"><defs><path id="path-1" d="M0 0h63.501v62.985H0z"/></defs><g id="_HOME" stroke="none" stroke-width="1" fill="none" fill-rule="evenodd"><g id="Home.Mobile-Aprobado" transform="translate(-128 -5373)"><g id="cifras" transform="translate(0 4927)"><g id="2" transform="translate(32 440)"><g id="icono-regalo" transform="translate(93)"><g id="Page-1" transform="translate(3 6)"><mask id="mask-2" fill="#fff"><use xlink:href="#path-1"/></mask><path d="M62.001 26.235a2.255 2.255 0 0 1-2.25 2.25h-18.75v-13.25h18.75a2.255 2.255 0 0 1 2.25 2.25v8.75zm-6 33a2.255 2.255 0 0 1-2.25 2.25h-12.75v-31.5h15v29.25zm-16.5 2.25H24v-46.25h15.501v46.25zM20.772 10.488c-1.491-1.49-2.553-3.219-2.985-4.866-.396-1.506-.216-2.736.513-3.462.474-.477 1.152-.72 2.013-.72 1.932 0 4.353 1.224 6.315 3.19 1.899 1.901 2.682 4.652 2.322 8.18-3.513.354-6.273-.417-8.178-2.322zM36.843 4.63c2.844-2.844 6.789-4.005 8.328-2.469.729.726.909 1.956.516 3.462-.435 1.647-1.494 3.375-2.985 4.866-1.623 1.62-3.765 2.41-6.558 2.41-.522 0-1.065-.03-1.626-.088-.36-3.573.402-6.255 2.325-8.18zM22.5 28.485H3.75a2.255 2.255 0 0 1-2.25-2.25v-8.75a2.255 2.255 0 0 1 2.25-2.25H22.5v13.25zm0 33H9.75a2.255 2.255 0 0 1-2.25-2.25v-29.25h15v31.5zm37.251-47.75H40.23c1.35-.475 2.541-1.192 3.534-2.188 1.674-1.674 2.874-3.645 3.372-5.544.54-2.043.216-3.786-.906-4.905-2.163-2.166-6.957-1.017-10.446 2.47-2.346 2.348-3.249 5.72-2.688 10.016l.021.15h-2.766l.021-.147c.567-4.296-.333-7.665-2.685-10.02C24.21.084 19.41-1.073 17.238 1.098c-2.235 2.235-1.152 6.825 2.472 10.45.993.995 2.181 1.712 3.531 2.186H3.75A3.755 3.755 0 0 0 0 17.484v8.751a3.755 3.755 0 0 0 3.75 3.75H6v29.25a3.755 3.755 0 0 0 3.75 3.75h44.001a3.755 3.755 0 0 0 3.75-3.75v-29.25h2.25a3.755 3.755 0 0 0 3.75-3.75v-8.75a3.755 3.755 0 0 0-3.75-3.75z" id="Fill-1" fill="#FFF" mask="url(#mask-2)"/></g></g></g></g></g></g></svg>