<svg width="44" height="43" xmlns="http://www.w3.org/2000/svg"><g id="_HOME" stroke="none" stroke-width="1" fill="none" fill-rule="evenodd"><g id="Home.Mobile-Aprobado" transform="translate(-22 -625)" fill="#72933A"><g id="explicacion" transform="translate(-1 575)"><g id="1" transform="translate(21 48)"><g id="icono-regalo-2-color"><path d="M43.334 19.982c0 .55-.45 1-1 1h-12v-7.834h12c.55 0 1 .45 1 1v5.834zm-4 22c0 .55-.45 1-1 1H30.15c.112-.314.184-.648.184-1v-19h9v19zm-11-21v21c0 .55-.45 1-1 1H20c-.55 0-1-.45-1-1V13.148h9.334v7.834zM9 42.982c-.55 0-1-.45-1-1v-19h9v19c0 .352.072.686.184 1H9zm-3-22H5c-.55 0-1-.45-1-1v-5.834c0-.55.45-1 1-1h12v7.834H6zm9.052-16.698c.222-.22.554-.332.99-.332 1.162 0 2.638.758 3.856 1.98 1.098 1.098 1.572 2.62 1.44 4.638-1.992.136-3.538-.342-4.636-1.44-1.858-1.858-2.404-4.092-1.65-4.846zm12.364 1.648c1.682-1.684 4.038-2.452 4.844-1.648.35.35.428 1.016.214 1.828-.264.998-.94 2.098-1.858 3.018-.984.982-2.3 1.46-4.02 1.46a9.4 9.4 0 0 1-.622-.02c-.128-2.02.346-3.542 1.442-4.638zm14.918 5.216H31.282c.256-.192.516-.374.748-.604 1.178-1.18 2.022-2.574 2.378-3.924.404-1.54.144-2.872-.734-3.75-1.644-1.644-5.144-.882-7.672 1.648-1.59 1.588-2.222 3.832-1.956 6.63h-.778c.27-2.794-.366-5.04-1.956-6.63-2.524-2.526-6.03-3.292-7.674-1.648-1.688 1.69-.964 5.062 1.65 7.674.23.23.492.412.748.604H5c-1.654 0-3 1.346-3 3v5.834c0 1.654 1.346 3 3 3h1v19c0 1.654 1.346 3 3 3h29.334c1.654 0 3-1.346 3-3v-19h1c1.654 0 3-1.346 3-3v-5.834c0-1.654-1.346-3-3-3z" id="Page-1"/></g></g></g></g></g></svg>