<svg width="68" height="47" xmlns="http://www.w3.org/2000/svg" xmlns:xlink="http://www.w3.org/1999/xlink"><title>icono-novios</title><defs><path id="path-1" d="M0 0h67.787v46.55H0z"/></defs><g id="_HOME" fill="none" fill-rule="evenodd"><g id="Home.Mobile-Aprobado" transform="translate(-124 -5204)"><g id="cifras" transform="translate(0 4927)"><g id="1" transform="translate(44 265)"><g id="icono-novios" transform="translate(80)"><g id="Page-1" transform="translate(0 12)"><mask id="mask-2" fill="#fff"><use xlink:href="#path-1"/></mask><path d="M66.46 43.378c0 1.016-.822 1.84-1.83 1.84H3.157a1.838 1.838 0 0 1-1.831-1.84v-.894c0-1.016.823-1.84 1.831-1.84H64.63c1.009 0 1.831.824 1.831 1.84v.894zm-60.919-4.07h57.127v-4.621H5.54v4.621zm0-5.954h57.127V30.14H5.54v3.214zm0-10.195c1.017 1.197 2.508 1.976 4.196 1.976 2.12 0 3.94-1.216 4.872-2.979.93 1.763 2.755 2.979 4.876 2.979 2.12 0 3.94-1.216 4.872-2.979.929 1.763 2.752 2.979 4.872 2.979s3.941-1.216 4.873-2.979c.929 1.763 2.752 2.979 4.872 2.979 2.118 0 3.944-1.216 4.873-2.979.931 1.763 2.755 2.979 4.872 2.979 2.12 0 3.944-1.216 4.873-2.979.931 1.763 2.754 2.979 4.875 2.979 1.688 0 3.184-.779 4.2-1.979v5.65H5.542V23.16zm0-8.837a1.84 1.84 0 0 1 1.831-1.843h53.465a1.84 1.84 0 0 1 1.83 1.843v5.352c-.055 2.285-1.913 4.128-4.2 4.128-2.322 0-4.212-1.9-4.212-4.23h-1.327c0 2.33-1.89 4.23-4.209 4.23-2.32 0-4.209-1.9-4.209-4.23h-1.327c0 2.33-1.886 4.23-4.209 4.23-2.32 0-4.209-1.9-4.209-4.23h-1.327c0 2.33-1.89 4.23-4.209 4.23s-4.209-1.9-4.209-4.23h-1.326c0 2.33-1.89 4.23-4.21 4.23-2.322 0-4.211-1.9-4.211-4.23h-1.327c0 2.33-1.89 4.23-4.209 4.23-2.274 0-4.127-1.83-4.196-4.102v-5.378zM31.554 3.818c-.645-.683-.645-1.71 0-2.336a.967.967 0 0 1 .698-.283c.467 0 1.11.283 1.696.739a.58.58 0 0 0 .82 0c.462-.456 1.11-.74 1.632-.74.292 0 .526.113.7.284.704.626.704 1.712.06 2.336L34.356 6.55l-2.803-2.733zM64.63 39.31h-.634V19.676c0-.034.01-.066.01-.104h-.01v-5.25c0-1.752-1.417-3.176-3.158-3.176H34.962V7.498l2.959-2.942a2.787 2.787 0 0 0-.059-3.928 2.145 2.145 0 0 0-1.523-.63c-.64 0-1.398.286-2.04.742C33.655.284 32.893 0 32.251 0c-.581 0-1.11.227-1.518.63a2.782 2.782 0 0 0-.058 3.927l2.959 2.942v3.648H7.372c-1.74 0-3.158 1.424-3.158 3.176v5.25h-.013c0 .046.013.086.013.128v19.61H3.158A3.17 3.17 0 0 0 0 42.485v.894a3.17 3.17 0 0 0 3.158 3.173H64.63a3.17 3.17 0 0 0 3.158-3.173v-.894a3.17 3.17 0 0 0-3.158-3.173z" id="Fill-1" fill="#FFF" mask="url(#mask-2)"/></g></g></g></g></g></g></svg>