<svg xmlns="http://www.w3.org/2000/svg" viewBox="0 0 72 72"><path d="M22.2 34.032a44.113 44.113 0 0 0 7.956 10.812A44.113 44.113 0 0 0 40.968 52.8l6.256-6.256a2.63 2.63 0 0 1 1.36-.816 2.318 2.318 0 0 1 1.564.136c2.992 1.043 6.347 1.564 10.064 1.564.77 0 1.428.272 1.972.816.544.544.816 1.201.816 1.972v9.996c0 .77-.272 1.428-.816 1.972a2.687 2.687 0 0 1-1.972.816c-6.528 0-12.784-1.27-18.768-3.808a48.02 48.02 0 0 1-15.3-10.336 48.02 48.02 0 0 1-10.336-15.3C13.269 27.572 12 21.316 12 14.788c0-.77.272-1.428.816-1.972A2.687 2.687 0 0 1 14.788 12h9.996c.77 0 1.428.272 1.972.816.544.544.816 1.201.816 1.972 0 3.717.521 7.072 1.564 10.064.136.499.159 1.02.068 1.564-.09.544-.34.997-.748 1.36L22.2 34.032z"/></svg>