<svg xmlns="http://www.w3.org/2000/svg" viewBox="0 0 24 24"><path fill-rule="evenodd" d="M20.59 6.696a7.75 7.75 0 0 1-1.81 1.864c.011.157.011.313.011.469 0 4.766-3.627 10.257-10.256 10.257-2.043 0-3.94-.592-5.536-1.619.29.034.57.045.87.045a7.22 7.22 0 0 0 4.476-1.54 3.611 3.611 0 0 1-3.37-2.5c.223.033.446.056.68.056.324 0 .648-.045.949-.123a3.605 3.605 0 0 1-2.89-3.538v-.045a3.63 3.63 0 0 0 1.629.458 3.602 3.602 0 0 1-1.607-3.002c0-.67.178-1.284.49-1.82a10.247 10.247 0 0 0 7.434 3.773 4.069 4.069 0 0 1-.09-.826A3.603 3.603 0 0 1 15.176 5c1.038 0 1.976.435 2.634 1.138a7.097 7.097 0 0 0 2.288-.87 3.595 3.595 0 0 1-1.585 1.986 7.227 7.227 0 0 0 2.076-.558z"/></svg>