<svg xmlns="http://www.w3.org/2000/svg" viewBox="0 0 72 72"><path d="M66 35.227c0 16.142-13.186 29.228-29.455 29.228a29.504 29.504 0 0 1-14.238-3.637L6 66l5.317-15.681A28.92 28.92 0 0 1 7.09 35.227C7.09 19.085 20.277 6 36.545 6 52.815 6 66 19.085 66 35.227zM36.545 10.655c-13.656 0-24.764 11.023-24.764 24.572A24.314 24.314 0 0 0 16.5 49.634l-3.094 9.126 9.516-3.025A24.748 24.748 0 0 0 36.546 59.8C50.2 59.8 61.31 48.778 61.31 35.229c0-13.55-11.11-24.574-24.765-24.574zM51.42 41.959c-.182-.298-.662-.478-1.384-.836-.722-.358-4.273-2.092-4.933-2.33-.662-.239-1.145-.359-1.625.358-.481.717-1.865 2.33-2.287 2.808-.421.479-.842.539-1.565.18-.721-.358-3.047-1.115-5.805-3.555-2.146-1.899-3.595-4.243-4.017-4.96-.42-.717-.044-1.105.317-1.461.325-.322.723-.837 1.083-1.255.362-.419.482-.717.722-1.195.242-.478.121-.896-.06-1.256-.18-.358-1.626-3.883-2.227-5.318-.601-1.433-1.202-1.194-1.624-1.194-.42 0-.903-.06-1.384-.06-.481 0-1.264.179-1.926.896-.661.717-2.526 2.45-2.526 5.975 0 3.525 2.586 6.931 2.948 7.409.36.477 4.993 7.946 12.333 10.815 7.341 2.867 7.341 1.91 8.665 1.79 1.323-.119 4.27-1.732 4.875-3.404.6-1.675.6-3.109.42-3.407z"/></svg>