<svg xmlns="http://www.w3.org/2000/svg" xmlns:xlink="http://www.w3.org/1999/xlink" viewBox="0 0 24 24">
  <path fill="#000" d="M21.6014031,2 C21.7836957,2 21.900882,2.07161387 21.9529656,2.21484375 C22.0050492,2.35807363 21.9790078,2.55338418 21.8748406,2.80078125 L13.8865593,21.4335938 C13.8214549,21.6158863 13.7335651,21.7493485 13.6228875,21.8339844 C13.5122098,21.9186202 13.3982787,21.9609375 13.2810906,21.9609375 C13.1769234,21.9609375 13.0727578,21.9251306 12.9685906,21.8535156 C12.8644234,21.7819007 12.7667681,21.6744799 12.6756218,21.53125 L9.51155934,16.3554688 C9.32926676,16.0429672 9.05908717,15.7076841 8.70101247,15.3496094 C8.34293776,14.9915347 8.00765466,14.7148447 7.69515309,14.5195313 L2.42171559,11.2382812 C2.12223493,11.0429678 1.98226237,10.824871 2.00179372,10.5839844 C2.02132507,10.3430978 2.19384938,10.1510424 2.51937184,10.0078125 L21.1717156,2.09765625 C21.249841,2.07161445 21.32471,2.04882822 21.396325,2.02929688 C21.4679399,2.00976553 21.5362986,2 21.6014031,2 Z M8.35921559,13.40625 C8.48942458,13.4843754 8.62288678,13.5787755 8.75960622,13.6894531 C8.89632565,13.8001308 9.03629821,13.9205723 9.17952809,14.0507812 L18.4178093,4.65625 L4.08187184,10.75 L8.35921559,13.40625 Z M13.1834343,19.8710938 L19.3162468,5.515625 L10.0584343,14.9296875 C10.1756224,15.0598965 10.2830432,15.1901035 10.3807,15.3203125 C10.4783567,15.4505215 10.5597361,15.5807285 10.6248406,15.7109375 L13.1834343,19.8710938 Z"/>
</svg>
