<?xml version="1.0" encoding="UTF-8"?>
<svg width="47px" height="35px" viewBox="0 0 47 35" version="1.1" xmlns="http://www.w3.org/2000/svg" xmlns:xlink="http://www.w3.org/1999/xlink">
    <!-- Generator: Sketch 50.2 (55047) - http://www.bohemiancoding.com/sketch -->
    <title>icono-camion color</title>
    <desc>Created with Sketch.</desc>
    <defs>
        <polygon id="path-1" points="1.8666 1.1368 30.42 1.1368 30.42 31.3048 1.8666 31.3048"></polygon>
    </defs>
    <g id="_HOME" stroke="none" stroke-width="1" fill="none" fill-rule="evenodd">
        <g id="Home.Mobile-Aprobado" transform="translate(-20.000000, -852.000000)">
            <g id="3" transform="translate(20.000000, 844.000000)">
                <g id="icono-camion-color">
                    <g id="Page-1" transform="translate(0.000000, 6.000000)">
                        <path d="M11.4472,34.8632 C9.4092,34.8632 7.7512,33.2072 7.7512,31.1692 C7.7512,29.1312 9.4092,27.4712 11.4472,27.4712 C13.4852,27.4712 15.1432,29.1312 15.1432,31.1692 C15.1432,33.2072 13.4852,34.8632 11.4472,34.8632 M11.4472,25.4712 C8.3072,25.4712 5.7512,28.0272 5.7512,31.1692 C5.7512,34.3092 8.3072,36.8632 11.4472,36.8632 C14.5872,36.8632 17.1432,34.3092 17.1432,31.1692 C17.1432,28.0272 14.5872,25.4712 11.4472,25.4712" id="Fill-1" fill="#72933A"></path>
                        <path d="M33.625,34.8632 C31.587,34.8632 29.931,33.2072 29.931,31.1692 C29.931,29.1312 31.587,27.4712 33.625,27.4712 C35.665,27.4712 37.323,29.1312 37.323,31.1692 C37.323,33.2072 35.665,34.8632 33.625,34.8632 M33.625,25.4712 C30.487,25.4712 27.931,28.0272 27.931,31.1692 C27.931,34.3092 30.487,36.8632 33.625,36.8632 C36.765,36.8632 39.323,34.3092 39.323,31.1692 C39.323,28.0272 36.765,25.4712 33.625,25.4712" id="Fill-5" fill="#72933A"></path>
                        <g id="Group-11" transform="translate(16.000000, 0.863200)">
                            <mask id="mask-2" fill="white">
                                <use xlink:href="#path-1"></use>
                            </mask>
                            <g id="Clip-10"></g>
                            <path d="M27.4766,1.1368 L4.8086,1.1368 C3.1866,1.1368 1.8666,2.4568 1.8666,4.0808 L1.8666,28.2028 C1.8666,29.8268 3.1866,31.1468 4.8086,31.1468 L11.2286,31.1468 L11.2286,29.1468 L4.8086,29.1468 C4.2886,29.1468 3.8666,28.7228 3.8666,28.2028 L3.8666,4.0808 C3.8666,3.5608 4.2886,3.1368 4.8086,3.1368 L27.4766,3.1368 C27.9966,3.1368 28.4206,3.5608 28.4206,4.0808 L28.4206,28.3608 C28.4206,28.5828 28.3666,29.3048 27.7006,29.3048 L23.8566,29.3048 L23.8566,31.3048 L27.7006,31.3048 C29.2766,31.3048 30.4206,30.0668 30.4206,28.3608 L30.4206,4.0808 C30.4206,2.4568 29.1006,1.1368 27.4766,1.1368" id="Fill-9" fill="#72933A" mask="url(#mask-2)"></path>
                        </g>
                        <path d="M2,29.0664 L2,21.6164 C2,20.1384 3.334,19.0664 3.84,18.7104 L16.968,18.7104 L16.968,16.7104 L4.7,16.7104 L5.884,8.8284 C5.884,8.3084 6.308,7.8844 6.828,7.8844 L16.968,7.8844 L16.968,5.8844 L6.828,5.8844 C5.206,5.8844 3.884,7.2044 3.896,8.6784 L2.616,17.1264 C1.78,17.7324 0,19.2964 0,21.6164 L0,29.0664 C0,30.6904 1.32,32.0104 2.944,32.0104 L5.008,32.0104 L5.008,30.0104 L2.944,30.0104 C2.424,30.0104 2,29.5864 2,29.0664" id="Fill-12" fill="#72933A"></path>
                    </g>
                </g>
            </g>
        </g>
    </g>
</svg>