<svg xmlns="http://www.w3.org/2000/svg" xmlns:xlink="http://www.w3.org/1999/xlink" viewBox="0 0 24 24">
  <path fill="#000" d="M17.75,9.5 C18.4401076,9.5 19.0292944,9.74413818 19.5175781,10.2324219 C20.0058618,10.7207056 20.25,11.3098924 20.25,12 L20.25,19.5 C20.25,20.1901076 20.0058618,20.7792944 19.5175781,21.2675781 C19.0292944,21.7558618 18.4401076,22 17.75,22 L6.5,22 C5.80989238,22 5.22070557,21.7558618 4.73242188,21.2675781 C4.24413818,20.7792944 4,20.1901076 4,19.5 L4,12 C4,11.3098924 4.24413818,10.7207056 4.73242188,10.2324219 C5.22070557,9.74413818 5.80989238,9.5 6.5,9.5 L7.125,9.5 L7.125,7.1171875 C7.125,6.41405898 7.2454415,5.75000312 7.48632812,5.125 C7.72721475,4.49999688 8.06575303,3.95638252 8.50195312,3.49414062 C8.93815322,3.03189873 9.46223652,2.66731904 10.0742188,2.40039062 C10.686201,2.13346221 11.3632775,2 12.1054688,2 C12.8346391,2 13.5084604,2.13346221 14.1269531,2.40039062 C14.7454458,2.66731904 15.2760395,3.02864355 15.71875,3.484375 C16.1614605,3.94010645 16.5065092,4.48046563 16.7539062,5.10546875 C17.0013033,5.73047187 17.125,6.40103809 17.125,7.1171875 L17.125,9.5 L17.75,9.5 Z M8.375,7.1171875 L8.375,9.5 L15.875,9.5 L15.875,7.1171875 C15.875,6.03645293 15.5266962,5.12174854 14.8300781,4.37304688 C14.1334601,3.62434521 13.225266,3.25 12.1054688,3.25 C10.9726506,3.25 10.0677117,3.62760039 9.390625,4.3828125 C8.71353828,5.13802461 8.375,6.04947383 8.375,7.1171875 Z M19,19.5 L19,12 C19,11.6614566 18.8763033,11.3684908 18.6289062,11.1210938 C18.3815092,10.8736967 18.0885434,10.75 17.75,10.75 L6.5,10.75 C6.16145664,10.75 5.86849082,10.8736967 5.62109375,11.1210938 C5.37369668,11.3684908 5.25,11.6614566 5.25,12 L5.25,19.5 C5.25,19.8385434 5.37369668,20.1315092 5.62109375,20.3789062 C5.86849082,20.6263033 6.16145664,20.75 6.5,20.75 L17.75,20.75 C18.0885434,20.75 18.3815092,20.6263033 18.6289062,20.3789062 C18.8763033,20.1315092 19,19.8385434 19,19.5 Z M12.125,13.25 C12.4765643,13.25 12.7727853,13.3704415 13.0136719,13.6113281 C13.2545585,13.8522147 13.375,14.1484357 13.375,14.5 C13.375,14.7343762 13.3164068,14.9459626 13.1992188,15.1347656 C13.0820307,15.3235687 12.9322926,15.4700516 12.75,15.5742188 L12.75,17.625 C12.75,17.7942717 12.6881517,17.9407546 12.5644531,18.0644531 C12.4407546,18.1881517 12.2942717,18.25 12.125,18.25 C11.9557283,18.25 11.8092454,18.1881517 11.6855469,18.0644531 C11.5618483,17.9407546 11.5,17.7942717 11.5,17.625 L11.5,15.5742188 C11.3177074,15.4700516 11.1679693,15.3235687 11.0507812,15.1347656 C10.9335932,14.9459626 10.875,14.7343762 10.875,14.5 C10.875,14.1484357 10.9954415,13.8522147 11.2363281,13.6113281 C11.4772147,13.3704415 11.7734357,13.25 12.125,13.25 Z"/>
</svg>
