<svg xmlns="http://www.w3.org/2000/svg" xmlns:xlink="http://www.w3.org/1999/xlink" viewBox="0 0 72 72">
  <path fill="#000" d="M20.90625,53.25 C18.4062375,53.25 16.2968836,52.4492268 14.578125,50.8476562 C12.8593664,49.2460857 12,47.2734492 12,44.9296875 L12,20.4375 C12,18.0937383 12.8593664,16.1015707 14.578125,14.4609375 C16.2968836,12.8203043 18.4062375,12 20.90625,12 L51.84375,12 C54.3437625,12 56.4531164,12.8203043 58.171875,14.4609375 C59.8906336,16.1015707 60.75,18.0937383 60.75,20.4375 L60.75,44.9296875 C60.75,47.2734492 59.8906336,49.2460857 58.171875,50.8476562 C56.4531164,52.4492268 54.3437625,53.25 51.84375,53.25 L51.375,53.25 L51.375,60.75 C45.2030941,56.5312289 41.8437527,54.2265645 41.296875,53.8359375 C40.7499973,53.4453105 39.929693,53.25 38.8359375,53.25 L20.90625,53.25 Z M47.625,28.875 C46.5312445,28.875 45.632816,29.226559 44.9296875,29.9296875 C44.226559,30.632816 43.875,31.5312445 43.875,32.625 C43.875,33.7187555 44.226559,34.617184 44.9296875,35.3203125 C45.632816,36.023441 46.5312445,36.375 47.625,36.375 C48.7187555,36.375 49.617184,36.023441 50.3203125,35.3203125 C51.023441,34.617184 51.375,33.7187555 51.375,32.625 C51.375,31.5312445 51.023441,30.632816 50.3203125,29.9296875 C49.617184,29.226559 48.7187555,28.875 47.625,28.875 Z M36.375,28.875 C35.2812445,28.875 34.382816,29.226559 33.6796875,29.9296875 C32.976559,30.632816 32.625,31.5312445 32.625,32.625 C32.625,33.7187555 32.976559,34.617184 33.6796875,35.3203125 C34.382816,36.023441 35.2812445,36.375 36.375,36.375 C37.4687555,36.375 38.367184,36.023441 39.0703125,35.3203125 C39.773441,34.617184 40.125,33.7187555 40.125,32.625 C40.125,31.5312445 39.773441,30.632816 39.0703125,29.9296875 C38.367184,29.226559 37.4687555,28.875 36.375,28.875 Z M25.125,28.875 C24.0312445,28.875 23.132816,29.226559 22.4296875,29.9296875 C21.726559,30.632816 21.375,31.5312445 21.375,32.625 C21.375,33.7187555 21.726559,34.617184 22.4296875,35.3203125 C23.132816,36.023441 24.0312445,36.375 25.125,36.375 C26.2187555,36.375 27.117184,36.023441 27.8203125,35.3203125 C28.523441,34.617184 28.875,33.7187555 28.875,32.625 C28.875,31.5312445 28.523441,30.632816 27.8203125,29.9296875 C27.117184,29.226559 26.2187555,28.875 25.125,28.875 Z"/>
</svg>
