<svg xmlns="http://www.w3.org/2000/svg" xmlns:xlink="http://www.w3.org/1999/xlink" viewBox="0 072 72">
  <path fill="#000" d="M56.4609375,15 C57.7890691,15 58.9609324,15.5078074 59.9765625,16.5234375 C60.9921926,17.5390676 61.5,18.7109309 61.5,20.0390625 L61.5,51.2109375 C61.5,52.5390691 60.9921926,53.7109324 59.9765625,54.7265625 C58.9609324,55.7421926 57.7890691,56.25 56.4609375,56.25 L14.0390625,56.25 C12.7109309,56.25 11.5390676,55.7421926 10.5234375,54.7265625 C9.50780742,53.7109324 9,52.5390691 9,51.2109375 L9,20.0390625 C9,18.7109309 9.50780742,17.5390676 10.5234375,16.5234375 C11.5390676,15.5078074 12.7109309,15 14.0390625,15 L56.4609375,15 Z M55.875,25.6640625 L55.875,20.625 L35.25,34.3359375 L14.625,20.625 L14.625,25.6640625 L35.25,39.375 L55.875,25.6640625 Z"/>
</svg>
