<svg xmlns="http://www.w3.org/2000/svg" viewBox="0 0 24 24">
  <path d="M2.28571429,0.571428571 C2.28571429,0.255837286 2.54155157,0 2.85714286,0 C3.17273414,0 3.42857143,0.255837286 3.42857143,0.571428571 L3.42857143,3.61904762 C3.42857143,3.9346389 3.17273414,4.19047619 2.85714286,4.19047619 C2.54155157,4.19047619 2.28571429,3.9346389 2.28571429,3.61904762 L2.28571429,0.571428571 Z M6.28571429,24 C5.970123,24 5.71428571,23.7441627 5.71428571,23.4285714 C5.71428571,23.1129801 5.970123,22.8571429 6.28571429,22.8571429 L21.9047619,22.8571429 C22.4307474,22.8571429 22.8571429,22.4307474 22.8571429,21.9047619 L22.8571429,8.19047619 C22.8571429,7.66449071 22.4307474,7.23809524 21.9047619,7.23809524 L7.42857143,7.23809524 C7.11298014,7.23809524 6.85714286,6.98225795 6.85714286,6.66666667 C6.85714286,6.35107538 7.11298014,6.0952381 7.42857143,6.0952381 L21.9047619,6.0952381 C23.06193,6.0952381 24,7.03330814 24,8.19047619 L24,21.9047619 C24,23.06193 23.06193,24 21.9047619,24 L6.28571429,24 Z M12,4.19047619 C11.6844087,4.19047619 11.4285714,3.9346389 11.4285714,3.61904762 C11.4285714,3.30345633 11.6844087,3.04761905 12,3.04761905 L19.6190476,3.04761905 C19.9346389,3.04761905 20.1904762,3.30345633 20.1904762,3.61904762 C20.1904762,3.9346389 19.9346389,4.19047619 19.6190476,4.19047619 L12,4.19047619 Z M10.2857143,1.14285714 L10.2857143,6.66666667 C10.2857143,6.98225795 10.029877,7.23809524 9.71428571,7.23809524 C9.39869443,7.23809524 9.14285714,6.98225795 9.14285714,6.66666667 L9.14285714,0 L19.8557411,0 L22.4761905,2.62044939 L22.4761905,6.66666667 C22.4761905,6.98225795 22.2203532,7.23809524 21.9047619,7.23809524 C21.5891706,7.23809524 21.3333333,6.98225795 21.3333333,6.66666667 L21.3333333,3.09383632 L19.3823542,1.14285714 L10.2857143,1.14285714 Z M2.0952381,4.19047619 C1.56925262,4.19047619 1.14285714,4.61687167 1.14285714,5.14285714 L1.14285714,21.9047619 C1.14285714,22.4307474 1.56925262,22.8571429 2.0952381,22.8571429 L5.9047619,22.8571429 C6.43074738,22.8571429 6.85714286,22.4307474 6.85714286,21.9047619 L6.85714286,5.14285714 C6.85714286,4.61687167 6.43074738,4.19047619 5.9047619,4.19047619 L2.0952381,4.19047619 Z M2.0952381,3.04761905 L5.9047619,3.04761905 C7.06192995,3.04761905 8,3.9856891 8,5.14285714 L8,21.9047619 C8,23.06193 7.06192995,24 5.9047619,24 L2.0952381,24 C0.938070048,24 3.72189052e-15,23.06193 3.55271368e-15,21.9047619 L3.55271368e-15,5.14285714 C3.38353684e-15,3.9856891 0.938070048,3.04761905 2.0952381,3.04761905 Z M11.8095238,9.52380952 L11.8095238,11.4285714 L19.047619,11.4285714 L19.047619,9.52380952 L11.8095238,9.52380952 Z M20.1904762,8.38095238 L20.1904762,12.5714286 L10.6666667,12.5714286 L10.6666667,8.38095238 L20.1904762,8.38095238 Z M12.3809524,15.6190476 C11.8549669,15.6190476 11.4285714,15.1926521 11.4285714,14.6666667 C11.4285714,14.1406812 11.8549669,13.7142857 12.3809524,13.7142857 C12.9069379,13.7142857 13.3333333,14.1406812 13.3333333,14.6666667 C13.3333333,15.1926521 12.9069379,15.6190476 12.3809524,15.6190476 Z M12.3809524,14.4761905 C12.2757553,14.4761905 12.1904762,14.5614696 12.1904762,14.6666667 C12.1904762,14.7718638 12.2757553,14.8571429 12.3809524,14.8571429 C12.4861495,14.8571429 12.5714286,14.7718638 12.5714286,14.6666667 C12.5714286,14.5614696 12.4861495,14.4761905 12.3809524,14.4761905 Z M15.4285714,15.6190476 C14.902586,15.6190476 14.4761905,15.1926521 14.4761905,14.6666667 C14.4761905,14.1406812 14.902586,13.7142857 15.4285714,13.7142857 C15.9545569,13.7142857 16.3809524,14.1406812 16.3809524,14.6666667 C16.3809524,15.1926521 15.9545569,15.6190476 15.4285714,15.6190476 Z M15.4285714,14.4761905 C15.3233743,14.4761905 15.2380952,14.5614696 15.2380952,14.6666667 C15.2380952,14.7718638 15.3233743,14.8571429 15.4285714,14.8571429 C15.5337685,14.8571429 15.6190476,14.7718638 15.6190476,14.6666667 C15.6190476,14.5614696 15.5337685,14.4761905 15.4285714,14.4761905 Z M18.4761905,15.6190476 C17.950205,15.6190476 17.5238095,15.1926521 17.5238095,14.6666667 C17.5238095,14.1406812 17.950205,13.7142857 18.4761905,13.7142857 C19.002176,13.7142857 19.4285714,14.1406812 19.4285714,14.6666667 C19.4285714,15.1926521 19.002176,15.6190476 18.4761905,15.6190476 Z M18.4761905,14.4761905 C18.3709934,14.4761905 18.2857143,14.5614696 18.2857143,14.6666667 C18.2857143,14.7718638 18.3709934,14.8571429 18.4761905,14.8571429 C18.5813876,14.8571429 18.6666667,14.7718638 18.6666667,14.6666667 C18.6666667,14.5614696 18.5813876,14.4761905 18.4761905,14.4761905 Z M12.3809524,18.6666667 C11.8549669,18.6666667 11.4285714,18.2402712 11.4285714,17.7142857 C11.4285714,17.1883002 11.8549669,16.7619048 12.3809524,16.7619048 C12.9069379,16.7619048 13.3333333,17.1883002 13.3333333,17.7142857 C13.3333333,18.2402712 12.9069379,18.6666667 12.3809524,18.6666667 Z M12.3809524,17.5238095 C12.2757553,17.5238095 12.1904762,17.6090886 12.1904762,17.7142857 C12.1904762,17.8194828 12.2757553,17.9047619 12.3809524,17.9047619 C12.4861495,17.9047619 12.5714286,17.8194828 12.5714286,17.7142857 C12.5714286,17.6090886 12.4861495,17.5238095 12.3809524,17.5238095 Z M15.4285714,18.6666667 C14.902586,18.6666667 14.4761905,18.2402712 14.4761905,17.7142857 C14.4761905,17.1883002 14.902586,16.7619048 15.4285714,16.7619048 C15.9545569,16.7619048 16.3809524,17.1883002 16.3809524,17.7142857 C16.3809524,18.2402712 15.9545569,18.6666667 15.4285714,18.6666667 Z M15.4285714,17.5238095 C15.3233743,17.5238095 15.2380952,17.6090886 15.2380952,17.7142857 C15.2380952,17.8194828 15.3233743,17.9047619 15.4285714,17.9047619 C15.5337685,17.9047619 15.6190476,17.8194828 15.6190476,17.7142857 C15.6190476,17.6090886 15.5337685,17.5238095 15.4285714,17.5238095 Z M18.4761905,18.6666667 C17.950205,18.6666667 17.5238095,18.2402712 17.5238095,17.7142857 C17.5238095,17.1883002 17.950205,16.7619048 18.4761905,16.7619048 C19.002176,16.7619048 19.4285714,17.1883002 19.4285714,17.7142857 C19.4285714,18.2402712 19.002176,18.6666667 18.4761905,18.6666667 Z M18.4761905,17.5238095 C18.3709934,17.5238095 18.2857143,17.6090886 18.2857143,17.7142857 C18.2857143,17.8194828 18.3709934,17.9047619 18.4761905,17.9047619 C18.5813876,17.9047619 18.6666667,17.8194828 18.6666667,17.7142857 C18.6666667,17.6090886 18.5813876,17.5238095 18.4761905,17.5238095 Z M12.3809524,21.7142857 C11.8549669,21.7142857 11.4285714,21.2878902 11.4285714,20.7619048 C11.4285714,20.2359193 11.8549669,19.8095238 12.3809524,19.8095238 C12.9069379,19.8095238 13.3333333,20.2359193 13.3333333,20.7619048 C13.3333333,21.2878902 12.9069379,21.7142857 12.3809524,21.7142857 Z M12.3809524,20.5714286 C12.2757553,20.5714286 12.1904762,20.6567077 12.1904762,20.7619048 C12.1904762,20.8671019 12.2757553,20.952381 12.3809524,20.952381 C12.4861495,20.952381 12.5714286,20.8671019 12.5714286,20.7619048 C12.5714286,20.6567077 12.4861495,20.5714286 12.3809524,20.5714286 Z M15.4285714,21.7142857 C14.902586,21.7142857 14.4761905,21.2878902 14.4761905,20.7619048 C14.4761905,20.2359193 14.902586,19.8095238 15.4285714,19.8095238 C15.9545569,19.8095238 16.3809524,20.2359193 16.3809524,20.7619048 C16.3809524,21.2878902 15.9545569,21.7142857 15.4285714,21.7142857 Z M15.4285714,20.5714286 C15.3233743,20.5714286 15.2380952,20.6567077 15.2380952,20.7619048 C15.2380952,20.8671019 15.3233743,20.952381 15.4285714,20.952381 C15.5337685,20.952381 15.6190476,20.8671019 15.6190476,20.7619048 C15.6190476,20.6567077 15.5337685,20.5714286 15.4285714,20.5714286 Z M18.4761905,21.7142857 C17.950205,21.7142857 17.5238095,21.2878902 17.5238095,20.7619048 C17.5238095,20.2359193 17.950205,19.8095238 18.4761905,19.8095238 C19.002176,19.8095238 19.4285714,20.2359193 19.4285714,20.7619048 C19.4285714,21.2878902 19.002176,21.7142857 18.4761905,21.7142857 Z M18.4761905,20.5714286 C18.3709934,20.5714286 18.2857143,20.6567077 18.2857143,20.7619048 C18.2857143,20.8671019 18.3709934,20.952381 18.4761905,20.952381 C18.5813876,20.952381 18.6666667,20.8671019 18.6666667,20.7619048 C18.6666667,20.6567077 18.5813876,20.5714286 18.4761905,20.5714286 Z"/>
</svg>
