<?xml version="1.0" encoding="UTF-8"?>
<svg width="43px" height="41px" viewBox="0 0 43 41" version="1.1" xmlns="http://www.w3.org/2000/svg" xmlns:xlink="http://www.w3.org/1999/xlink">
    <!-- Generator: Sketch 50.2 (55047) - http://www.bohemiancoding.com/sketch -->
    <title>icono-tarjeta color</title>
    <desc>Created with Sketch.</desc>
    <defs></defs>
    <g id="_HOME" stroke="none" stroke-width="1" fill="none" fill-rule="evenodd">
        <g id="Home.Mobile-Aprobado" transform="translate(-22.000000, -737.000000)" fill="#72933A">
            <g id="explicacion" transform="translate(-1.000000, 575.000000)">
                <g id="2" transform="translate(21.000000, 158.000000)">
                    <g id="icono-tarjeta-color">
                        <g id="Page-1" transform="translate(2.000000, 4.000000)">
                            <path d="M21.1914,11.1492 L-0.0006,5.3132 L-0.0006,34.7132 L20.1914,40.2712 L21.1914,40.5472 L22.1914,40.2712 L42.3834,34.7132 L42.3834,5.3132 L21.1914,11.1492 Z M22.1914,12.9472 L40.3834,7.9392 L40.3834,33.1912 L22.1914,38.1972 L22.1914,12.9472 Z M1.9994,33.1912 L1.9994,7.9392 L20.1914,12.9472 L20.1914,38.1972 L1.9994,33.1912 Z" id="Fill-1"></path>
                            <polygon id="Fill-2" points="42.3828 -3.55271368e-15 21.1908 5.834 0.0008 -3.55271368e-15 0.0008 2.078 21.1908 7.922 21.1908 7.94 42.3828 2.1"></polygon>
                        </g>
                    </g>
                </g>
            </g>
        </g>
    </g>
</svg>