<svg xmlns="http://www.w3.org/2000/svg" viewBox="0 0 24 24">
  <path d="M12.3225806,24 L11.1612903,24 C11.1612903,21.2500367 10.2709108,19.3813446 7.80343197,15.9374444 C7.75230131,15.8660805 7.56445626,15.6041882 7.52332287,15.5467896 C7.41367123,15.3937788 7.32700591,15.2724961 7.24357572,15.1551701 C5.33964953,12.4777211 4.49511442,10.8049921 4.27763802,8.68130738 C4.23094291,8.37590483 4.20294567,8.06793521 4.19365988,7.75331368 C4.13785243,4.90592782 5.68937559,2.26952039 8.20573071,0.935849662 C10.7220858,-0.397821068 13.7748554,-0.201693412 16.0998622,1.44301453 C18.4248689,3.08772248 19.6262731,5.90099395 19.209821,8.69200596 C18.9901884,10.815121 18.1504276,12.4799376 16.2770399,15.1111812 C16.1881389,15.236046 16.0957265,15.3651235 15.9788212,15.5278782 C15.9345684,15.5894865 15.7343473,15.8679509 15.6800693,15.943533 C13.2164917,19.3740667 12.3225806,21.2492125 12.3225806,24 Z M14.7368077,15.2661462 C14.7913389,15.1902115 14.9916078,14.9116807 15.0356308,14.8503923 C15.1516722,14.6888405 15.2432103,14.5609841 15.3310277,14.4376412 C17.0960148,11.9586503 17.861367,10.441348 18.057953,8.54668632 C18.4130922,6.16320983 17.3965195,3.78274936 15.4292061,2.3910734 C13.4618927,0.999397448 10.8787799,0.833443277 8.74955638,1.9619339 C6.62033282,3.09042451 5.30750553,5.3212308 5.3545844,7.72475214 C5.36232793,7.98630071 5.38603988,8.24713212 5.42921763,8.53420544 C5.62413048,10.4313572 6.39458262,11.9573537 8.18998172,14.4821835 C8.27246231,14.5981741 8.35836209,14.7183856 8.46725727,14.8703407 C8.50818952,14.9274587 8.69607923,15.1894133 8.74743295,15.2610885 C10.2403503,17.3447775 11.1976083,18.9069749 11.7421001,20.4395782 C12.2871709,18.9052784 13.2451012,17.3433487 14.7368077,15.2661462 Z M11.7419355,10.6451613 C10.1385281,10.6451613 8.83870968,9.34534282 8.83870968,7.74193548 C8.83870968,6.13852815 10.1385281,4.83870968 11.7419355,4.83870968 C13.3453428,4.83870968 14.6451613,6.13852815 14.6451613,7.74193548 C14.6451613,9.34534282 13.3453428,10.6451613 11.7419355,10.6451613 Z M11.7419355,9.48387097 C12.7039799,9.48387097 13.483871,8.70397989 13.483871,7.74193548 C13.483871,6.77989108 12.7039799,6 11.7419355,6 C10.7798911,6 10,6.77989108 10,7.74193548 C10,8.70397989 10.7798911,9.48387097 11.7419355,9.48387097 Z"/>
</svg>
