<svg xmlns="http://www.w3.org/2000/svg" xmlns:xlink="http://www.w3.org/1999/xlink" viewBox="0 0 24 24">
  <path fill="#000" d="M21.9414062,18.65625 C22.0065107,18.7604172 22.0325521,18.8743483 22.0195312,18.9980469 C22.0065104,19.1217454 21.9609379,19.2356766 21.8828125,19.3398438 C21.817708,19.43099 21.7265631,19.4993487 21.609375,19.5449219 C21.4921869,19.590495 21.3750006,19.5937502 21.2578125,19.5546875 L18.1132812,18.8515625 L17.0390625,21.8398438 C16.9999998,21.9570318 16.9316411,22.0514319 16.8339844,22.1230469 C16.7363276,22.1946618 16.6289068,22.2369791 16.5117187,22.25 L16.453125,22.25 C16.3359369,22.25 16.2285161,22.2207034 16.1308594,22.1621094 C16.0332026,22.1035153 15.9583336,22.0221359 15.90625,21.9179688 L12.6445312,15.9609375 C12.5403641,15.9739584 12.4329433,15.9837239 12.3222656,15.9902344 C12.211588,15.9967448 12.1041672,16 12,16 C11.8828119,16 11.7656256,15.9967448 11.6484375,15.9902344 C11.5312494,15.9837239 11.4140631,15.9739584 11.296875,15.9609375 L8.09375,21.9179688 C8.04166641,22.0221359 7.96679736,22.1035153 7.86914062,22.1621094 C7.77148389,22.2207034 7.66406309,22.25 7.546875,22.25 L7.5078125,22.25 C7.37760352,22.2369791 7.26367236,22.1946618 7.16601562,22.1230469 C7.06835889,22.0514319 7.0000002,21.9570318 6.9609375,21.8398438 L5.88671875,18.8515625 L2.7421875,19.5546875 C2.62499941,19.5937502 2.50781309,19.590495 2.390625,19.5449219 C2.27343691,19.4993487 2.18229199,19.4244797 2.1171875,19.3203125 C2.03906211,19.2291662 1.99348965,19.1217454 1.98046875,18.9980469 C1.96744785,18.8743483 1.99348926,18.7604172 2.05859375,18.65625 L5.73046875,11.9570312 C5.53515527,11.5273416 5.38541719,11.0748722 5.28125,10.5996094 C5.17708281,10.1243466 5.125,9.63281504 5.125,9.125 C5.125,8.17447441 5.30403467,7.28255625 5.66210938,6.44921875 C6.02018408,5.61588125 6.51171562,4.88672187 7.13671875,4.26171875 C7.76172187,3.63671563 8.49088125,3.14518408 9.32421875,2.78710938 C10.1575562,2.42903467 11.0494744,2.25 12,2.25 C12.9505256,2.25 13.8424437,2.42903467 14.6757812,2.78710938 C15.5091187,3.14518408 16.2350229,3.63671563 16.8535156,4.26171875 C17.4720083,4.88672187 17.9635398,5.61588125 18.328125,6.44921875 C18.6927102,7.28255625 18.875,8.17447441 18.875,9.125 C18.875,9.61979414 18.8229172,10.098305 18.71875,10.5605469 C18.6145828,11.0227888 18.4713551,11.4687479 18.2890625,11.8984375 L21.9414062,18.65625 Z M7.6640625,20.0820312 L10.0078125,15.7070312 C9.29166309,15.485676 8.6308624,15.1601584 8.02539063,14.7304688 C7.41991885,14.3007791 6.9023459,13.7929717 6.47265625,13.2070312 L3.81640625,18.03125 L6.140625,17.5039062 C6.29687578,17.4648436 6.44335869,17.4843746 6.58007812,17.5625 C6.71679756,17.6406254 6.81770801,17.7513014 6.8828125,17.8945312 L7.6640625,20.0820312 Z M6.375,9.125 C6.375,9.89323301 6.52148291,10.6191372 6.81445312,11.3027344 C7.10742334,11.9863315 7.51106514,12.5820287 8.02539062,13.0898438 C8.53971611,13.5976588 9.13541328,14.0013006 9.8125,14.3007812 C10.4895867,14.6002619 11.2187461,14.75 12,14.75 C12.768233,14.75 13.4941372,14.6002619 14.1777344,14.3007812 C14.8613315,14.0013006 15.4570287,13.5976588 15.9648438,13.0898438 C16.4726588,12.5820287 16.8730454,11.9863315 17.1660156,11.3027344 C17.4589858,10.6191372 17.6054688,9.89323301 17.6054688,9.125 C17.6054688,8.35676699 17.4589858,7.63086279 17.1660156,6.94726562 C16.8730454,6.26366846 16.4726588,5.66797129 15.9648438,5.16015625 C15.4570287,4.65234121 14.8613315,4.24869941 14.1777344,3.94921875 C13.4941372,3.64973809 12.768233,3.5 12,3.5 C11.2187461,3.5 10.4895867,3.64973809 9.8125,3.94921875 C9.13541328,4.24869941 8.53971611,4.65234121 8.02539062,5.16015625 C7.51106514,5.66797129 7.10742334,6.26366846 6.81445312,6.94726562 C6.52148291,7.63086279 6.375,8.35676699 6.375,9.125 Z M17.859375,17.5039062 L20.1835938,18.03125 L17.546875,13.1679688 C17.1041645,13.7669301 16.5735708,14.2877582 15.9550781,14.7304688 C15.3365854,15.1731793 14.6627641,15.5052072 13.9335938,15.7265625 L16.3359375,20.1015625 L17.1171875,17.8945312 C17.182292,17.7513014 17.2832024,17.6406254 17.4199219,17.5625 C17.5566413,17.4843746 17.7031242,17.4648436 17.859375,17.5039062 Z"/>
</svg>
