<svg xmlns="http://www.w3.org/2000/svg" viewBox="0 0 24 24">
  <path d="M18.6189209,14.6388026 L22.5851911,17.2311449 C23.447948,17.8279668 24.1198771,18.7817426 23.9819781,19.7007188 C23.8867407,20.3353931 23.2875601,21.3923676 22.4786719,22.2100327 C21.3708545,23.3298706 19.9469571,24 18.2677252,24 C14.8758369,24 10.6362204,21.526093 6.57460381,17.4660243 C2.48214911,13.3751291 0,9.14981649 0,5.73923615 C0,4.03493267 0.626395448,2.61062763 1.69073568,1.53446386 C2.50904466,0.707064449 3.56575637,0.137576102 4.3430155,0.0265813968 C5.27522274,-0.106540318 5.92509996,0.267059932 6.47322021,0.996696509 C6.52503564,1.06567123 6.57460902,1.13546792 6.63359428,1.22139821 C6.64934189,1.24433949 6.73946414,1.37690029 6.77143553,1.42341554 L9.36919382,5.39505046 C10.0520797,6.4723932 9.77303,7.89395563 8.73724838,8.6341111 C8.67407004,8.68581793 8.46651336,8.85543128 8.4010201,8.91063351 C7.80327788,9.41445179 7.57536118,9.78280846 7.61751769,10.3254689 C7.68262542,11.1635696 8.42250721,12.3586399 10.0532212,13.9887325 C11.6754093,15.6103024 12.8603494,16.3440354 13.6869488,16.4063196 C14.2199175,16.4464788 14.5803812,16.2203134 15.081321,15.6212128 C15.1358225,15.5560315 15.312056,15.3389219 15.3719467,15.2658015 C16.1124406,14.2306442 17.5344274,13.9518392 18.6189209,14.6388026 Z M17.9996827,15.6004545 C17.4317499,15.2407382 16.6812665,15.3907776 16.295426,15.9411759 C16.235758,16.0161234 16.0259729,16.2747863 15.9591748,16.3546737 C14.3847367,18.237628 12.5472004,18.0991697 9.24420874,14.7974367 C5.92670168,11.4811938 5.78226431,9.62192097 7.66349878,8.0362871 C7.74702792,7.96588299 8.01568363,7.74663386 8.02546109,7.73854524 C8.61250438,7.32509026 8.76260104,6.57489292 8.40717538,6.01405266 L5.82229842,2.06185188 C5.7953707,2.02297111 5.70336482,1.88763967 5.69020898,1.86847411 C5.6396726,1.79485222 5.59890135,1.73744846 5.55833889,1.68345327 C5.2364328,1.25494428 4.95684669,1.09421632 4.50481799,1.15876724 C3.98681661,1.23273924 3.15423267,1.68143952 2.50435779,2.33853374 C1.64516628,3.20726983 1.1441164,4.34656271 1.1441164,5.73923615 C1.1441164,8.77489798 3.48564376,12.760833 7.38361627,16.6573201 C11.2509295,20.5231596 15.2493433,22.8563196 18.2677252,22.8563196 C19.6211645,22.8563196 20.7608959,22.3199273 21.6651525,21.405859 C22.31518,20.7487784 22.7947339,19.9028292 22.8505198,19.5310647 C22.9063374,19.1590892 22.4788974,18.5506816 21.9523974,18.1840066 L17.9996827,15.6004545 Z"/>
</svg>
