<?xml version="1.0" encoding="UTF-8"?>
<svg width="68px" height="66px" viewBox="0 0 68 66" version="1.1" xmlns="http://www.w3.org/2000/svg" xmlns:xlink="http://www.w3.org/1999/xlink">
    <!-- Generator: Sketch 50.2 (55047) - http://www.bohemiancoding.com/sketch -->
    <title>icono-dinero</title>
    <desc>Created with Sketch.</desc>
    <defs>
        <polygon id="path-1" points="1.4997 0.048 22.4997 0.048 22.4997 15.5481 1.4997 15.5481"></polygon>
    </defs>
    <g id="_HOME" stroke="none" stroke-width="1" fill="none" fill-rule="evenodd">
        <g id="Home.Mobile-Aprobado" transform="translate(-127.000000, -5527.000000)">
            <g id="cifras" transform="translate(0.000000, 4927.000000)">
                <g id="3" transform="translate(40.000000, 597.000000)">
                    <g id="icono-dinero" transform="translate(84.000000, 0.000000)">
                        <g id="Page-1" transform="translate(3.000000, 0.000000)">
                            <g id="Group-3" transform="translate(12.000000, 2.953200)">
                                <mask id="mask-2" fill="white">
                                    <use xlink:href="#path-1"></use>
                                </mask>
                                <g id="Clip-2"></g>
                                <path d="M3.8907,14.9091 C3.2997,13.6491 2.9997,12.2961 2.9997,10.8831 C2.9997,5.7351 7.0377,1.5471 11.9997,1.5471 C16.9617,1.5471 20.9997,5.7351 20.9997,10.8831 L22.4997,10.8831 C22.4997,4.9071 17.7897,0.0471 11.9997,0.0471 C6.2097,0.0471 1.4997,4.9071 1.4997,10.8831 C1.4997,12.5181 1.8447,14.0871 2.5317,15.5481 L3.8907,14.9091 Z" id="Fill-1" fill="#FFFFFF" mask="url(#mask-2)"></path>
                            </g>
                            <path d="M66,45.6093 C66,46.5843 65.244,47.3793 64.311,47.3793 L61.872,47.3793 C59.784,47.3793 59.085,48.8853 58.752,49.6083 C57.132,53.1093 54.699,55.7943 51.525,57.5823 C50.793,57.9933 50.325,58.5363 50.142,59.1933 C49.89,60.0903 50.277,60.8373 50.286,60.8373 L50.289,60.8373 L51.063,62.9583 C51.429,63.9513 50.946,65.0643 49.995,65.4423 L45.171,67.3293 C44.262,67.6923 43.173,67.1793 42.813,66.1953 C42.81,66.1863 42.234,64.7913 41.775,63.3693 C41.415,62.2773 40.923,61.6023 39.57,61.6023 C39.177,61.6023 38.673,61.6563 38.013,61.7283 C36.801,61.8603 35.142,62.0463 32.607,62.0463 C29.892,62.0463 28.194,61.6773 27.075,61.4343 C26.475,61.3053 26.004,61.2033 25.584,61.2033 C24.333,61.2033 23.88,62.1573 23.553,63.0513 C23.034,64.4943 22.389,66.2163 22.389,66.2223 C22.044,67.1733 20.967,67.7013 20.037,67.3293 L15.213,65.4423 C14.259,65.0643 13.782,63.9513 14.139,62.9793 C14.139,62.9793 15.024,60.7923 15.516,59.2203 C16.119,57.2793 14.949,56.3493 14.37,55.8903 C11.721,53.6913 7.239,49.0713 6.984,42.7953 C6.684,35.3523 9.06,29.2053 13.677,25.4883 C19.038,21.1713 25.227,19.0713 32.607,19.0713 C35.619,19.0713 38.571,19.4313 41.388,20.1453 C41.733,20.2203 42.111,20.0523 42.258,19.7193 C44.031,15.6813 46.8,13.1103 50.916,11.7123 C49.629,15.4113 48.876,18.1893 48.939,21.9213 C48.945,22.2333 49.143,22.5093 49.437,22.6143 C56.994,25.3443 58.755,31.7943 59.163,34.4433 C59.295,35.2833 60.081,36.2613 61.872,36.2613 L64.311,36.2613 C65.244,36.2613 66,37.0563 66,38.0373 L66,45.6093 Z M64.311,34.7613 L61.872,34.7613 C61.083,34.7613 60.687,34.4853 60.645,34.2123 C60.204,31.3593 58.335,24.4893 50.436,21.3873 C50.445,18.0183 51.174,15.4323 52.818,10.8243 C52.914,10.5633 52.854,10.2723 52.668,10.0653 C52.482,9.8613 52.197,9.7833 51.927,9.8463 C46.839,11.1693 43.311,14.0163 41.148,18.5433 C38.397,17.8983 35.529,17.5713 32.607,17.5713 C24.873,17.5713 18.372,19.7823 12.732,24.3213 C9.918,26.5893 7.905,29.6883 6.711,33.3663 C6.69,33.3573 6.687,33.3363 6.666,33.3303 C6.453,33.2823 1.5,32.0313 1.5,27.3483 C1.5,25.3713 2.481,23.6583 3.999,22.9803 C4.377,22.8093 4.548,22.3683 4.38,21.9903 C4.209,21.6093 3.765,21.4383 3.39,21.6093 C1.329,22.5303 0,24.7803 0,27.3483 C0,33.1263 6.009,34.7103 6.276,34.7793 C5.646,37.2543 5.367,39.9603 5.484,42.8553 C5.763,49.7133 10.572,54.6873 13.518,57.1263 C13.98,57.4953 14.382,57.8133 14.085,58.7733 C13.608,60.2913 12.75,62.4123 12.741,62.4363 C12.093,64.1883 12.957,66.1653 14.667,66.8373 L19.488,68.7243 C21.18,69.3933 23.172,68.4543 23.796,66.7413 C23.796,66.7413 24.438,65.0103 24.96,63.5643 C25.278,62.7033 25.413,62.7033 25.584,62.7033 C25.842,62.7033 26.247,62.7903 26.757,62.9013 C27.939,63.1593 29.73,63.5463 32.607,63.5463 C35.223,63.5463 37.002,63.3483 38.178,63.2193 C38.769,63.1533 39.216,63.1023 39.57,63.1023 C40.026,63.1023 40.107,63.1023 40.347,63.8343 C40.821,65.2983 41.412,66.7383 41.412,66.7383 C41.895,68.0613 43.146,68.9523 44.529,68.9523 C44.937,68.9523 45.336,68.8773 45.717,68.7243 L50.544,66.8373 C52.251,66.1653 53.115,64.1913 52.467,62.4393 L51.651,60.2223 C51.531,59.9913 51.351,59.4003 52.26,58.8903 C55.668,56.9673 58.383,53.9763 60.111,50.2383 C60.48,49.4403 60.822,48.8793 61.872,48.8793 L64.311,48.8793 C66.069,48.8793 67.5,47.4123 67.5,45.6093 L67.5,38.0373 C67.5,36.2313 66.069,34.7613 64.311,34.7613 Z" id="Fill-4" fill="#FFFFFF"></path>
                            <path d="M50.9706,39.249 C49.7976,39.249 48.8466,38.253 48.8466,37.029 C48.8466,35.808 49.7976,34.812 50.9706,34.812 C52.1376,34.812 53.0856,35.808 53.0856,37.029 C53.0856,38.253 52.1376,39.249 50.9706,39.249 M50.9706,33.312 C48.9726,33.312 47.3466,34.977 47.3466,37.029 C47.3466,39.078 48.9726,40.749 50.9706,40.749 C52.9626,40.749 54.5856,39.078 54.5856,37.029 C54.5856,34.977 52.9626,33.312 50.9706,33.312" id="Fill-6" fill="#FFFFFF"></path>
                        </g>
                    </g>
                </g>
            </g>
        </g>
    </g>
</svg>