<?xml version="1.0" encoding="UTF-8"?>
<svg width="64px" height="63px" viewBox="0 0 64 63" version="1.1" xmlns="http://www.w3.org/2000/svg" xmlns:xlink="http://www.w3.org/1999/xlink">
    <!-- Generator: Sketch 50.2 (55047) - http://www.bohemiancoding.com/sketch -->
    <title>icono-regalo</title>
    <desc>Created with Sketch.</desc>
    <defs>
        <polygon id="path-1" points="0 0.0003 63.501 0.0003 63.501 62.9853 0 62.9853"></polygon>
    </defs>
    <g id="_HOME" stroke="none" stroke-width="1" fill="none" fill-rule="evenodd">
        <g id="Home.Mobile-Aprobado" transform="translate(-128.000000, -5373.000000)">
            <g id="cifras" transform="translate(0.000000, 4927.000000)">
                <g id="2" transform="translate(32.000000, 440.000000)">
                    <g id="icono-regalo" transform="translate(93.000000, 0.000000)">
                        <g id="Page-1" transform="translate(3.000000, 6.000000)">
                            <mask id="mask-2" fill="white">
                                <use xlink:href="#path-1"></use>
                            </mask>
                            <g id="Clip-2"></g>
                            <path d="M62.001,26.2353 C62.001,27.4743 60.99,28.4853 59.751,28.4853 L57.501,28.4853 L41.001,28.4853 L41.001,15.2343 L59.751,15.2343 C60.99,15.2343 62.001,16.2453 62.001,17.4843 L62.001,26.2353 Z M56.001,59.2353 C56.001,60.4743 54.99,61.4853 53.751,61.4853 L41.001,61.4853 L41.001,29.9853 L56.001,29.9853 L56.001,59.2353 Z M39.501,61.4853 L24,61.4853 L24,29.9853 L24,28.4853 L24,15.2343 L39.501,15.2343 L39.501,28.4853 L39.501,29.9853 L39.501,61.4853 Z M20.772,10.4883 C19.281,8.9973 18.219,7.2693 17.787,5.6223 C17.391,4.1163 17.571,2.8863 18.3,2.1603 C18.774,1.6833 19.452,1.4403 20.313,1.4403 C22.245,1.4403 24.666,2.6643 26.628,4.6293 C28.527,6.5313 29.31,9.2823 28.95,12.8103 C25.437,13.1643 22.677,12.3933 20.772,10.4883 Z M36.843,4.6293 C39.687,1.7853 43.632,0.6243 45.171,2.1603 C45.9,2.8863 46.08,4.1163 45.687,5.6223 C45.252,7.2693 44.193,8.9973 42.702,10.4883 C41.079,12.1083 38.937,12.8973 36.144,12.8973 C35.622,12.8973 35.079,12.8673 34.518,12.8103 C34.158,9.2373 34.92,6.5553 36.843,4.6293 Z M22.5,28.4853 L6,28.4853 L3.75,28.4853 C2.511,28.4853 1.5,27.4743 1.5,26.2353 L1.5,17.4843 C1.5,16.2453 2.511,15.2343 3.75,15.2343 L22.5,15.2343 L22.5,28.4853 Z M22.5,61.4853 L9.75,61.4853 C8.511,61.4853 7.5,60.4743 7.5,59.2353 L7.5,29.9853 L22.5,29.9853 L22.5,61.4853 Z M59.751,13.7343 L41.001,13.7343 L40.23,13.7343 C41.58,13.2603 42.771,12.5433 43.764,11.5473 C45.438,9.8733 46.638,7.9023 47.136,6.0033 C47.676,3.9603 47.352,2.2173 46.23,1.0983 C44.067,-1.0677 39.273,0.0813 35.784,3.5673 C33.438,5.9163 32.535,9.2883 33.096,13.5843 L33.117,13.7343 L30.351,13.7343 L30.372,13.5873 C30.939,9.2913 30.039,5.9223 27.687,3.5673 C24.21,0.0843 19.41,-1.0737 17.238,1.0983 C15.003,3.3333 16.086,7.9233 19.71,11.5473 C20.703,12.5433 21.891,13.2603 23.241,13.7343 L22.5,13.7343 L3.75,13.7343 C1.683,13.7343 0,15.4173 0,17.4843 L0,26.2353 C0,28.3023 1.683,29.9853 3.75,29.9853 L6,29.9853 L6,59.2353 C6,61.3023 7.683,62.9853 9.75,62.9853 L22.5,62.9853 L24,62.9853 L39.501,62.9853 L41.001,62.9853 L53.751,62.9853 C55.818,62.9853 57.501,61.3023 57.501,59.2353 L57.501,29.9853 L59.751,29.9853 C61.818,29.9853 63.501,28.3023 63.501,26.2353 L63.501,17.4843 C63.501,15.4173 61.818,13.7343 59.751,13.7343 Z" id="Fill-1" fill="#FFFFFF" mask="url(#mask-2)"></path>
                        </g>
                    </g>
                </g>
            </g>
        </g>
    </g>
</svg>