<?xml version="1.0" encoding="UTF-8"?>
<svg width="44px" height="43px" viewBox="0 0 44 43" version="1.1" xmlns="http://www.w3.org/2000/svg" xmlns:xlink="http://www.w3.org/1999/xlink">
    <!-- Generator: Sketch 50.2 (55047) - http://www.bohemiancoding.com/sketch -->
    <title>icono-regalo-2 color</title>
    <desc>Created with Sketch.</desc>
    <defs></defs>
    <g id="_HOME" stroke="none" stroke-width="1" fill="none" fill-rule="evenodd">
        <g id="Home.Mobile-Aprobado" transform="translate(-22.000000, -625.000000)" fill="#72933A">
            <g id="explicacion" transform="translate(-1.000000, 575.000000)">
                <g id="1" transform="translate(21.000000, 48.000000)">
                    <g id="icono-regalo-2-color">
                        <path d="M43.334,19.9824 C43.334,20.5324 42.884,20.9824 42.334,20.9824 L41.334,20.9824 L39.334,20.9824 L30.334,20.9824 L30.334,13.1484 L38.334,13.1484 L41.15,13.1484 L42.334,13.1484 C42.884,13.1484 43.334,13.5984 43.334,14.1484 L43.334,19.9824 Z M39.334,41.9824 C39.334,42.5324 38.884,42.9824 38.334,42.9824 L30.15,42.9824 C30.262,42.6684 30.334,42.3344 30.334,41.9824 L30.334,22.9824 L39.334,22.9824 L39.334,41.9824 Z M28.334,20.9824 L28.334,21.9824 L28.334,22.9824 L28.334,41.9824 C28.334,42.5324 27.884,42.9824 27.334,42.9824 L20,42.9824 C19.45,42.9824 19,42.5324 19,41.9824 L19,22.9824 L19,21.9824 L19,20.9824 L19,13.1484 L28.334,13.1484 L28.334,20.9824 Z M9,42.9824 C8.45,42.9824 8,42.5324 8,41.9824 L8,22.9824 L17,22.9824 L17,41.9824 C17,42.3344 17.072,42.6684 17.184,42.9824 L9,42.9824 Z M6,20.9824 L5,20.9824 C4.45,20.9824 4,20.5324 4,19.9824 L4,14.1484 C4,13.5984 4.45,13.1484 5,13.1484 L6.184,13.1484 L9,13.1484 L17,13.1484 L17,20.9824 L8,20.9824 L6,20.9824 Z M15.052,4.2844 C15.274,4.0644 15.606,3.9524 16.042,3.9524 C17.204,3.9524 18.68,4.7104 19.898,5.9324 C20.996,7.0304 21.47,8.5524 21.338,10.5704 C19.346,10.7064 17.8,10.2284 16.702,9.1304 C14.844,7.2724 14.298,5.0384 15.052,4.2844 Z M27.416,5.9324 C29.098,4.2484 31.454,3.4804 32.26,4.2844 C32.61,4.6344 32.688,5.3004 32.474,6.1124 C32.21,7.1104 31.534,8.2104 30.616,9.1304 C29.632,10.1124 28.316,10.5904 26.596,10.5904 C26.392,10.5904 26.186,10.5844 25.974,10.5704 C25.846,8.5504 26.32,7.0284 27.416,5.9324 Z M42.334,11.1484 L38.334,11.1484 L31.282,11.1484 C31.538,10.9564 31.798,10.7744 32.03,10.5444 C33.208,9.3644 34.052,7.9704 34.408,6.6204 C34.812,5.0804 34.552,3.7484 33.674,2.8704 C32.03,1.2264 28.53,1.9884 26.002,4.5184 C24.412,6.1064 23.78,8.3504 24.046,11.1484 L23.268,11.1484 C23.538,8.3544 22.902,6.1084 21.312,4.5184 C18.788,1.9924 15.282,1.2264 13.638,2.8704 C11.95,4.5604 12.674,7.9324 15.288,10.5444 C15.518,10.7744 15.78,10.9564 16.036,11.1484 L9,11.1484 L5,11.1484 C3.346,11.1484 2,12.4944 2,14.1484 L2,19.9824 C2,21.6364 3.346,22.9824 5,22.9824 L6,22.9824 L6,41.9824 C6,43.6364 7.346,44.9824 9,44.9824 L20,44.9824 L27.334,44.9824 L38.334,44.9824 C39.988,44.9824 41.334,43.6364 41.334,41.9824 L41.334,22.9824 L42.334,22.9824 C43.988,22.9824 45.334,21.6364 45.334,19.9824 L45.334,14.1484 C45.334,12.4944 43.988,11.1484 42.334,11.1484 Z" id="Page-1"></path>
                    </g>
                </g>
            </g>
        </g>
    </g>
</svg>