<?xml version="1.0" encoding="UTF-8"?>
<svg width="68px" height="47px" viewBox="0 0 68 47" version="1.1" xmlns="http://www.w3.org/2000/svg" xmlns:xlink="http://www.w3.org/1999/xlink">
    <!-- Generator: Sketch 50.2 (55047) - http://www.bohemiancoding.com/sketch -->
    <title>icono-novios</title>
    <desc>Created with Sketch.</desc>
    <defs>
        <polygon id="path-1" points="0 0 67.7871923 0 67.7871923 46.5509333 0 46.5509333"></polygon>
    </defs>
    <g id="_HOME" stroke="none" stroke-width="1" fill="none" fill-rule="evenodd">
        <g id="Home.Mobile-Aprobado" transform="translate(-124.000000, -5204.000000)">
            <g id="cifras" transform="translate(0.000000, 4927.000000)">
                <g id="1" transform="translate(44.000000, 265.000000)">
                    <g id="icono-novios" transform="translate(80.000000, 0.000000)">
                        <g id="Page-1" transform="translate(0.000000, 12.000000)">
                            <mask id="mask-2" fill="white">
                                <use xlink:href="#path-1"></use>
                            </mask>
                            <g id="Clip-2"></g>
                            <path d="M66.4602692,43.3776 C66.4602692,44.3936 65.6375769,45.2176 64.6291154,45.2176 L63.9948462,45.2176 L62.6679231,45.2176 L5.54123077,45.2176 L4.21430769,45.2176 L3.15807692,45.2176 C2.14961538,45.2176 1.32692308,44.3936 1.32692308,43.3776 L1.32692308,42.4842667 C1.32692308,41.4682667 2.14961538,40.6442667 3.15807692,40.6442667 L4.21430769,40.6442667 L5.54123077,40.6442667 L62.6679231,40.6442667 L63.9948462,40.6442667 L64.6291154,40.6442667 C65.6375769,40.6442667 66.4602692,41.4682667 66.4602692,42.4842667 L66.4602692,43.3776 Z M5.54123077,39.3082667 L62.6679231,39.3082667 L62.6679231,34.6869333 L5.54123077,34.6869333 L5.54123077,39.3082667 Z M5.54123077,33.3536 L62.6679231,33.3536 L62.6679231,30.1402667 L5.54123077,30.1402667 L5.54123077,33.3536 Z M5.54123077,23.1589333 C6.55765385,24.3562667 8.04911538,25.1349333 9.73696154,25.1349333 C11.8573846,25.1349333 13.6779231,23.9189333 14.6094231,22.1562667 C15.5382692,23.9189333 17.3641154,25.1349333 19.4845385,25.1349333 C21.6049615,25.1349333 23.4255,23.9189333 24.357,22.1562667 C25.2858462,23.9189333 27.1090385,25.1349333 29.2294615,25.1349333 C31.3498846,25.1349333 33.1704231,23.9189333 34.1019231,22.1562667 C35.0307692,23.9189333 36.8539615,25.1349333 38.9743846,25.1349333 C41.0921538,25.1349333 42.918,23.9189333 43.8468462,22.1562667 C44.7783462,23.9189333 46.6015385,25.1349333 48.7193077,25.1349333 C50.8397308,25.1349333 52.6629231,23.9189333 53.5917692,22.1562667 C54.5232692,23.9189333 56.3464615,25.1349333 58.4668846,25.1349333 C60.1547308,25.1349333 61.6515,24.3562667 62.6679231,23.1562667 L62.6679231,28.8069333 L5.54123077,28.8069333 L5.54123077,23.1589333 Z M5.54123077,14.3216 C5.54123077,13.3082667 6.36126923,12.4789333 7.37238462,12.4789333 L60.8367692,12.4789333 C61.8478846,12.4789333 62.6679231,13.3082667 62.6679231,14.3216 L62.6679231,19.6736 C62.6121923,21.9589333 60.7545,23.8016 58.4668846,23.8016 C56.1447692,23.8016 54.2552308,21.9029333 54.2552308,19.5722667 L52.9283077,19.5722667 C52.9283077,21.9029333 51.0387692,23.8016 48.7193077,23.8016 C46.3998462,23.8016 44.5103077,21.9029333 44.5103077,19.5722667 L43.1833846,19.5722667 C43.1833846,21.9029333 41.2965,23.8016 38.9743846,23.8016 C36.6549231,23.8016 34.7653846,21.9029333 34.7653846,19.5722667 L33.4384615,19.5722667 C33.4384615,21.9029333 31.5489231,23.8016 29.2294615,23.8016 C26.91,23.8016 25.0204615,21.9029333 25.0204615,19.5722667 L23.6935385,19.5722667 C23.6935385,21.9029333 21.804,23.8016 19.4845385,23.8016 C17.1624231,23.8016 15.2728846,21.9029333 15.2728846,19.5722667 L13.9459615,19.5722667 C13.9459615,21.9029333 12.0564231,23.8016 9.73696154,23.8016 C7.46261538,23.8016 5.61023077,21.9722667 5.54123077,19.7002667 L5.54123077,14.3216 Z M31.5542308,3.8176 C30.9093462,3.13493333 30.9093462,2.10826667 31.5542308,1.4816 C31.7267308,1.31093333 31.9602692,1.19893333 32.2521923,1.19893333 C32.7192692,1.19893333 33.3615,1.4816 33.948,1.9376 C34.1815385,2.16426667 34.5318462,2.16426667 34.7680385,1.9376 C35.2298077,1.4816 35.8773462,1.19893333 36.4001538,1.19893333 C36.6920769,1.19893333 36.9256154,1.31093333 37.1007692,1.4816 C37.8040385,2.10826667 37.8040385,3.1936 37.1591538,3.8176 L34.3566923,6.55093333 L31.5542308,3.8176 Z M64.6291154,39.3109333 L63.9948462,39.3109333 L63.9948462,19.6762667 C63.9948462,19.6416 64.0054615,19.6096 64.0054615,19.5722667 L63.9948462,19.5722667 L63.9948462,14.3216 C63.9948462,12.5696 62.5776923,11.1456 60.8367692,11.1456 L34.9617692,11.1456 L34.9617692,7.4976 L37.9208077,4.55626667 C38.9717308,3.47626667 38.9717308,1.71093333 37.8624231,0.628266667 C37.4510769,0.2256 36.9256154,-0.00106666667 36.3391154,-0.00106666667 C35.6995385,-0.00106666667 34.9405385,0.284266667 34.2983077,0.740266667 C33.6560769,0.284266667 32.8944231,-0.00106666667 32.2521923,-0.00106666667 C31.671,-0.00106666667 31.1428846,0.2256 30.7341923,0.628266667 C29.6222308,1.71093333 29.6222308,3.47626667 30.6758077,4.55626667 L33.6348462,7.4976 L33.6348462,11.1456 L7.37238462,11.1456 C5.63146154,11.1456 4.21430769,12.5696 4.21430769,14.3216 L4.21430769,19.5722667 L4.20103846,19.5722667 C4.20103846,19.6176 4.21430769,19.6576 4.21430769,19.7002667 L4.21430769,39.3109333 L3.15807692,39.3109333 C1.41715385,39.3109333 0,40.7349333 0,42.4842667 L0,43.3776 C0,45.1269333 1.41715385,46.5509333 3.15807692,46.5509333 L4.21430769,46.5509333 L63.9948462,46.5509333 L64.6291154,46.5509333 C66.3700385,46.5509333 67.7871923,45.1269333 67.7871923,43.3776 L67.7871923,42.4842667 C67.7871923,40.7349333 66.3700385,39.3109333 64.6291154,39.3109333 Z" id="Fill-1" fill="#FFFFFF" mask="url(#mask-2)"></path>
                        </g>
                    </g>
                </g>
            </g>
        </g>
    </g>
</svg>