<svg xmlns="http://www.w3.org/2000/svg" xmlns:xlink="http://www.w3.org/1999/xlink" viewBox="0 0 72 72">
  <path fill="#000" d="M22.2,34.032 C24.2853438,38.0213533 26.9373172,41.6253172 30.156,44.844 C33.3746828,48.0626828 36.9786467,50.7146562 40.968,52.8 L47.224,46.544 C47.5866685,46.135998 48.0399973,45.8640007 48.584,45.728 C49.1280027,45.5919993 49.6493308,45.6373322 50.148,45.864 C53.140015,46.9066719 56.4946481,47.428 60.212,47.428 C60.9826705,47.428 61.6399973,47.6999973 62.184,48.244 C62.7280027,48.7880027 63,49.4453295 63,50.216 L63,60.212 C63,60.9826705 62.7280027,61.6399973 62.184,62.184 C61.6399973,62.7280027 60.9826705,63 60.212,63 C53.6839674,63 47.4280299,61.7306794 41.444,59.192 C35.6866379,56.7439878 30.5866889,53.2986889 26.144,48.856 C21.7013111,44.4133111 18.2560122,39.3133621 15.808,33.556 C13.2693206,27.5719701 12,21.3160326 12,14.788 C12,14.0173295 12.2719973,13.3600027 12.816,12.816 C13.3600027,12.2719973 14.0173295,12 14.788,12 L24.784,12 C25.5546705,12 26.2119973,12.2719973 26.756,12.816 C27.3000027,13.3600027 27.572,14.0173295 27.572,14.788 C27.572,18.5053519 28.0933281,21.859985 29.136,24.852 C29.2720007,25.3506692 29.2946671,25.8719973 29.204,26.416 C29.1133329,26.9600027 28.864002,27.4133315 28.456,27.776 L22.2,34.032 Z"/>
</svg>
