<svg xmlns="http://www.w3.org/2000/svg" viewBox="0 0 24 24">
  <path fill-rule="evenodd" d="M20.5893067,6.69643059 C20.0982347,7.41071716 19.4843947,8.04687863 18.7812688,8.5602721 C18.7924295,8.71652229 18.7924295,8.87277247 18.7924295,9.02902266 C18.7924295,13.7946533 15.1651931,19.2857313 8.53572088,19.2857313 C6.49330774,19.2857313 4.59598405,18.6942128 3,17.6674258 C3.29017892,17.700908 3.56919711,17.7120687 3.87053675,17.7120687 C5.55580662,17.7120687 7.10714775,17.1428716 8.34598852,16.1718883 C6.7611652,16.1384061 5.43303861,15.1004585 4.97544878,13.6718853 C5.19866334,13.7053675 5.42187789,13.727689 5.65625317,13.727689 C5.97991427,13.727689 6.30357537,13.6830461 6.60491501,13.604921 C4.95312733,13.2700991 3.71428657,11.8192046 3.71428657,10.0669703 L3.71428657,10.0223274 C4.19419785,10.2901849 4.75223423,10.4575958 5.34375279,10.4799172 C4.37276949,9.83259505 3.73660802,8.72768302 3.73660802,7.47768153 C3.73660802,6.80803787 3.91517966,6.19419785 4.22768003,5.65848293 C6.00223572,7.84598554 8.66964962,9.27455867 11.6607246,9.43080885 C11.604921,9.16295139 11.5714388,8.8839332 11.5714388,8.60491501 C11.5714388,6.6183055 13.1785836,5 15.1763538,5 C16.2143015,5 17.1518026,5.43526838 17.8102855,6.13839421 C18.6250186,5.98214403 19.4062696,5.68080438 20.0982347,5.26785746 C19.8303772,6.10491203 19.2611801,6.80803787 18.5134114,7.25446697 C19.2388586,7.17634188 19.9419845,6.97544878 20.5893067,6.69643059 Z"/>
</svg>
