<svg xmlns="http://www.w3.org/2000/svg" xmlns:xlink="http://www.w3.org/1999/xlink" viewBox="0 0 72 72">
  <path fill="#000" d="M66,35.2273333 C66,51.3693333 52.814,64.4546667 36.5453333,64.4546667 C31.3806667,64.4546667 26.5286667,63.1346667 22.3073333,60.818 L6,66 L11.3166667,50.3186667 C8.63466667,45.9146667 7.09,40.7493333 7.09,35.2273333 C7.09,19.0853333 20.2773333,6 36.5453333,6 C52.8153333,6 66,19.0853333 66,35.2273333 Z M36.5453333,10.6546667 C22.8893333,10.6546667 11.7813333,21.678 11.7813333,35.2273333 C11.7813333,40.604 13.534,45.5833333 16.4986667,49.634 L13.4046667,58.76 L22.9213333,55.7353333 C26.8313333,58.3026667 31.5153333,59.8 36.546,59.8 C50.2,59.8 61.31,48.778 61.31,35.2286667 C61.31,21.6793333 50.2006667,10.6546667 36.5453333,10.6546667 Z M51.4193333,41.9586667 C51.2373333,41.6606667 50.7566667,41.4806667 50.0353333,41.1226667 C49.3126667,40.7646667 45.762,39.0306667 45.102,38.7926667 C44.44,38.554 43.9573333,38.434 43.4766667,39.1506667 C42.996,39.868 41.612,41.4806667 41.19,41.9586667 C40.7686667,42.438 40.348,42.498 39.6253333,42.1393333 C38.904,41.7813333 36.578,41.024 33.82,38.584 C31.674,36.6853333 30.2246667,34.3413333 29.8033333,33.6233333 C29.3826667,32.9066667 29.7593333,32.5193333 30.12,32.1626667 C30.4453333,31.8413333 30.8426667,31.326 31.2033333,30.908 C31.5653333,30.4893333 31.6853333,30.1913333 31.9246667,29.7126667 C32.1666667,29.2346667 32.046,28.8166667 31.8646667,28.4573333 C31.6846667,28.0993333 30.2393333,24.574 29.638,23.1393333 C29.0366667,21.706 28.436,21.9446667 28.014,21.9446667 C27.5933333,21.9446667 27.1113333,21.8846667 26.63,21.8846667 C26.1486667,21.8846667 25.366,22.064 24.704,22.7806667 C24.0426667,23.498 22.178,25.2313333 22.178,28.756 C22.178,32.2813333 24.764,35.6873333 25.126,36.1646667 C25.4866667,36.642 30.1193333,44.1113333 37.4593333,46.98 C44.8,49.8473333 44.8,48.8906667 46.124,48.7706667 C47.4466667,48.6513333 50.3946667,47.038 50.9986667,45.366 C51.5986667,43.6913333 51.5986667,42.2573333 51.4193333,41.9586667 Z"/>
</svg>
